<svg xmlns="http://www.w3.org/2000/svg" width="107.614" height="82.737" viewBox="0 0 107.614 82.737">
  <g id="Grupo_904449" data-name="Grupo 904449" transform="translate(-331.141 -4739)">
    <g id="Grupo_904060" data-name="Grupo 904060" transform="translate(779.485 4363.563)">
      <path id="Trazado_632665" data-name="Trazado 632665" d="M-340.729,455.439c-.932,2.158-2.641,2.737-4.884,2.735q-49.137-.059-98.274-.027c-2.371,0-3.976-.886-4.208-2.781-.284-2.315-.57-4.66.648-6.941,2.531-4.738,4.911-9.558,7.313-14.363a4.37,4.37,0,0,0,.449-1.882q.036-26.405.019-52.812c0-2.876,1.047-3.931,3.9-3.931h82.525c2.857,0,3.9,1.055,3.9,3.931q0,26.406.019,52.812a4.369,4.369,0,0,0,.449,1.882c2.545,5.086,5.133,10.149,7.712,15.218.123.242.282.466.424.7Zm-42.464-7.987c-.259-.973-.57-1.936-.76-2.922-.138-.718-.441-.931-1.181-.926-5.3.036-10.6.012-15.905.025-1.244,0-2.879-.391-3.625.239-.811.684-.8,2.348-1.141,3.585l-.449,1.444h23.51Zm-53.294-17.218v1.692h83.937V378.62h-9.4c-.244-.01-.489-.029-.733-.029q-36.481,0-72.961,0c-.268,0-.537.033-.867.055v1.2q0,18.162,0,36.323Q-436.51,423.2-436.487,430.234Zm74.111,4.928c-.349-.016-.7-.047-1.046-.047q-36.332,0-72.664,0c-.14,0-.3-.047-.415.009-.307.153-.732.278-.865.539-2.008,3.915-3.977,7.85-5.956,11.78l-.777,1.447h34.611l.3-1.428c.417-1.437.84-2.872,1.251-4.31.548-1.917,1.488-2.672,3.466-2.675q9.968-.017,19.936,0c1.978,0,2.918.758,3.466,2.675.411,1.438.834,2.874,1.251,4.31l.3,1.406h34.608c-2.284-4.51-4.514-8.929-6.775-13.332a.973.973,0,0,0-.733-.407C-355.736,435.118-359.056,435.145-362.376,435.163ZM-445.1,452.114c0,.319,0,.557,0,.795.013,2.17-.268,2.07,2,2.07q48.762,0,97.525,0a3.623,3.623,0,0,0,1.042-.031c.247-.077.586-.352.608-.567.075-.744.029-1.5.029-2.265Z" transform="translate(0)" fill="#020202"/>
      <path id="Trazado_632666" data-name="Trazado 632666" d="M-365.749,614.588c-.417-1.437-.84-2.872-1.251-4.31-.548-1.917-1.488-2.672-3.466-2.675q-9.968-.016-19.936,0c-1.978,0-2.919.758-3.466,2.675-.411,1.438-.833,2.874-1.251,4.31l-34.138-.019c1.978-3.93,3.947-7.866,5.956-11.781.134-.261.559-.386.865-.539.112-.056.275-.009.415-.009q36.332,0,72.664,0c.349,0,.7.031,1.046.047,1.513,2.985,3.037,5.964,4.534,8.956,1.012,2.023.186,3.337-2.072,3.338Q-355.8,614.589-365.749,614.588Z" transform="translate(-14.066 -167.127)" fill="#9dbdcb"/>
      <path id="Trazado_632667" data-name="Trazado 632667" d="M-403.348,439.07q-.013-7.033-.025-14.066-.005-18.162,0-36.323v-1.2c.33-.022.6-.055.867-.055q36.481,0,72.961,0c.244,0,.488.019.733.029l.012,3.3c-.419.01-.838.03-1.257.03l-66.719,0c-2.33,0-3.237.9-3.238,3.221,0,5.141.016,10.281-.014,15.421a1.856,1.856,0,0,0,1.551,2.127q0,2.6-.005,5.193a1.73,1.73,0,0,0-1.542,2c.019,5.074.008,10.149.008,15.223,0,2.741.731,3.466,3.492,3.466q33.229,0,66.457,0c.419,0,.838.023,1.257.036-.1,1.208-.61,1.621-2.043,1.621q-35.828,0-71.656,0C-402.79,439.1-403.069,439.079-403.348,439.07Z" transform="translate(-33.139 -8.835)" fill="#dee9ee"/>
      <path id="Trazado_632668" data-name="Trazado 632668" d="M-328.727,390.836q-.006-1.648-.012-3.3h9.4v53.306h-83.937v-1.692c.279.009.559.026.838.026q35.828,0,71.656,0c1.433,0,1.946-.412,2.043-1.621,1.08-.017,2.161-.032,3.241-.052,1.908-.037,2.844-.941,2.849-2.829.014-5.306,0-10.612.011-15.917a1.7,1.7,0,0,0-1.51-1.922q0-2.608,0-5.216a1.891,1.891,0,0,0,1.521-2.154c-.034-5.2-.009-10.406-.018-15.609,0-1.992-.958-2.945-2.944-2.981C-326.634,390.861-327.68,390.85-328.727,390.836Z" transform="translate(-33.213 -8.919)" fill="#9dbdcb"/>
      <path id="Trazado_632669" data-name="Trazado 632669" d="M-436.042,666.917h101.2c0,.765.046,1.521-.029,2.265-.022.215-.361.49-.608.567a3.621,3.621,0,0,1-1.042.031q-48.762,0-97.525,0c-2.266,0-1.984.1-2-2.07C-436.043,667.474-436.042,667.236-436.042,666.917Z" transform="translate(-9.062 -214.803)" fill="#83a9b7"/>
      <path id="Trazado_632670" data-name="Trazado 632670" d="M-187.839,614.674q9.95,0,19.9,0c2.258,0,3.084-1.316,2.072-3.338-1.5-2.993-3.021-5.971-4.534-8.956,3.32-.018,6.64-.044,9.96-.035a.973.973,0,0,1,.733.407c2.261,4.4,4.491,8.822,6.775,13.332H-187.54Z" transform="translate(-191.976 -167.212)" fill="#83a9b7"/>
      <path id="Trazado_632671" data-name="Trazado 632671" d="M-286.641,638.153c.345-1.237.33-2.9,1.141-3.585.746-.629,2.381-.236,3.625-.239,5.3-.013,10.6.011,15.905-.025.74-.005,1.043.208,1.181.926.19.987.5,1.949.76,2.922Z" transform="translate(-119.165 -190.7)" fill="#dde8ed"/>
      <path id="Trazado_632672" data-name="Trazado 632672" d="M-431.432,649.156l34.138.019-.3,1.428h-34.611Z" transform="translate(-11.89 -201.714)" fill="#83a9b7"/>
      <path id="Trazado_632673" data-name="Trazado 632673" d="M-287.9,649.2h22.612l.449,1.444h-23.51Z" transform="translate(-117.907 -201.743)" fill="#9dbdcb"/>
      <path id="Trazado_632674" data-name="Trazado 632674" d="M-384.778,434.985q0-2.6,0-5.193c1.388-.457,1.614-.769,1.615-2.287q0-7.086,0-14.171v-1.157h.975q33.118,0,66.237,0c.279,0,.558.024.837.036q.006,18.21.009,36.419c0,1.151-.2,1.322-1.48,1.322l-66.541,0q-.019-6.472-.04-12.943C-383.166,435.708-383.528,435.276-384.778,434.985Z" transform="translate(-46.844 -27.075)" fill="#35e4e4"/>
      <path id="Trazado_632675" data-name="Trazado 632675" d="M-319.441,403.291c-.279-.013-.558-.036-.837-.036q-33.118,0-66.237,0h-.975v1.157q0,7.086,0,14.171c0,1.518-.227,1.83-1.615,2.287a1.856,1.856,0,0,1-1.551-2.127c.03-5.14.012-10.281.014-15.421,0-2.316.908-3.22,3.238-3.221l66.719,0c.419,0,.838-.02,1.257-.03,1.046.014,2.093.025,3.139.044,1.987.036,2.941.99,2.944,2.981.008,5.2-.016,10.406.018,15.609a1.891,1.891,0,0,1-1.521,2.154c-1.361-.407-1.633-.75-1.635-2.154q-.008-7.137,0-14.274v-1.137Z" transform="translate(-42.512 -18.152)" fill="#020202"/>
      <path id="Trazado_632676" data-name="Trazado 632676" d="M-389.1,498.881c1.25.291,1.612.724,1.618,2.024q.03,6.472.04,12.943v2.514h70.966v-1.182q0-7.085,0-14.171c0-1.414.349-1.85,1.637-2.12a1.7,1.7,0,0,1,1.51,1.922c-.013,5.306,0,10.611-.011,15.917,0,1.888-.941,2.793-2.849,2.829-1.08.021-2.16.035-3.241.052-.419-.012-.838-.036-1.257-.036q-33.229,0-66.457,0c-2.761,0-3.491-.726-3.492-3.466,0-5.075.011-10.149-.008-15.223A1.73,1.73,0,0,1-389.1,498.881Z" transform="translate(-42.525 -90.971)" fill="#010303"/>
      <path id="Trazado_632677" data-name="Trazado 632677" d="M-305.872,435.1c-1.287.27-1.635.706-1.637,2.12q-.008,7.085,0,14.171v1.182h-70.966V450.06l66.542,0c1.278,0,1.48-.171,1.48-1.322q0-18.21-.01-36.419h2.955v1.137q0,7.137,0,14.274c0,1.4.274,1.747,1.635,2.154Q-305.872,432.494-305.872,435.1Z" transform="translate(-51.487 -27.182)" fill="#28ccc8"/>
    </g>
  </g>
</svg>
