<svg xmlns="http://www.w3.org/2000/svg" width="260.3" height="239.506" viewBox="0 0 260.3 239.506">
  <g id="Grupo_904444" data-name="Grupo 904444" transform="translate(-1084.666 -398)">
    <g id="Grupo_904443" data-name="Grupo 904443" transform="translate(1047.157 340.319)">
      <ellipse id="Floor" cx="130.15" cy="81.903" rx="130.15" ry="81.903" transform="translate(37.509 133.381)" fill="#f5f5f5"/>
      <ellipse id="Elipse_7592" data-name="Elipse 7592" cx="28.702" cy="16.571" rx="28.702" ry="16.571" transform="translate(184.238 246.098)" fill="#e0e0e0"/>
      <g id="Grupo_904399" data-name="Grupo 904399" transform="translate(49.912 113.924)">
        <path id="Trazado_675649" data-name="Trazado 675649" d="M60.773,196.391l.111.068c-.049-.031-.1-.055-.142-.08-.092-.055-.178-.1-.265-.154Z" transform="translate(-58.749 -167.229)" opacity="0.3"/>
        <path id="Trazado_675650" data-name="Trazado 675650" d="M57.693,193.169a.389.389,0,0,0-.006.221.341.341,0,0,1,0-.221l.407-1.354Z" transform="translate(-57.668 -165.532)" fill="#27debf"/>
        <path id="Trazado_675651" data-name="Trazado 675651" d="M57.693,193.169a.389.389,0,0,0-.006.221.341.341,0,0,1,0-.221l.407-1.354Z" transform="translate(-57.668 -165.532)" fill="#fff" opacity="0.4"/>
        <g id="Grupo_904396" data-name="Grupo 904396" transform="translate(0.005 0)">
          <path id="Trazado_675652" data-name="Trazado 675652" d="M97.97,157.211l-7.561-4.381a.656.656,0,0,0-.087-.055.361.361,0,0,0-.142-.025c-.185-.1-.381-.221-.584-.332-.259-.148-.53-.308-.807-.468-1.107-.646-2.326-1.347-3.261-1.889-.178-.1-.35-.2-.5-.3-.6-.351-1-.578-1.028-.6a.588.588,0,0,0-.375-.068l-3.809.375a1.132,1.132,0,0,0-.633.3.687.687,0,0,0-.2.277l-2.068,5.537c-.006.012-.006.025-.018.037-.018.037-.036.068-.055.1a.416.416,0,0,1-.08.111,1.666,1.666,0,0,1-.142.16,2.113,2.113,0,0,1-.394.314c-.049.031-.092.055-.141.08-.4.185-.806.4-1.212.634l-3.994-2.313a.312.312,0,0,0-.172-.049.635.635,0,0,0-.444.234H70.26l-2.5,2.639-1.68,1.772a1.306,1.306,0,0,0-.295.523.679.679,0,0,0-.031.394l1.168,3.938a.359.359,0,0,1,.012.142.605.605,0,0,1-.018.252.848.848,0,0,1-.037.16c0,.018,0,.031-.006.037a.221.221,0,0,1-.025.068.412.412,0,0,1-.049.123.964.964,0,0,1-.092.172,30.206,30.206,0,0,0-1.92,3.341.561.561,0,0,1-.092.129,1.1,1.1,0,0,1-.116.129,1.525,1.525,0,0,1-.7.412L60.3,170a1.285,1.285,0,0,0-.683.437.751.751,0,0,0-.129.24l-.221.751L58.1,175.379l-.4,1.354a.389.389,0,0,0-.006.221.379.379,0,0,0,.05.117.35.35,0,0,0,.092.1.617.617,0,0,0,.062.043l.6.351.167.092v.006l.48.277.258.154.3.166.111.068.314.178,1.741,1a.076.076,0,0,1,.018.012,15.814,15.814,0,0,0,.068,1.624,1.129,1.129,0,0,1-.074.443,1.657,1.657,0,0,1-.277.517l-3.648,4.417a1.1,1.1,0,0,0-.228.455c-.006.043-.018.086-.025.129a.541.541,0,0,0,.031.32l1.735,3.833a.27.27,0,0,0,.049.074.167.167,0,0,0,.062.049l.013.012c.141.08,1.255.72,2.59,1.5.222.123.449.258.684.394.861.5,1.765,1.015,2.522,1.458.1.055.2.117.3.172.831.48,1.446.837,1.569.9a.264.264,0,0,1-.1-.117l-1.729-3.827a.689.689,0,0,1-.006-.461,1.179,1.179,0,0,1,.228-.443l3.643-4.417a1.761,1.761,0,0,0,.289-.529,1.058,1.058,0,0,0,.068-.437,17.264,17.264,0,0,1,.007-3.144.53.53,0,0,0-.548-.535l-3.273-.185a.577.577,0,0,1-.258-.074c-.006,0-.012-.006-.018-.012a.39.39,0,0,1-.166-.455l1.582-5.322.221-.744a.7.7,0,0,1,.147-.252,1.286,1.286,0,0,1,.658-.418l3.581-.861a1.579,1.579,0,0,0,.714-.425,1.01,1.01,0,0,0,.191-.252,32.17,32.17,0,0,1,1.926-3.335,1.43,1.43,0,0,0,.227-.824v-.006a.37.37,0,0,0-.018-.123l-1.162-3.938a.767.767,0,0,1,.036-.431,1.318,1.318,0,0,1,.289-.486l.055-.055,4.123-4.362a.559.559,0,0,1,.578-.2l.03.018a.24.24,0,0,1,.1.092l1.944,2.972c.142.215.5.2.819-.018a16.886,16.886,0,0,1,2.356-1.366,1.793,1.793,0,0,0,.818-.775.047.047,0,0,0,.012-.025l2.068-5.537a.746.746,0,0,1,.2-.289,1.1,1.1,0,0,1,.628-.289l3.809-.381a.621.621,0,0,1,.332.049c.012.006.018.006.025.012a.343.343,0,0,1,.166.388l-1.2,5.445a.621.621,0,0,0,.394.683,6.071,6.071,0,0,1,1.661.966.693.693,0,0,0,.855-.142l3.888-3.556A.551.551,0,0,1,97.97,157.211Z" transform="translate(-57.677 -149.096)" fill="#27debf"/>
          <path id="Trazado_675653" data-name="Trazado 675653" d="M119.431,181.6c0,.5-.031,1.009-.073,1.526a.537.537,0,0,0,.547.535l3.268.185a.574.574,0,0,1,.239.055C123.184,183.767,121.283,182.666,119.431,181.6Z" transform="translate(-81.408 -161.6)" fill="#27debf"/>
          <path id="Trazado_675654" data-name="Trazado 675654" d="M100.315,216.84c-.135-.215-.493-.2-.813.018-.381.258-.769.5-1.144.726l4,2.326V219.9a.328.328,0,0,1-.1-.086Z" transform="translate(-73.329 -175.102)" fill="#27debf"/>
          <path id="Trazado_675655" data-name="Trazado 675655" d="M80.328,219.689a6.061,6.061,0,0,1-1.668-.972.687.687,0,0,0-.849.148l-3.888,3.556a.693.693,0,0,1-.425.2c2.172,1.261,5.938,3.439,6.178,3.575a.334.334,0,0,1-.16-.369l1.2-5.457A.605.605,0,0,0,80.328,219.689Z" transform="translate(-63.764 -175.847)" fill="#27debf"/>
        </g>
        <g id="Grupo_904398" data-name="Grupo 904398" transform="translate(7.691 3.682)">
          <path id="Trazado_675656" data-name="Trazado 675656" d="M96.423,193.986A10.933,10.933,0,0,1,91.47,197.2a2.086,2.086,0,0,1-.209.049,1.3,1.3,0,0,1-.148.037l-.338.055c-.135.018-.265.031-.394.037-.086.006-.166.006-.246.006a.371.371,0,0,1-.117,0,3.816,3.816,0,0,1-3.587-2.406,6.639,6.639,0,0,1-.523-2c.3-.135.6-.3.9-.468a16.9,16.9,0,0,0,7.648-13.246c0-.369-.012-.714-.043-1.04a5.993,5.993,0,0,1,2.7-.572h.031c.043,0,.086.006.135.006l.135.018a.607.607,0,0,1,.148.018,3.833,3.833,0,0,1,3,2.363C102.175,183.632,100.323,189.87,96.423,193.986Z" transform="translate(-76.224 -163.763)" fill="#27debf"/>
          <path id="Trazado_675657" data-name="Trazado 675657" d="M96.423,193.986A10.933,10.933,0,0,1,91.47,197.2a2.086,2.086,0,0,1-.209.049,1.3,1.3,0,0,1-.148.037l-.338.055c-.135.018-.265.031-.394.037-.086.006-.166.006-.246.006a.371.371,0,0,1-.117,0,3.816,3.816,0,0,1-3.587-2.406,6.639,6.639,0,0,1-.523-2c.3-.135.6-.3.9-.468a16.9,16.9,0,0,0,7.648-13.246c0-.369-.012-.714-.043-1.04a5.993,5.993,0,0,1,2.7-.572h.031c.043,0,.086.006.135.006l.135.018a.607.607,0,0,1,.148.018,3.833,3.833,0,0,1,3,2.363C102.175,183.632,100.323,189.87,96.423,193.986Z" transform="translate(-76.224 -163.763)" opacity="0.4"/>
          <g id="Grupo_904397" data-name="Grupo 904397" transform="translate(0 0.768)">
            <path id="Trazado_675658" data-name="Trazado 675658" d="M104.5,174.188a.078.078,0,0,0-.018-.011.565.565,0,0,0-.237-.06l-3.265-.185a.528.528,0,0,1-.549-.531c.045-.516.071-1.028.075-1.525a15.421,15.421,0,0,0-.071-1.623,1.581,1.581,0,0,1,.357-.964l3.645-4.413a1,1,0,0,0,.223-.908l-1.733-3.829a.253.253,0,0,0-.105-.121l-.023-.011a.529.529,0,0,0-.557.173l-3.893,3.555a.687.687,0,0,1-.851.143,6.064,6.064,0,0,0-1.664-.968.622.622,0,0,1-.392-.681l1.2-5.449a.338.338,0,0,0-.166-.385.643.643,0,0,0-.361-.064l-3.807.381a1.045,1.045,0,0,0-.832.58l-2.064,5.535a1.776,1.776,0,0,1-.832.8A17.2,17.2,0,0,0,86.226,165c-.32.215-.678.229-.817.019l-1.947-2.975c-.14-.211-.452-.166-.7.094l-4.179,4.417a1.1,1.1,0,0,0-.324.915l1.164,3.942a1.346,1.346,0,0,1-.211.949,31.792,31.792,0,0,0-1.924,3.336,1.526,1.526,0,0,1-.907.677l-3.578.863a1.184,1.184,0,0,0-.809.67l-1.8,6.063a.429.429,0,0,0,.444.546l3.269.185a.531.531,0,0,1,.549.531,17.252,17.252,0,0,0-.007,3.148,1.538,1.538,0,0,1-.354.964l-3.645,4.417a1,1,0,0,0-.222.907l1.732,3.826a.239.239,0,0,0,.106.121s0,0,0,0a.014.014,0,0,0,.011,0,.277.277,0,0,0,.136.034h0a.673.673,0,0,0,.425-.2l3.89-3.559a.694.694,0,0,1,.851-.143,6.175,6.175,0,0,0,1.664.968.616.616,0,0,1,.391.681l-1.2,5.453a.334.334,0,0,0,.158.372s.007,0,.011.008a.6.6,0,0,0,.358.064l3.807-.377a1.062,1.062,0,0,0,.832-.58l2.067-5.535A1.8,1.8,0,0,1,86.3,195c.4-.188.805-.4,1.208-.637.38-.222.764-.466,1.149-.727.316-.218.677-.233.813-.022l1.95,2.978a.256.256,0,0,0,.094.086c.158.1.4.03.606-.184l4.184-4.417a1.107,1.107,0,0,0,.32-.915l-1.163-3.939a1.343,1.343,0,0,1,.215-.949,31.164,31.164,0,0,0,1.92-3.34,1.518,1.518,0,0,1,.911-.674l3.573-.862a1.167,1.167,0,0,0,.81-.674l1.8-6.058A.405.405,0,0,0,104.5,174.188ZM85.416,188.994c-.071.019-.139.038-.211.053-.052.015-.1.022-.15.034-.113.023-.226.041-.339.057-.134.019-.263.029-.393.038-.082,0-.163.007-.244.009h-.114a3.822,3.822,0,0,1-3.587-2.412,6.564,6.564,0,0,1-.523-2,8.132,8.132,0,0,1-.06-1.107,17.045,17.045,0,0,1,4.722-10.822,13.123,13.123,0,0,1,2.884-2.339,8.693,8.693,0,0,1,.96-.49,6.08,6.08,0,0,1,2.7-.572.083.083,0,0,1,.03,0c.046,0,.09,0,.136.007s.094.008.139.015a.926.926,0,0,1,.147.019,3.818,3.818,0,0,1,2.993,2.364c1.616,3.573-.237,9.809-4.138,13.924A10.885,10.885,0,0,1,85.416,188.994Z" transform="translate(-70.168 -156.33)" fill="#27debf"/>
          </g>
          <line id="Línea_635" data-name="Línea 635" x2="7.696" y2="4.456" transform="translate(24.957)" fill="none"/>
        </g>
        <path id="Trazado_675659" data-name="Trazado 675659" d="M73.5,185.437a1.58,1.58,0,0,1-.714.424l-3.581.861a1.286,1.286,0,0,0-.658.418l-7.709-4.436a1.285,1.285,0,0,1,.683-.437l3.575-.861a1.525,1.525,0,0,0,.7-.412H65.8Z" transform="translate(-58.888 -161.369)" opacity="0.2"/>
        <path id="Trazado_675660" data-name="Trazado 675660" d="M79.67,175.464l-7.691-4.436a.359.359,0,0,0-.012-.141L70.8,166.949a.679.679,0,0,1,.031-.394l5.875,3.372,1.821,1.046a.767.767,0,0,0-.036.431l1.162,3.938A.37.37,0,0,1,79.67,175.464Z" transform="translate(-62.713 -155.814)" opacity="0.3"/>
        <path id="Trazado_675661" data-name="Trazado 675661" d="M98.9,154.647a.746.746,0,0,0-.2.289l-2.068,5.537a.047.047,0,0,1-.012.025l-7.7-4.442c.012-.012.012-.025.018-.037L91,150.482a.687.687,0,0,1,.2-.277Z" transform="translate(-69.691 -149.523)" opacity="0.3"/>
        <path id="Trazado_675662" data-name="Trazado 675662" d="M118.3,159.5a.551.551,0,0,0-.535.185l-3.888,3.556a.693.693,0,0,1-.855.141,6.072,6.072,0,0,0-1.661-.966.621.621,0,0,1-.394-.683l1.2-5.445A.343.343,0,0,0,112,155.9c-.006-.006-.012-.006-.025-.012-.111-.068-.682-.394-1.464-.849a.361.361,0,0,1,.142.025.656.656,0,0,1,.087.055Z" transform="translate(-77.998 -151.381)" opacity="0.3"/>
        <path id="Trazado_675663" data-name="Trazado 675663" d="M123.412,183.9a.574.574,0,0,0-.239-.055l-3.268-.185a.537.537,0,0,1-.547-.535c.042-.517.073-1.027.073-1.526C121.283,182.666,123.184,183.767,123.412,183.9Z" transform="translate(-81.403 -161.6)" opacity="0.3"/>
        <path id="Trazado_675664" data-name="Trazado 675664" d="M102.364,219.9v.006l-4-2.326c.375-.222.763-.468,1.144-.726.32-.215.677-.234.813-.018l1.95,2.978A.328.328,0,0,0,102.364,219.9Z" transform="translate(-73.324 -175.102)" opacity="0.4"/>
        <path id="Trazado_675665" data-name="Trazado 675665" d="M80.715,220.366l-1.2,5.457a.334.334,0,0,0,.16.369c-.24-.135-4.005-2.313-6.178-3.575a.693.693,0,0,0,.425-.2l3.888-3.556a.687.687,0,0,1,.849-.148,6.061,6.061,0,0,0,1.668.972A.605.605,0,0,1,80.715,220.366Z" transform="translate(-63.759 -175.847)" opacity="0.4"/>
        <path id="Trazado_675666" data-name="Trazado 675666" d="M69.6,206.347a1.761,1.761,0,0,1-.289.529l-3.643,4.417a1.179,1.179,0,0,0-.228.443l-7.691-4.442a1.1,1.1,0,0,1,.228-.455l3.648-4.417a1.657,1.657,0,0,0,.277-.517Z" transform="translate(-57.699 -169.414)" opacity="0.2"/>
        <path id="Trazado_675667" data-name="Trazado 675667" d="M95.349,164.157a1.793,1.793,0,0,1-.818.775,16.888,16.888,0,0,0-2.356,1.366c-.321.215-.677.234-.819.018l-1.944-2.972a.239.239,0,0,0-.1-.092l-.03-.018-3.655-2.116c.406-.234.812-.449,1.212-.634.049-.025.092-.049.141-.08a2.112,2.112,0,0,0,.394-.314,1.666,1.666,0,0,0,.142-.16.417.417,0,0,0,.08-.111c.019-.037.037-.068.055-.1Z" transform="translate(-68.426 -153.182)" opacity="0.1"/>
        <path id="Trazado_675668" data-name="Trazado 675668" d="M72.262,204.617a1.058,1.058,0,0,1-.068.437l-7.7-4.442a1.129,1.129,0,0,0,.074-.443,15.819,15.819,0,0,1-.068-1.624l3.667,2.123c.006.006.012.012.018.012a.577.577,0,0,0,.258.074l3.273.185a.53.53,0,0,1,.548.535A17.265,17.265,0,0,0,72.262,204.617Z" transform="translate(-60.296 -168.122)" opacity="0.4"/>
        <path id="Trazado_675669" data-name="Trazado 675669" d="M78.949,178.261v.006a1.43,1.43,0,0,1-.227.824,32.162,32.162,0,0,0-1.926,3.335,1.009,1.009,0,0,1-.191.252l-7.7-4.442a.538.538,0,0,0,.111-.129.561.561,0,0,0,.092-.129,30.211,30.211,0,0,1,1.92-3.341.963.963,0,0,0,.092-.172.413.413,0,0,0,.049-.123.22.22,0,0,0,.025-.068c.006-.006.006-.018.006-.037a.848.848,0,0,0,.037-.16.606.606,0,0,0,.018-.252Z" transform="translate(-61.993 -158.611)" opacity="0.1"/>
        <path id="Trazado_675670" data-name="Trazado 675670" d="M69.015,180.785a.538.538,0,0,1-.111.129H68.9A1.1,1.1,0,0,0,69.015,180.785Z" transform="translate(-61.989 -161.289)" opacity="0.3"/>
        <path id="Trazado_675671" data-name="Trazado 675671" d="M67.251,219.512c-.122-.068-.738-.425-1.569-.9-.1-.055-.2-.117-.3-.172-.757-.443-1.661-.96-2.522-1.458-.234-.135-.461-.271-.684-.394-1.334-.781-2.449-1.421-2.59-1.5l-.013-.012a.168.168,0,0,1-.062-.049.27.27,0,0,1-.049-.074l-1.735-3.833a.541.541,0,0,1-.031-.32c.006-.043.018-.086.025-.129l7.691,4.442a.689.689,0,0,0,.006.461l1.729,3.827A.264.264,0,0,0,67.251,219.512Z" transform="translate(-57.677 -172.785)" opacity="0.4"/>
        <path id="Trazado_675672" data-name="Trazado 675672" d="M59.622,183.775a.751.751,0,0,0-.129.24l-.221.751L58.1,188.722l-.4,1.354a.389.389,0,0,0-.006.221.379.379,0,0,0,.05.117.351.351,0,0,0,.092.1.626.626,0,0,0,.062.043l.6.351.167.092V191l.48.277.258.154.3.166.111.068.314.178,1.741,1a.076.076,0,0,1,.018.012l3.667,2.123a.389.389,0,0,1-.166-.455l1.582-5.322.221-.744a.7.7,0,0,1,.147-.252Z" transform="translate(-57.671 -162.439)" opacity="0.3"/>
        <path id="Trazado_675673" data-name="Trazado 675673" d="M79.946,160.518,75.953,158.2a.313.313,0,0,0-.172-.049.635.635,0,0,0-.444.234h-.006l-2.5,2.639-1.68,1.772a1.306,1.306,0,0,0-.295.523l5.875,3.372,1.821,1.046a1.319,1.319,0,0,1,.289-.486l.055-.055,4.123-4.362a.559.559,0,0,1,.578-.2Z" transform="translate(-62.743 -152.582)" fill="#fff" opacity="0.5"/>
        <path id="Trazado_675674" data-name="Trazado 675674" d="M105.093,153.6a.621.621,0,0,0-.332-.049l-3.809.381a1.1,1.1,0,0,0-.628.289l-7.7-4.442a1.132,1.132,0,0,1,.633-.3l3.809-.375a.588.588,0,0,1,.375.068c.025.018.425.246,1.028.6.154.092.325.191.5.3.935.541,2.153,1.243,3.261,1.889.277.16.548.32.807.468.2.111.4.228.584.332C104.411,153.205,104.983,153.531,105.093,153.6Z" transform="translate(-71.119 -149.096)" fill="#fff" opacity="0.5"/>
        <line id="Línea_636" data-name="Línea 636" x1="0.092" y1="0.049" transform="translate(32.645 3.685)" fill="none"/>
      </g>
      <g id="Device" transform="translate(98.984 63.3)">
        <path id="Trazado_675675" data-name="Trazado 675675" d="M215.173,72.7c-.169-1.237-1.162-1.686-2.355-.993l-65.511,37.818a5.284,5.284,0,0,0-2.38,4.128v144.56c0,1.4.906,2.036,2.08,1.524a5.31,5.31,0,0,1-4.465-.15l-2.729-1.571a5.254,5.254,0,0,1-2.386-4.128V109.339a5.254,5.254,0,0,1,2.386-4.128l65.5-37.824a5.252,5.252,0,0,1,4.766,0l2.735,1.571A5.315,5.315,0,0,1,215.173,72.7Z" transform="translate(-137.428 -66.815)" fill="#37474f"/>
        <path id="Trazado_675676" data-name="Trazado 675676" d="M217.509,74.57,152,112.387a5.284,5.284,0,0,0-2.38,4.128v144.56c0,1.518,1.068,2.136,2.38,1.374l65.511-37.818a5.283,5.283,0,0,0,2.38-4.128V75.944C219.889,74.426,218.821,73.808,217.509,74.57ZM216.46,206.89c0,1.3-.912,2.128-2.042,2.777l-59.565,34.389c-1.124.65-2.042.125-2.042-1.18V130.325a4.534,4.534,0,0,1,2.042-3.541L214.418,92.4c1.13-.656,2.042-.125,2.042,1.175Z" transform="translate(-142.118 -69.673)" fill="#455a64"/>
        <path id="Trazado_675677" data-name="Trazado 675677" d="M147.008,284.861a5.31,5.31,0,0,1-4.465-.15l-2.729-1.571a5.264,5.264,0,0,1-2.386-4.128V134.459a4.9,4.9,0,0,1,.7-2.355l7.5,4.325a4.9,4.9,0,0,0-.7,2.348v144.56C144.928,284.736,145.834,285.373,147.008,284.861Z" transform="translate(-137.428 -91.935)" fill="#263238"/>
        <path id="Trazado_675678" data-name="Trazado 675678" d="M205.727,111.581c.882-.509,1.6-.1,1.6.922a3.53,3.53,0,0,1-1.6,2.766c-.882.509-1.6.1-1.6-.922A3.531,3.531,0,0,1,205.727,111.581Z" transform="translate(-163.092 -83.954)" fill="#263238"/>
        <g id="Grupo_904400" data-name="Grupo 904400" transform="translate(34.031 28.337)">
          <path id="Trazado_675679" data-name="Trazado 675679" d="M198.6,120.139c3.245-1.794,9.034-5.239,12.234-7.121.543-.319.983-.1.983.492a2.119,2.119,0,0,1-.988,1.641l-12.254,7.077c-.546.316-.988.092-.988-.5A2.029,2.029,0,0,1,198.6,120.139Z" transform="translate(-194.603 -112.872)" fill="#263238"/>
          <path id="Trazado_675680" data-name="Trazado 675680" d="M193.636,127.515c.5-.286.9-.054.9.518a1.983,1.983,0,0,1-.9,1.553c-.5.286-.9.054-.9-.517A1.982,1.982,0,0,1,193.636,127.515Z" transform="translate(-192.74 -118.459)" fill="#263238"/>
        </g>
        <path id="Trazado_675681" data-name="Trazado 675681" d="M205.3,327.989c2.077-1.2,3.761-.227,3.761,2.172a8.312,8.312,0,0,1-3.761,6.514c-2.077,1.2-3.761.228-3.761-2.171A8.312,8.312,0,0,1,205.3,327.989Z" transform="translate(-162.093 -167.104)" fill="none" stroke="#e6e6e6" stroke-miterlimit="10" stroke-width="1"/>
        <path id="Trazado_675682" data-name="Trazado 675682" d="M218.456,104.755V218.072a4.49,4.49,0,0,1-2.043,3.532L156.852,256c-1.127.646-2.043.123-2.043-1.181v-7.069l54.086-31.224c1.133-.652,2.043-1.477,2.043-2.775v-107l5.475-3.162C217.546,102.928,218.456,103.457,218.456,104.755Z" transform="translate(-144.115 -80.853)" fill="#37474f"/>
        <path id="Trazado_675683" data-name="Trazado 675683" d="M250.641,103.58l-5.475,3.162v107a2.869,2.869,0,0,1-1.4,2.356l7.912,4.568a4.442,4.442,0,0,0,1-2.6V104.755C252.683,103.457,251.773,102.928,250.641,103.58Z" transform="translate(-178.343 -80.853)" fill="#263238"/>
      </g>
      <g id="Grupo_904409" data-name="Grupo 904409" transform="translate(57.365 165.243)">
        <g id="Grupo_904404" data-name="Grupo 904404" transform="translate(31.779 6.824)">
          <g id="Grupo_904402" data-name="Grupo 904402">
            <g id="Grupo_904401" data-name="Grupo 904401" transform="translate(21.786 25.654)">
              <path id="Trazado_675684" data-name="Trazado 675684" d="M161.04,289.67l-3.408-1.969a.328.328,0,0,1-.16-.141l-.627-1.1,2.024-1.169-.062.178Z" transform="translate(-156.845 -285.296)" fill="#e0e0e0"/>
            </g>
            <path id="Trazado_675685" data-name="Trazado 675685" d="M159.633,283.584l2.359,4.086a.352.352,0,0,0,.637-.061l2.494-7.2Z" transform="translate(-136.132 -257.763)" fill="#ebebeb"/>
            <path id="Trazado_675686" data-name="Trazado 675686" d="M156.064,247.624a3.643,3.643,0,0,0-1.648-2.855l-1.342-.775a3.645,3.645,0,0,0-3.3,0l-26.693,15.4a3.645,3.645,0,0,0-1.648,2.855v13.518a3.645,3.645,0,0,0,1.648,2.855l1.342.775a3.646,3.646,0,0,0,3.3,0l26.847-15.509a2.557,2.557,0,0,0,1.494-2.743Z" transform="translate(-121.435 -243.599)" fill="#ebebeb"/>
            <path id="Trazado_675687" data-name="Trazado 675687" d="M121.435,286.408a3.645,3.645,0,0,0,1.648,2.855l1.342.775a3.684,3.684,0,0,0,3.015.138c-.776.293-1.366-.149-1.366-1.09V275.569a3.367,3.367,0,0,1,.483-1.625l-4.639-2.678a3.366,3.366,0,0,0-.483,1.624Z" transform="translate(-121.435 -254.244)" fill="#e0e0e0"/>
            <path id="Trazado_675688" data-name="Trazado 675688" d="M156.315,247.157c-.193-.7-.831-.923-1.592-.484l-26.7,15.4a3.267,3.267,0,0,0-1.161,1.23l-4.638-2.676a3.326,3.326,0,0,1,1.162-1.23L150.078,244a3.666,3.666,0,0,1,3.3,0l1.346.776A3.636,3.636,0,0,1,156.315,247.157Z" transform="translate(-121.74 -243.601)" fill="#fafafa"/>
          </g>
          <g id="Grupo_904403" data-name="Grupo 904403" transform="translate(8.07 11.073)">
            <path id="Trazado_675689" data-name="Trazado 675689" d="M135.551,272.828l19.067-11.062c.552-.319,1-.173,1,.325a2,2,0,0,1-1,1.478l-19.067,11.062c-.552.319-1,.173-1-.325A2,2,0,0,1,135.551,272.828Z" transform="translate(-134.552 -261.597)" fill="#455a64"/>
            <path id="Trazado_675690" data-name="Trazado 675690" d="M135.551,280.188l19.067-11.058c.552-.319,1-.173,1,.325a2,2,0,0,1-1,1.478l-19.067,11.058c-.552.318-1,.173-1-.325A2,2,0,0,1,135.551,280.188Z" transform="translate(-134.552 -264.431)" fill="#455a64"/>
          </g>
        </g>
        <g id="Grupo_904408" data-name="Grupo 904408">
          <g id="Grupo_904406" data-name="Grupo 904406">
            <g id="Grupo_904405" data-name="Grupo 904405" transform="translate(9.93 37.468)">
              <path id="Trazado_675691" data-name="Trazado 675691" d="M90.118,297.78l-3.408-1.969a.325.325,0,0,1-.16-.142l-.628-1.1,2.024-1.169-.062.178Z" transform="translate(-85.922 -293.406)" fill="#27debf"/>
              <path id="Trazado_675692" data-name="Trazado 675692" d="M90.118,297.78l-3.408-1.969a.325.325,0,0,1-.16-.142l-.628-1.1,2.024-1.169-.062.178Z" transform="translate(-85.922 -293.406)" opacity="0.2"/>
            </g>
            <path id="Trazado_675693" data-name="Trazado 675693" d="M88.71,291.694l2.359,4.086a.352.352,0,0,0,.638-.06l2.493-7.2Z" transform="translate(-77.065 -254.059)" fill="#27debf"/>
            <path id="Trazado_675694" data-name="Trazado 675694" d="M109.408,236.532a3.646,3.646,0,0,0-1.648-2.855l-1.342-.775a3.641,3.641,0,0,0-3.3,0l-31.69,18.3a3.643,3.643,0,0,0-1.648,2.855v15.554a3.643,3.643,0,0,0,1.648,2.855l1.342.775a3.645,3.645,0,0,0,3.3,0l31.843-18.416a2.556,2.556,0,0,0,1.494-2.743Z" transform="translate(-69.782 -232.508)" fill="#27debf"/>
            <path id="Trazado_675695" data-name="Trazado 675695" d="M69.782,282.078a3.643,3.643,0,0,0,1.648,2.855l1.342.775a3.684,3.684,0,0,0,3.015.138c-.776.293-1.367-.15-1.367-1.09V269.2a3.366,3.366,0,0,1,.483-1.624l-4.64-2.679a3.374,3.374,0,0,0-.482,1.625Z" transform="translate(-69.782 -244.97)" opacity="0.2"/>
            <path id="Trazado_675696" data-name="Trazado 675696" d="M109.659,236.066c-.192-.7-.831-.923-1.592-.485L76.374,253.888a3.264,3.264,0,0,0-1.162,1.23l-4.637-2.676a3.325,3.325,0,0,1,1.161-1.23L103.422,232.9a3.665,3.665,0,0,1,3.3,0l1.346.777A3.636,3.636,0,0,1,109.659,236.066Z" transform="translate(-70.087 -232.51)" fill="#fff" opacity="0.4"/>
          </g>
          <g id="Grupo_904407" data-name="Grupo 904407" transform="translate(8.07 9.713)">
            <path id="Trazado_675697" data-name="Trazado 675697" d="M83.9,272.679l17.135-9.925c.552-.319,1-.173,1,.325a2,2,0,0,1-1,1.478L83.9,274.482c-.551.319-1,.174-1-.325A2,2,0,0,1,83.9,272.679Z" transform="translate(-82.899 -253.793)" fill="#fff"/>
            <path id="Trazado_675698" data-name="Trazado 675698" d="M83.9,277.511l24.064-13.965c.552-.319,1-.173,1,.325a2,2,0,0,1-1,1.479L83.9,279.315c-.551.319-1,.174-1-.325A2,2,0,0,1,83.9,277.511Z" transform="translate(-82.899 -254.097)" fill="#fff"/>
            <path id="Trazado_675699" data-name="Trazado 675699" d="M83.9,262.428l24.064-13.965c.552-.318,1-.173,1,.326a2,2,0,0,1-1,1.478L83.9,264.231c-.551.318-1,.173-1-.325A2,2,0,0,1,83.9,262.428Z" transform="translate(-82.899 -248.294)" fill="#fff"/>
          </g>
        </g>
      </g>
      <g id="Grupo_904413" data-name="Grupo 904413" transform="translate(225.425 87.633)">
        <path id="Trazado_675700" data-name="Trazado 675700" d="M402.452,107.912l-2.495-1.44h0a1.118,1.118,0,0,0-1.135.108l-54.284,31.341a3.533,3.533,0,0,0-1.6,2.769v28.05a1.11,1.11,0,0,0,.485,1.042h0l2.489,1.438v-2.351l52.91-30.547a3.534,3.534,0,0,0,1.6-2.769V108.947Z" transform="translate(-342.94 -106.364)" fill="#e0e0e0"/>
        <path id="Trazado_675701" data-name="Trazado 675701" d="M348.231,141.731l52.484-30.3v-2.482l2.031-1.035-2.495-1.44h0a1.118,1.118,0,0,0-1.135.108l-54.284,31.341a3.263,3.263,0,0,0-1.13,1.193Z" transform="translate(-343.233 -106.364)" fill="#fafafa"/>
        <path id="Trazado_675702" data-name="Trazado 675702" d="M348.6,140.266l54.284-31.341c.882-.509,1.6-.1,1.6.923V137.9a3.534,3.534,0,0,1-1.6,2.769L348.6,172.009c-.883.509-1.6.1-1.6-.923V143.035A3.534,3.534,0,0,1,348.6,140.266Z" transform="translate(-344.503 -107.265)" fill="#f5f5f5"/>
        <g id="Grupo_904412" data-name="Grupo 904412" transform="translate(4.998 26.089)">
          <g id="Grupo_904411" data-name="Grupo 904411">
            <path id="Trazado_675703" data-name="Trazado 675703" d="M352.929,158.412l16.264-9.39c1.029-.594,1.865-.113,1.865,1.077v18.78a4.122,4.122,0,0,1-1.865,3.23l-16.264,9.39c-1.03.594-1.865.113-1.865-1.077v-18.78A4.122,4.122,0,0,1,352.929,158.412Z" transform="translate(-351.064 -148.767)" fill="#27debf"/>
            <g id="Grupo_904410" data-name="Grupo 904410" transform="translate(3.979 8.529)">
              <path id="Trazado_675704" data-name="Trazado 675704" d="M365.135,163.057c1.725-1,3.124-.188,3.124,1.8a6.9,6.9,0,0,1-3.124,5.411c-1.725,1-3.124.188-3.124-1.8A6.9,6.9,0,0,1,365.135,163.057Z" transform="translate(-359.255 -162.631)" fill="#fafafa"/>
              <path id="Trazado_675705" data-name="Trazado 675705" d="M369.567,178.285c0-3.273-2.3-4.726-5.131-3.089l-1.773,1.023a11.346,11.346,0,0,0-5.131,8.889v.881l12.035-6.944Z" transform="translate(-357.532 -167.205)" fill="#fafafa"/>
            </g>
          </g>
        </g>
        <path id="Trazado_675706" data-name="Trazado 675706" d="M393.017,135.654l22.327-12.891c.736-.425,1.332-.122,1.333.674a2.855,2.855,0,0,1-1.332,2.212L393.017,138.54c-.735.424-1.332.123-1.332-.674A2.859,2.859,0,0,1,393.017,135.654Z" transform="translate(-361.695 -112.599)" fill="#e0e0e0"/>
        <path id="Trazado_675707" data-name="Trazado 675707" d="M393.017,145.035l22.327-12.89c.736-.425,1.332-.123,1.333.674a2.857,2.857,0,0,1-1.332,2.212l-22.327,12.891c-.735.425-1.332.123-1.332-.674A2.858,2.858,0,0,1,393.017,145.035Z" transform="translate(-361.695 -116.209)" fill="#e0e0e0"/>
        <path id="Trazado_675708" data-name="Trazado 675708" d="M393.017,154.415l22.327-12.891c.736-.425,1.332-.123,1.333.674a2.858,2.858,0,0,1-1.332,2.212L393.017,157.3c-.735.424-1.332.123-1.332-.674A2.859,2.859,0,0,1,393.017,154.415Z" transform="translate(-361.695 -119.818)" fill="#e0e0e0"/>
        <path id="Trazado_675709" data-name="Trazado 675709" d="M393.017,163.8l22.327-12.891c.736-.425,1.332-.122,1.333.674a2.855,2.855,0,0,1-1.332,2.212l-22.327,12.891c-.735.424-1.332.123-1.332-.674A2.858,2.858,0,0,1,393.017,163.8Z" transform="translate(-361.695 -123.427)" fill="#e0e0e0"/>
      </g>
      <g id="Grupo_904414" data-name="Grupo 904414" transform="translate(129.999 81.476)">
        <path id="Trazado_675710" data-name="Trazado 675710" d="M251.987,211.629c0,1.3-.912,2.127-2.042,2.777L190.38,248.795c-1.124.65-2.042.125-2.042-1.181V135.064a4.534,4.534,0,0,1,2.042-3.541L249.945,97.14c1.13-.656,2.042-.125,2.042,1.174Z" transform="translate(-188.03 -96.55)" fill="#27debf" opacity="0.2"/>
        <path id="Trazado_675711" data-name="Trazado 675711" d="M189.276,249.189a1.354,1.354,0,0,1-.686-.179,1.724,1.724,0,0,1-.752-1.589V134.871a4.811,4.811,0,0,1,2.2-3.807L249.6,96.681a1.543,1.543,0,0,1,2.5,1.44V211.436a3.646,3.646,0,0,1-2.2,3.044l-59.564,34.388A2.157,2.157,0,0,1,189.276,249.189Zm61.39-152.216a1.561,1.561,0,0,0-.759.24L190.342,131.6a4.2,4.2,0,0,0-1.889,3.276v112.55a.949.949,0,0,0,1.581.914L249.6,213.947c1.306-.751,1.889-1.525,1.889-2.511V98.121a1.147,1.147,0,0,0-.444-1.054A.751.751,0,0,0,250.667,96.973Z" transform="translate(-187.838 -96.357)" fill="#27debf"/>
      </g>
      <g id="Character" transform="translate(171.232 144.265)">
        <g id="Grupo_904415" data-name="Grupo 904415" transform="translate(44.54 23.583)">
          <path id="Trazado_675712" data-name="Trazado 675712" d="M337.841,259.542c.431-16.024-.853-19.865-5.119-22.8l-1.653,9.285s1.943,10.943,1.734,14.587a50.314,50.314,0,0,1-1.251,9.795,1.955,1.955,0,0,1-.849,1.1,11.221,11.221,0,0,0-2.343,2.234c-.64.671-1.186.837-1.1,1.051a1.054,1.054,0,0,0,1.35.479,7.375,7.375,0,0,0,1.541-.836,9.793,9.793,0,0,1-1.579,2.713c-1.523,1.867-1.59,3.014,1.486,3.042,1.927.017,3.465-1.172,4.915-5.419A34.625,34.625,0,0,0,336.327,270,85.853,85.853,0,0,0,337.841,259.542Z" transform="translate(-327.25 -236.742)" fill="#ffa8a7"/>
        </g>
        <path id="Trazado_675713" data-name="Trazado 675713" d="M330.308,234.716a6.149,6.149,0,0,1,6.592,3.329c1.789,3.2,2.227,8.7,2.43,14.169,0,0-3.552,2.97-7.812,1.51Z" transform="translate(-283.886 -212.35)" fill="#37474f"/>
        <g id="Grupo_904435" data-name="Grupo 904435" transform="translate(23.505)">
          <g id="Grupo_904422" data-name="Grupo 904422" transform="translate(0 49.807)">
            <g id="Grupo_904416" data-name="Grupo 904416" transform="translate(19.614 54.949)">
              <path id="Trazado_675714" data-name="Trazado 675714" d="M334.234,374.423c.324.122.4.738.454,1.963.037.927.236,2.544-.85,2.867a3.4,3.4,0,0,1-3.371-.716c-.869-1.09-1.456-2.05-2.694-3.38a9.394,9.394,0,0,1-2.672-3.849c-.392-1.462-.065-2.1.932-2.522,1.372-.584,3.528,1.326,4.6,1.627C331.562,370.673,333.911,374.3,334.234,374.423Z" transform="translate(-324.94 -368.676)" fill="#263238"/>
            </g>
            <g id="Grupo_904417" data-name="Grupo 904417" transform="translate(24.714 59.017)">
              <path id="Trazado_675715" data-name="Trazado 675715" d="M337.423,375.833v1.5a3.68,3.68,0,0,1-3.8.1c-.066-.145-.394-2.151-.394-2.151Z" transform="translate(-333.229 -375.289)" fill="#ffa8a7"/>
            </g>
            <g id="Grupo_904418" data-name="Grupo 904418" transform="translate(0 69.361)">
              <path id="Trazado_675716" data-name="Trazado 675716" d="M309.791,392.1s.431,1.308.664,2.452a6.633,6.633,0,0,1,.132,3.112c-.319.684-1.56,1.125-3.485,1.11a11.291,11.291,0,0,0-4.52,1.579,11.946,11.946,0,0,1-5.686.9c-1.713-.2-3.487-1.194-3.764-1.9s.091-1.446,4.128-3.165c.037-.016,5.611-1.829,7.565-3.984Z" transform="translate(-293.061 -392.101)" fill="#263238"/>
            </g>
            <g id="Grupo_904419" data-name="Grupo 904419" transform="translate(11.761 67.735)">
              <path id="Trazado_675717" data-name="Trazado 675717" d="M317.146,389.459s-.006,1.116,0,1.754-.748,1.587-2.7,1.518c-1.37-.049-2.326-.417-2.271-1.545v-1.625Z" transform="translate(-312.176 -389.459)" fill="#ffa8a7"/>
            </g>
            <g id="Grupo_904420" data-name="Grupo 904420" transform="translate(6.219)">
              <path id="Trazado_675718" data-name="Trazado 675718" d="M326.836,318.973a40.877,40.877,0,0,0-1.776-7.831s.536-6.756.794-13.162c.278-6.92-.015-15.617.117-17.343,0,0-22.328-4.518-22.726,3.481s.882,28.36,1.146,31.874.871,6.621,1.6,12.317c.716,5.621,2.725,18.895,2.725,18.895a5.272,5.272,0,0,0,4.968-.1s1.571-15.993,1.406-20.048a34.623,34.623,0,0,0-1.538-8.85s.423-6.6.8-12.332.77-8.492.856-10.988l.481-.238s.49,9.9.754,13.411.823,6.883,1.84,13.409c.882,5.662,3.508,17.642,3.508,17.642,2.551,1.379,4.072-.181,4.072-.181S327.524,323.886,326.836,318.973Z" transform="translate(-303.169 -279.365)" fill="#37474f"/>
            </g>
            <g id="Grupo_904421" data-name="Grupo 904421" transform="translate(18.253 10.441)">
              <path id="Trazado_675719" data-name="Trazado 675719" d="M322.729,301.412a46.764,46.764,0,0,0,8.127-5.076,17.925,17.925,0,0,1-5.822,5.119s-1.175,12.295-1.169,12.051l-.679-12.112Z" transform="translate(-322.729 -296.336)" fill="#263238"/>
            </g>
          </g>
          <g id="Grupo_904424" data-name="Grupo 904424" transform="translate(13.433 18.382)">
            <g id="Grupo_904423" data-name="Grupo 904423">
              <path id="Trazado_675720" data-name="Trazado 675720" d="M314.893,229.739l1.321,7.272,6.569-.48-1.379-8.243Z" transform="translate(-314.893 -228.288)" fill="#ffa8a7"/>
            </g>
          </g>
          <g id="Grupo_904426" data-name="Grupo 904426" transform="translate(6.233 22.366)">
            <g id="Grupo_904425" data-name="Grupo 904425">
              <path id="Trazado_675721" data-name="Trazado 675721" d="M325.218,238.492c-.65-1.977-3.159-4.13-5.669-3.663a74.065,74.065,0,0,0-10.992,2.745c-2.3.821-4.392,2.807-4.582,10.366,0,0-.77,17.623-.784,21.03a27.859,27.859,0,0,0,15.09,1.488c6.906-1.509,7.739-4.373,7.739-4.373s.089-12.672-.118-18.146C325.726,243.29,325.664,239.849,325.218,238.492Z" transform="translate(-303.191 -234.764)" fill="#27debf"/>
            </g>
          </g>
          <g id="Grupo_904429" data-name="Grupo 904429" transform="translate(6.884 3.226)">
            <g id="Grupo_904427" data-name="Grupo 904427" transform="translate(0 7.763)">
              <path id="Trazado_675722" data-name="Trazado 675722" d="M305.73,216.271s-1.665,2.655-1.463,2.908,1.477.456,1.477.456Z" transform="translate(-304.25 -216.271)" fill="#f28f8f"/>
            </g>
            <g id="Grupo_904428" data-name="Grupo 904428" transform="translate(1.414)">
              <path id="Trazado_675723" data-name="Trazado 675723" d="M311.241,204.069c-3.474.815-4.447,2.372-4.651,7.923-.213,5.8.42,7.608,1.2,8.371.525.514,3.383.546,4.814.116,1.792-.538,5.833-2.073,7.675-5.03,2.167-3.479,2.652-8.139.206-9.99C317.041,202.853,312.654,203.738,311.241,204.069Z" transform="translate(-306.548 -203.654)" fill="#ffa8a7"/>
            </g>
          </g>
          <g id="Grupo_904434" data-name="Grupo 904434" transform="translate(7.691)">
            <g id="Grupo_904431" data-name="Grupo 904431">
              <g id="Grupo_904430" data-name="Grupo 904430">
                <path id="Trazado_675724" data-name="Trazado 675724" d="M306.248,203.5a7.081,7.081,0,0,0,3.232,2.58c.666.759.3,3.718,1.471,4.187,0,0,.5-2.153,2.315-1.925s2.12,2.54,1.007,3.973-2.193.917-2.193.917.125,3.06,1.52,4.762a9.26,9.26,0,0,0,4.379-.2c1.736-.412,4.154-2.647,5.139-4.98,2.084-4.934,2.138-9.333-1.01-10.58-.388-2.243-2.183-3.212-4.213-3.631-4.371-.9-7.19,1.827-10.555,1.59C305.414,200.05,305.054,201.452,306.248,203.5Z" transform="translate(-305.56 -198.411)" fill="#263238"/>
              </g>
            </g>
            <g id="Grupo_904433" data-name="Grupo 904433" transform="translate(16.436 2.715)">
              <g id="Grupo_904432" data-name="Grupo 904432">
                <path id="Trazado_675725" data-name="Trazado 675725" d="M332.458,204.676l2.06-1.278a1.212,1.212,0,0,0-2.06,1.278Z" transform="translate(-332.275 -202.825)" fill="#263238"/>
              </g>
            </g>
          </g>
        </g>
        <path id="Trazado_675726" data-name="Trazado 675726" d="M262.184,252.4c1.081.481,13.807,9.886,15.791,8.791S290.139,248.2,290.139,248.2a8.217,8.217,0,0,0,0-8.922,8.374,8.374,0,0,0-4.971,3.186c-1.707,2.582-9.085,11.834-9.085,11.834q-2.734-1.368-5.447-2.774c-1.491-.772-2.986-1.543-4.445-2.373a5.49,5.49,0,0,1-1.147-.708c-.72-.712-.6-2.434-.583-3.37a12.981,12.981,0,0,1,.063-1.312c.063-.535.164-1.844-.8-1.429a1.2,1.2,0,0,0-.46.386,2.159,2.159,0,0,0-.345.656c-.181.566-.123,1.186-.29,1.757a.5.5,0,0,1-.119.228.419.419,0,0,1-.3.094c-1.4-.042-2.73-2.008-3.373-3.051a2.854,2.854,0,0,0-1.064-1.213,1.9,1.9,0,0,0-2.184.843,4.444,4.444,0,0,0-.695,3.09A6.14,6.14,0,0,0,256.721,249,18.8,18.8,0,0,0,262.184,252.4Z" transform="translate(-254.856 -214.136)" fill="#ffa8a7"/>
        <path id="Trazado_675727" data-name="Trazado 675727" d="M306.254,238.657a8.179,8.179,0,0,0-6.021,2.855c-2.671,3.026-6.188,7.964-6.188,7.964a7.8,7.8,0,0,0,6.154,5.794s4.816-4.934,6.155-7.651S307.907,240.49,306.254,238.657Z" transform="translate(-269.934 -213.896)" fill="#37474f"/>
      </g>
      <g id="Grupo_904440" data-name="Grupo 904440" transform="translate(207.602 57.681)">
        <g id="Grupo_904436" data-name="Grupo 904436" transform="translate(19.92 26.629)">
          <path id="Trazado_675728" data-name="Trazado 675728" d="M353.8,124.662v-19.4l11.458,7.572A36.637,36.637,0,0,1,353.8,124.662Z" transform="translate(-349.214 -102.618)" fill="#455a64"/>
          <path id="Trazado_675729" data-name="Trazado 675729" d="M350.931,103.609l-4.582-2.646v19.4l4.582,2.646Z" transform="translate(-346.348 -100.963)" fill="#37474f"/>
        </g>
        <g id="Grupo_904437" data-name="Grupo 904437" transform="translate(20.856 11.936)">
          <path id="Trazado_675730" data-name="Trazado 675730" d="M369.627,79.727,352.452,92.077l-4.582-2.646,17.174-12.351Z" transform="translate(-347.87 -77.081)" fill="#27debf"/>
          <path id="Trazado_675731" data-name="Trazado 675731" d="M369.627,79.727,352.452,92.077l-4.582-2.646,17.174-12.351Z" transform="translate(-347.87 -77.081)" opacity="0.5"/>
          <path id="Trazado_675732" data-name="Trazado 675732" d="M372.492,81.381c.466,6.263-1.381,13.187-5.374,20.15L359.956,96.8l-4.638-3.066Z" transform="translate(-350.735 -78.735)" fill="#27debf"/>
          <path id="Trazado_675733" data-name="Trazado 675733" d="M372.492,81.381c.466,6.263-1.381,13.187-5.374,20.15L359.956,96.8l-4.638-3.066Z" transform="translate(-350.735 -78.735)" opacity="0.3"/>
          <path id="Trazado_675734" data-name="Trazado 675734" d="M364.253,107.6l-4.582-2.646-11.8-7.8,4.582,2.646Z" transform="translate(-347.87 -84.804)" fill="#27debf"/>
          <path id="Trazado_675735" data-name="Trazado 675735" d="M364.253,107.6l-4.582-2.646-11.8-7.8,4.582,2.646Z" transform="translate(-347.87 -84.804)" opacity="0.7"/>
        </g>
        <g id="Grupo_904438" data-name="Grupo 904438" transform="translate(15.292)">
          <path id="Trazado_675736" data-name="Trazado 675736" d="M342.1,76.137l-3.274-13.273c.46-.373.9-.709,1.433-1.091,6.044-4.35,11.789-5.134,15.8-2.817l4.533,2.617c1.352,1.645.322,3.418.762,6.164L343.42,80.63l-.179.129Z" transform="translate(-338.827 -57.681)" fill="#27debf"/>
          <path id="Trazado_675737" data-name="Trazado 675737" d="M342.1,76.137l-3.274-13.273c.46-.373.9-.709,1.433-1.091,6.044-4.35,11.789-5.134,15.8-2.817l4.533,2.617c1.352,1.645.322,3.418.762,6.164L343.42,80.63l-.179.129Z" transform="translate(-338.827 -57.681)" fill="#fff" opacity="0.7"/>
          <path id="Trazado_675738" data-name="Trazado 675738" d="M349.549,80.437l-3.274-13.273c.46-.373.9-.709,1.433-1.091,10.123-7.286,19.4-4.566,21.09,5.964L350.868,84.93l-.179.129Z" transform="translate(-341.692 -59.335)" fill="#27debf"/>
          <path id="Trazado_675739" data-name="Trazado 675739" d="M349.549,80.437l-3.274-13.273c.46-.373.9-.709,1.433-1.091,10.123-7.286,19.4-4.566,21.09,5.964L350.868,84.93l-.179.129Z" transform="translate(-341.692 -59.335)" fill="#fff" opacity="0.5"/>
          <path id="Trazado_675740" data-name="Trazado 675740" d="M338.827,66.105l4.582,2.646,4.414,17.895L343.241,84Z" transform="translate(-338.827 -60.922)" fill="#27debf"/>
          <path id="Trazado_675741" data-name="Trazado 675741" d="M338.827,66.105l4.582,2.646,4.414,17.895L343.241,84Z" transform="translate(-338.827 -60.922)" opacity="0.1"/>
        </g>
        <g id="Grupo_904439" data-name="Grupo 904439" transform="translate(0 6.653)">
          <path id="Trazado_675742" data-name="Trazado 675742" d="M332.143,108.878c-2.961,1.562-5.509,3.722-7.963,3.63l-4.582-2.646c-2.4-1.368-4.169-3.886-5.053-7.467-1.23-4.987-.465-11.338,2.154-17.883A44.534,44.534,0,0,1,327.568,68.5l4.582,2.646-1.7,9.042,1.692,6.858Z" transform="translate(-313.972 -68.495)" fill="#27debf"/>
          <path id="Trazado_675743" data-name="Trazado 675743" d="M332.143,108.878c-2.961,1.562-5.509,3.722-7.963,3.63l-4.582-2.646c-2.4-1.368-4.169-3.886-5.053-7.467-1.23-4.987-.465-11.338,2.154-17.883A44.534,44.534,0,0,1,327.568,68.5l4.582,2.646-1.7,9.042,1.692,6.858Z" transform="translate(-313.972 -68.495)" opacity="0.2"/>
          <path id="Trazado_675744" data-name="Trazado 675744" d="M339.591,113.179c-8.505,4.487-15.516,1.954-17.6-6.483-1.23-4.987-.465-11.338,2.154-17.883A44.526,44.526,0,0,1,335.016,72.8L337.9,84.483l1.692,6.858Z" transform="translate(-316.837 -70.15)" fill="#27debf"/>
        </g>
      </g>
      <g id="Grupo_904442" data-name="Grupo 904442" transform="translate(240.642 133.541)">
        <g id="Grupo_904441" data-name="Grupo 904441">
          <path id="Trazado_675745" data-name="Trazado 675745" d="M367.673,206.038a1.758,1.758,0,0,1,.795-1.377l40.685-23.49a1.758,1.758,0,0,1,1.59,0l.9.517a1.758,1.758,0,0,1,.8,1.378v31.186a1.765,1.765,0,0,1-.795,1.377l-40.685,23.49a1.767,1.767,0,0,1-1.591,0l-.9-.517a1.765,1.765,0,0,1-.8-1.378Z" transform="translate(-367.673 -180.981)" fill="#27debf"/>
          <path id="Trazado_675746" data-name="Trazado 675746" d="M367.673,206.038a1.758,1.758,0,0,1,.795-1.377l40.685-23.49a1.758,1.758,0,0,1,1.59,0l.9.517a1.758,1.758,0,0,1,.8,1.378v31.186a1.765,1.765,0,0,1-.795,1.377l-40.685,23.49a1.767,1.767,0,0,1-1.591,0l-.9-.517a1.765,1.765,0,0,1-.8-1.378Z" transform="translate(-367.673 -180.981)" fill="#fff" opacity="0.4"/>
          <path id="Trazado_675747" data-name="Trazado 675747" d="M371.4,222.453l-3.5-2.019a1.624,1.624,0,0,0-.233.783V252.4a1.765,1.765,0,0,0,.8,1.378l.9.517a1.767,1.767,0,0,0,1.591,0l.447-.258Z" transform="translate(-367.673 -196.161)" fill="#27debf"/>
          <path id="Trazado_675748" data-name="Trazado 675748" d="M371.4,222.453l-3.5-2.019a1.624,1.624,0,0,0-.233.783V252.4a1.765,1.765,0,0,0,.8,1.378l.9.517a1.767,1.767,0,0,0,1.591,0l.447-.258Z" transform="translate(-367.673 -196.161)" opacity="0.3"/>
          <path id="Trazado_675749" data-name="Trazado 675749" d="M413.992,184.1v31.185a1.629,1.629,0,0,1-.248.805,1.707,1.707,0,0,1-.466.521l-.03.018c-.018.012-.034.024-.052.033l-40.683,23.487-.006,0a.566.566,0,0,1-.542.061.549.549,0,0,1-.248-.523V208.5a.691.691,0,0,1,.894-.7l17.108,4.068,2.241.533a1.477,1.477,0,0,0,1.43-.536l2.6-3.615,17.472-24.326C413.75,183.514,413.992,183.59,413.992,184.1Z" transform="translate(-369.229 -182.012)" fill="#27debf"/>
          <path id="Trazado_675750" data-name="Trazado 675750" d="M428.371,232.038a.6.6,0,0,0,.052-.033l.03-.018a1.707,1.707,0,0,0,.466-.521,1.635,1.635,0,0,0,.247-.792l-18.007-7.048,12.059,11.387Z" transform="translate(-384.404 -197.389)" fill="#27debf"/>
          <path id="Trazado_675751" data-name="Trazado 675751" d="M428.371,232.038a.6.6,0,0,0,.052-.033l.03-.018a1.707,1.707,0,0,0,.466-.521,1.635,1.635,0,0,0,.247-.792l-18.007-7.048,12.059,11.387Z" transform="translate(-384.404 -197.389)" opacity="0.2"/>
          <path id="Trazado_675752" data-name="Trazado 675752" d="M371.716,257.329a.549.549,0,0,0,.248.523.566.566,0,0,0,.542-.061l.006,0,14.007-8.086,3.2-20.194-18,27.3Z" transform="translate(-369.229 -199.651)" fill="#27debf"/>
          <path id="Trazado_675753" data-name="Trazado 675753" d="M371.716,257.329a.549.549,0,0,0,.248.523.566.566,0,0,0,.542-.061l.006,0,14.007-8.086,3.2-20.194-18,27.3Z" transform="translate(-369.229 -199.651)" opacity="0.2"/>
          <path id="Trazado_675754" data-name="Trazado 675754" d="M413.9,231.106a1.709,1.709,0,0,1-.466.52l-.03.018-40.736,23.52-.006,0a.566.566,0,0,1-.542.061l19.482-31.1a3.06,3.06,0,0,1,3.83-1.175Z" transform="translate(-369.384 -197.029)" fill="#27debf"/>
        </g>
        <path id="Trazado_675755" data-name="Trazado 675755" d="M371.716,207.315l18.712,8.261a3.06,3.06,0,0,0,3.832-1.178l19.649-31.442Z" transform="translate(-369.229 -181.74)" fill="#27debf"/>
        <path id="Trazado_675756" data-name="Trazado 675756" d="M371.716,207.315l18.712,8.261a3.06,3.06,0,0,0,3.832-1.178l19.649-31.442Z" transform="translate(-369.229 -181.74)" opacity="0.3"/>
        <path id="Trazado_675757" data-name="Trazado 675757" d="M371.716,207.315l18.843,7.039a3.06,3.06,0,0,0,3.634-1.194l19.715-30.2Z" transform="translate(-369.229 -181.74)" fill="#27debf"/>
      </g>
    </g>
  </g>
</svg>
