<svg xmlns="http://www.w3.org/2000/svg" width="342.041" height="318.102" viewBox="0 0 342.041 318.102">
  <g id="Grupo_904444" data-name="Grupo 904444" transform="translate(-1020 -395.398)">
    <g id="Grupo_904287" data-name="Grupo 904287" transform="translate(1007.533 354.806)">
      <ellipse id="Floor" cx="171.02" cy="98.739" rx="171.02" ry="98.739" transform="translate(12.467 161.217)" fill="#f0f0f0"/>
      <ellipse id="Shadow" cx="25.379" cy="14.653" rx="25.379" ry="14.653" transform="translate(256.138 291.63)" fill="#e0e0e0"/>
      <path id="Shadow-2" data-name="Shadow" d="M54.817,343.675,26.431,327.286a1.106,1.106,0,0,1,0-2.1l156.45-90.327a4.013,4.013,0,0,1,3.63,0L214.9,251.252a1.106,1.106,0,0,1,0,2.1L58.447,343.675A4.015,4.015,0,0,1,54.817,343.675Z" transform="translate(-3.661 -53.715)" fill="#e0e0e0"/>
      <g id="PC" transform="translate(42.296 40.592)">
        <g id="Monitor">
          <g id="Grupo_904195" data-name="Grupo 904195" transform="translate(64.014 154.675)">
            <g id="Grupo_904193" data-name="Grupo 904193" transform="translate(0.004)">
              <path id="Trazado_674854" data-name="Trazado 674854" d="M185.593,323.588l22.858-13.217c2.355-1.36,3.533-3.142,3.534-4.925s.009-3.18.009-3.18l-27.506-15.584a5.028,5.028,0,0,1-2.275-3.94V254.561L142.29,277.63v28.18a5.029,5.029,0,0,0,2.275,3.941l23.965,13.836C173.241,326.309,180.882,326.308,185.593,323.588Z" transform="translate(-142.289 -254.561)" fill="#27debf"/>
            </g>
            <g id="Grupo_904194" data-name="Grupo 904194" transform="translate(0.004)" opacity="0.5">
              <path id="Trazado_674855" data-name="Trazado 674855" d="M185.593,323.588l22.858-13.217c2.355-1.36,3.533-3.142,3.534-4.925s.009-3.18.009-3.18l-27.506-15.584a5.028,5.028,0,0,1-2.275-3.94V254.561L142.29,277.63v28.18a5.029,5.029,0,0,0,2.275,3.941l23.965,13.836C173.241,326.309,180.882,326.308,185.593,323.588Z" transform="translate(-142.289 -254.561)"/>
            </g>
            <path id="Trazado_674856" data-name="Trazado 674856" d="M151.874,317.963v3.166l-7.317-4.216a5.034,5.034,0,0,1-2.273-3.941V284.794l7.606-4.388c.158,1.931.328,3.928.486,5.872l-5.333,3.087v22.016a5,5,0,0,0,2.273,3.941Z" transform="translate(-142.284 -261.723)" fill="#27debf"/>
            <path id="Trazado_674857" data-name="Trazado 674857" d="M151.874,317.963v3.166l-7.317-4.216a5.034,5.034,0,0,1-2.273-3.941V284.794l7.606-4.388c.158,1.931.328,3.928.486,5.872l-5.333,3.087v22.016a5,5,0,0,0,2.273,3.941Z" transform="translate(-142.284 -261.723)" opacity="0.7"/>
            <path id="Trazado_674858" data-name="Trazado 674858" d="M146.1,305.978a5.031,5.031,0,0,0,2.275,3.941l21.208,12.244c4.712,2.72,12.353,2.721,17.065,0l22.868-13.214c4.713-2.72,4.714-7.13,0-9.851L188.3,286.849a5.031,5.031,0,0,1-2.276-3.941V260.889L146.1,283.958Z" transform="translate(-143.341 -256.314)" fill="#27debf"/>
            <path id="Trazado_674859" data-name="Trazado 674859" d="M146.1,305.978a5.031,5.031,0,0,0,2.275,3.941l21.208,12.244c4.712,2.72,12.353,2.721,17.065,0l22.868-13.214c4.713-2.72,4.714-7.13,0-9.851L188.3,286.849a5.031,5.031,0,0,1-2.276-3.941V260.889L146.1,283.958Z" transform="translate(-143.341 -256.314)" opacity="0.3"/>
            <path id="Trazado_674860" data-name="Trazado 674860" d="M192.932,289.527v0l-4.634-2.675a5.029,5.029,0,0,1-2.276-3.941V260.889L146.1,283.958v22.02a5.031,5.031,0,0,0,2.275,3.941l4.554,2.629Z" transform="translate(-143.341 -256.314)" fill="#27debf" opacity="0.7"/>
            <path id="Trazado_674861" data-name="Trazado 674861" d="M192.932,289.527v0l-4.634-2.675a5.029,5.029,0,0,1-2.276-3.941V260.889L146.1,283.958v22.02a5.031,5.031,0,0,0,2.275,3.941l4.554,2.629Z" transform="translate(-143.341 -256.314)" opacity="0.6"/>
            <path id="Trazado_674862" data-name="Trazado 674862" d="M225.47,320.558v3.179c0,1.787-1.183,3.56-3.534,4.926l-22.86,13.208a17.107,17.107,0,0,1-8.145,2.023v-3.165a17.117,17.117,0,0,0,8.145-2.023l22.86-13.222C224.287,324.131,225.47,322.344,225.47,320.558Z" transform="translate(-155.765 -272.85)" fill="#27debf"/>
            <path id="Trazado_674863" data-name="Trazado 674863" d="M225.47,320.558v3.179c0,1.787-1.183,3.56-3.534,4.926l-22.86,13.208a17.107,17.107,0,0,1-8.145,2.023v-3.165a17.117,17.117,0,0,0,8.145-2.023l22.86-13.222C224.287,324.131,225.47,322.344,225.47,320.558Z" transform="translate(-155.765 -272.85)" opacity="0.2"/>
          </g>
          <path id="Trazado_674864" data-name="Trazado 674864" d="M56.4,275.332a6.1,6.1,0,0,0,5.513-.1l154.4-89.138a6.285,6.285,0,0,0,2.843-4.926V46.026a5.343,5.343,0,0,0-8.179-4.723L56.579,130.441a6.288,6.288,0,0,0-2.845,4.926V270.507A6.1,6.1,0,0,0,56.4,275.332Z" transform="translate(-53.732 -40.592)" fill="#27debf"/>
          <path id="Trazado_674865" data-name="Trazado 674865" d="M56.4,275.332a6.1,6.1,0,0,0,5.513-.1l154.4-89.138a6.285,6.285,0,0,0,2.843-4.926V46.026a5.343,5.343,0,0,0-8.179-4.723L56.579,130.441a6.288,6.288,0,0,0-2.845,4.926V270.507A6.1,6.1,0,0,0,56.4,275.332Z" transform="translate(-53.732 -40.592)" opacity="0.3"/>
          <path id="Trazado_674866" data-name="Trazado 674866" d="M63.96,276.53l154.394-89.138a6.286,6.286,0,0,0,2.845-4.926V47.326c0-1.814-1.274-2.549-2.845-1.642L63.961,134.822a6.287,6.287,0,0,0-2.844,4.926l0,135.14C61.115,276.7,62.389,277.436,63.96,276.53Z" transform="translate(-55.777 -41.895)" fill="#27debf"/>
          <path id="Trazado_674867" data-name="Trazado 674867" d="M63.96,276.53l154.394-89.138a6.286,6.286,0,0,0,2.845-4.926V47.326c0-1.814-1.274-2.549-2.845-1.642L63.961,134.822a6.287,6.287,0,0,0-2.844,4.926l0,135.14C61.115,276.7,62.389,277.436,63.96,276.53Z" transform="translate(-55.777 -41.895)" fill="#27debf"/>
          <path id="Trazado_674868" data-name="Trazado 674868" d="M63.96,276.53l154.394-89.138a6.286,6.286,0,0,0,2.845-4.926V47.326c0-1.814-1.274-2.549-2.845-1.642L63.961,134.822a6.287,6.287,0,0,0-2.844,4.926l0,135.14C61.115,276.7,62.389,277.436,63.96,276.53Z" transform="translate(-55.777 -41.895)" opacity="0.5"/>
          <path id="Trazado_674869" data-name="Trazado 674869" d="M61.495,357.75a6.14,6.14,0,0,1-5.1-.106,6.107,6.107,0,0,1-2.667-4.834v-15.2l5.333,3.087v15.2C59.064,357.553,60.116,358.3,61.495,357.75Z" transform="translate(-53.731 -122.901)" fill="#27debf"/>
          <path id="Trazado_674870" data-name="Trazado 674870" d="M61.495,357.75a6.14,6.14,0,0,1-5.1-.106,6.107,6.107,0,0,1-2.667-4.834v-15.2l5.333,3.087v15.2C59.064,357.553,60.116,358.3,61.495,357.75Z" transform="translate(-53.731 -122.901)" opacity="0.7"/>
          <path id="Trazado_674871" data-name="Trazado 674871" d="M61.116,306.447v15.2c0,1.814,1.274,2.549,2.845,1.642l154.394-89.138a6.286,6.286,0,0,0,2.845-4.926v-15.2Z" transform="translate(-55.777 -88.653)" fill="#27debf"/>
          <path id="Trazado_674872" data-name="Trazado 674872" d="M61.116,306.447v15.2c0,1.814,1.274,2.549,2.845,1.642l154.394-89.138a6.286,6.286,0,0,0,2.845-4.926v-15.2Z" transform="translate(-55.777 -88.653)" opacity="0.5"/>
          <path id="Trazado_674873" data-name="Trazado 674873" d="M68.495,251.83V144.871a3.772,3.772,0,0,1,1.707-2.956L216.2,57.626c.942-.544,1.706-.1,1.706.985l.005,106.961a3.774,3.774,0,0,1-1.706,2.956l-146,84.288C69.259,253.359,68.495,252.918,68.495,251.83Z" transform="translate(-57.822 -45.248)" fill="#fafafa"/>
          <path id="Trazado_674874" data-name="Trazado 674874" d="M170.815,286.335a5.9,5.9,0,0,0-2.669,4.622c0,1.7,1.195,2.391,2.669,1.54a5.9,5.9,0,0,0,2.669-4.622C173.483,286.174,172.288,285.484,170.815,286.335Z" transform="translate(-85.437 -108.591)" fill="#27debf"/>
          <path id="Trazado_674875" data-name="Trazado 674875" d="M170.815,286.335a5.9,5.9,0,0,0-2.669,4.622c0,1.7,1.195,2.391,2.669,1.54a5.9,5.9,0,0,0,2.669-4.622C173.483,286.174,172.288,285.484,170.815,286.335Z" transform="translate(-85.437 -108.591)" fill="#fff" opacity="0.5"/>
          <path id="Trazado_674876" data-name="Trazado 674876" d="M59.905,170.886a6.043,6.043,0,0,0-.841,2.811V293.644l-5.333-3.087V170.623a5.884,5.884,0,0,1,.841-2.811Z" transform="translate(-53.731 -75.847)" fill="#27debf"/>
          <path id="Trazado_674877" data-name="Trazado 674877" d="M59.905,170.886a6.043,6.043,0,0,0-.841,2.811V293.644l-5.333-3.087V170.623a5.884,5.884,0,0,1,.841-2.811Z" transform="translate(-53.731 -75.847)" opacity="0.7"/>
        </g>
      </g>
      <g id="Keyboard" transform="translate(102.966 233.629)">
        <path id="Shadow-3" data-name="Shadow" d="M138.552,381.6l38.578,22.336a4.775,4.775,0,0,0,4.323,0l113.971-65.711a1.319,1.319,0,0,0,0-2.5l-38.578-22.337a4.775,4.775,0,0,0-4.323,0L138.554,379.1A1.319,1.319,0,0,0,138.552,381.6Z" transform="translate(-137.658 -309.082)" fill="#e0e0e0"/>
        <g id="Keyboard-2" data-name="Keyboard" transform="translate(2.486)">
          <g id="Grupo_904196" data-name="Grupo 904196">
            <path id="Trazado_674878" data-name="Trazado 674878" d="M294.04,330.314a1.517,1.517,0,0,0-.895-1.248L256.9,308.145a4.775,4.775,0,0,0-4.322,0L141.991,372.1a1.518,1.518,0,0,0-.894,1.247c0,.452,0,3.351,0,3.8a1.518,1.518,0,0,0,.9,1.248l36.224,20.92a4.791,4.791,0,0,0,4.326,0l110.6-63.852a1.522,1.522,0,0,0,.895-1.243C294.043,333.764,294.04,330.766,294.04,330.314Z" transform="translate(-141.097 -307.629)" fill="#27debf"/>
            <path id="Trazado_674879" data-name="Trazado 674879" d="M294.04,330.314a1.517,1.517,0,0,0-.895-1.248L256.9,308.145a4.775,4.775,0,0,0-4.322,0L141.991,372.1a1.518,1.518,0,0,0-.894,1.247c0,.452,0,3.351,0,3.8a1.518,1.518,0,0,0,.9,1.248l36.224,20.92a4.791,4.791,0,0,0,4.326,0l110.6-63.852a1.522,1.522,0,0,0,.895-1.243C294.043,333.764,294.04,330.766,294.04,330.314Z" transform="translate(-141.097 -307.629)" opacity="0.5"/>
            <path id="Trazado_674880" data-name="Trazado 674880" d="M178.219,395.417l-36.224-20.824a1.315,1.315,0,0,1,0-2.493l110.588-63.954a4.777,4.777,0,0,1,4.323,0l36.243,20.921a1.318,1.318,0,0,1,0,2.5l-110.6,63.852A4.79,4.79,0,0,1,178.219,395.417Z" transform="translate(-141.097 -307.629)" fill="#27debf"/>
            <path id="Trazado_674881" data-name="Trazado 674881" d="M178.219,395.417l-36.224-20.824a1.315,1.315,0,0,1,0-2.493l110.588-63.954a4.777,4.777,0,0,1,4.323,0l36.243,20.921a1.318,1.318,0,0,1,0,2.5l-110.6,63.852A4.79,4.79,0,0,1,178.219,395.417Z" transform="translate(-141.097 -307.629)" opacity="0.3"/>
            <path id="Trazado_674882" data-name="Trazado 674882" d="M180.244,421.122v3.886a4.461,4.461,0,0,1-2.03-.5L142,403.591a1.529,1.529,0,0,1-.9-1.248v-3.81a1.529,1.529,0,0,0,.9,1.248l36.212,20.836A4.473,4.473,0,0,0,180.244,421.122Z" transform="translate(-141.099 -332.82)" fill="#27debf"/>
            <path id="Trazado_674883" data-name="Trazado 674883" d="M180.244,421.122v3.886a4.461,4.461,0,0,1-2.03-.5L142,403.591a1.529,1.529,0,0,1-.9-1.248v-3.81a1.529,1.529,0,0,0,.9,1.248l36.212,20.836A4.473,4.473,0,0,0,180.244,421.122Z" transform="translate(-141.099 -332.82)" opacity="0.7"/>
          </g>
          <g id="Grupo_904197" data-name="Grupo 904197" transform="translate(5.636 3.895)">
            <path id="Trazado_674884" data-name="Trazado 674884" d="M259.239,344.773l4.129,2.383a.553.553,0,0,0,.263.064l3.807-2.119L263,342.6Z" transform="translate(-179.472 -321.216)" fill="#37474f"/>
            <path id="Trazado_674885" data-name="Trazado 674885" d="M266.114,340.805l4.146,2.394a.557.557,0,0,0,.245.052l.153-.009,3.653-2.109-4.441-2.5Z" transform="translate(-181.378 -320.116)" fill="#37474f"/>
            <path id="Trazado_674886" data-name="Trazado 674886" d="M247.668,350.936l4.144,2.393a.569.569,0,0,0,.243.053l6.163-3.477-4.441-2.5Z" transform="translate(-176.266 -322.547)" fill="#37474f"/>
            <path id="Trazado_674887" data-name="Trazado 674887" d="M240.8,355.425l4.14,2.391a.558.558,0,0,0,.247.055l3.81-2.119-4.441-2.5Z" transform="translate(-174.362 -324.168)" fill="#37474f"/>
            <path id="Trazado_674888" data-name="Trazado 674888" d="M207.719,406.41l3.807-2.119-4.44-2.5-3.758,2.168,4.146,2.393A.552.552,0,0,0,207.719,406.41Z" transform="translate(-163.979 -337.619)" fill="#37474f"/>
            <path id="Trazado_674889" data-name="Trazado 674889" d="M233.923,359.393l4.122,2.379a.531.531,0,0,0,.267.067l3.808-2.119-4.441-2.5Z" transform="translate(-172.457 -325.267)" fill="#37474f"/>
            <path id="Trazado_674890" data-name="Trazado 674890" d="M270.767,347.089l-3.758,2.169,4.136,2.389a.554.554,0,0,0,.255.058l3.808-2.121Z" transform="translate(-181.626 -322.459)" fill="#37474f"/>
            <path id="Trazado_674891" data-name="Trazado 674891" d="M251.315,372.271l3.809-2.119-4.441-2.5-3.759,2.167,4.139,2.391A.55.55,0,0,0,251.315,372.271Z" transform="translate(-176.059 -328.158)" fill="#37474f"/>
            <path id="Trazado_674892" data-name="Trazado 674892" d="M278.274,347.737l3.809-2.119-4.444-2.5-3.753,2.169,4.144,2.394A.562.562,0,0,0,278.274,347.737Z" transform="translate(-183.531 -321.359)" fill="#37474f"/>
            <path id="Trazado_674893" data-name="Trazado 674893" d="M244.443,376.239l3.809-2.119-4.443-2.5-3.757,2.168,4.123,2.381A.536.536,0,0,0,244.443,376.239Z" transform="translate(-174.155 -329.258)" fill="#37474f"/>
            <path id="Trazado_674894" data-name="Trazado 674894" d="M237.571,380.207l3.807-2.12-4.441-2.5-3.759,2.167,4.147,2.394A.565.565,0,0,0,237.571,380.207Z" transform="translate(-172.25 -330.357)" fill="#37474f"/>
            <path id="Trazado_674895" data-name="Trazado 674895" d="M264.31,362.166l7.989-4.535-10.051-5.739-4.284,2.471,5.254,3.032a.262.262,0,0,1,.15.217.233.233,0,0,1-.13.192l-3.316,1.914,4.118,2.377A.518.518,0,0,0,264.31,362.166Z" transform="translate(-179.119 -323.79)" fill="#37474f"/>
            <path id="Trazado_674896" data-name="Trazado 674896" d="M220.176,367.327l4.141,2.394a.559.559,0,0,0,.248.055l3.81-2.119-4.441-2.5Z" transform="translate(-168.647 -327.467)" fill="#37474f"/>
            <path id="Trazado_674897" data-name="Trazado 674897" d="M258.186,368.3,262,366.185l-4.442-2.5-3.758,2.168,4.117,2.377A.534.534,0,0,0,258.186,368.3Z" transform="translate(-177.964 -327.058)" fill="#37474f"/>
            <path id="Trazado_674898" data-name="Trazado 674898" d="M179.885,404.54l3.808-2.119-4.441-2.5-3.758,2.17,4.124,2.379A.541.541,0,0,0,179.885,404.54Z" transform="translate(-156.265 -337.1)" fill="#37474f"/>
            <path id="Trazado_674899" data-name="Trazado 674899" d="M165.195,399.071l4.156,2.4a.58.58,0,0,0,.235.048l.154-.01,3.653-2.109-4.441-2.5Z" transform="translate(-153.411 -336.263)" fill="#37474f"/>
            <path id="Trazado_674900" data-name="Trazado 674900" d="M189.462,407.981l.154-.01,3.653-2.109-4.441-2.495-3.756,2.168,4.146,2.393A.555.555,0,0,0,189.462,407.981Z" transform="translate(-158.919 -338.054)" fill="#37474f"/>
            <path id="Trazado_674901" data-name="Trazado 674901" d="M193.974,414.345l3.808-2.119-4.443-2.5-3.756,2.169,4.123,2.379A.544.544,0,0,0,193.974,414.345Z" transform="translate(-160.17 -339.817)" fill="#37474f"/>
            <path id="Trazado_674902" data-name="Trazado 674902" d="M172.068,395.1l4.146,2.394a.573.573,0,0,0,.245.053l3.807-2.12-4.441-2.5Z" transform="translate(-155.316 -335.164)" fill="#37474f"/>
            <path id="Trazado_674903" data-name="Trazado 674903" d="M200.848,410.38l3.8-2.121-4.439-2.495-3.758,2.167,4.142,2.391A.562.562,0,0,0,200.848,410.38Z" transform="translate(-162.074 -338.719)" fill="#37474f"/>
            <path id="Trazado_674904" data-name="Trazado 674904" d="M192.685,383.2l4.142,2.391a.545.545,0,0,0,.249.056l3.808-2.117-4.441-2.5Z" transform="translate(-161.029 -331.865)" fill="#37474f"/>
            <path id="Trazado_674905" data-name="Trazado 674905" d="M199.558,379.231l4.133,2.386a.546.546,0,0,0,.26.062l3.807-2.119-4.441-2.5Z" transform="translate(-162.934 -330.765)" fill="#37474f"/>
            <path id="Trazado_674906" data-name="Trazado 674906" d="M206.431,375.264l4.123,2.38a.53.53,0,0,0,.267.067l3.808-2.119-4.443-2.5Z" transform="translate(-164.838 -329.666)" fill="#37474f"/>
            <path id="Trazado_674907" data-name="Trazado 674907" d="M185.813,387.167l4.123,2.381a.528.528,0,0,0,.266.067l3.81-2.119-4.441-2.5Z" transform="translate(-159.125 -332.964)" fill="#37474f"/>
            <path id="Trazado_674908" data-name="Trazado 674908" d="M213.306,371.3l4.143,2.392a.569.569,0,0,0,.246.054l3.809-2.119-4.444-2.5Z" transform="translate(-166.744 -328.566)" fill="#37474f"/>
            <path id="Trazado_674909" data-name="Trazado 674909" d="M178.94,391.135l4.142,2.391a.562.562,0,0,0,.251.057l3.807-2.119-4.444-2.5Z" transform="translate(-157.22 -334.064)" fill="#37474f"/>
            <path id="Trazado_674910" data-name="Trazado 674910" d="M227.048,363.359l4.151,2.4a.569.569,0,0,0,.238.05l3.81-2.119-4.441-2.5Z" transform="translate(-170.552 -326.367)" fill="#37474f"/>
            <path id="Trazado_674911" data-name="Trazado 674911" d="M244.219,362.415l4.129,2.383a.541.541,0,0,0,.264.064l.153-.01,3.652-2.109-4.439-2.495Z" transform="translate(-175.31 -326.105)" fill="#37474f"/>
            <path id="Trazado_674912" data-name="Trazado 674912" d="M281.308,332.035l4.127,2.383a.55.55,0,0,0,.262.064l3.808-2.12-4.441-2.5Z" transform="translate(-185.588 -317.686)" fill="#37474f"/>
            <path id="Trazado_674913" data-name="Trazado 674913" d="M288.18,328.068l4.131,2.382a.52.52,0,0,0,.258.064l3.81-2.12-4.442-2.5Z" transform="translate(-187.492 -316.587)" fill="#37474f"/>
            <path id="Trazado_674914" data-name="Trazado 674914" d="M237.349,366.382l4.132,2.385a.553.553,0,0,0,.259.062l3.807-2.119-4.442-2.5Z" transform="translate(-173.406 -327.204)" fill="#37474f"/>
            <path id="Trazado_674915" data-name="Trazado 674915" d="M295.053,324.1l4.127,2.383a.542.542,0,0,0,.262.064l3.809-2.118-4.441-2.5Z" transform="translate(-189.397 -315.487)" fill="#37474f"/>
            <path id="Trazado_674916" data-name="Trazado 674916" d="M255.484,360.894l.154-.01,3.653-2.108-4.441-2.5-3.759,2.167,4.13,2.383A.545.545,0,0,0,255.484,360.894Z" transform="translate(-177.214 -325.006)" fill="#37474f"/>
            <path id="Trazado_674917" data-name="Trazado 674917" d="M289.071,336.519l4.121,2.377a.522.522,0,0,0,.272.072l3.807-2.119-4.44-2.5Z" transform="translate(-187.739 -318.929)" fill="#37474f"/>
            <path id="Trazado_674918" data-name="Trazado 674918" d="M302.816,328.583l4.122,2.377a.528.528,0,0,0,.27.072l3.808-2.119-4.441-2.5Z" transform="translate(-191.548 -316.73)" fill="#37474f"/>
            <path id="Trazado_674919" data-name="Trazado 674919" d="M300.337,335l3.807-2.12-4.441-2.5-3.76,2.168,4.144,2.39A.536.536,0,0,0,300.337,335Z" transform="translate(-189.644 -317.829)" fill="#37474f"/>
            <path id="Trazado_674920" data-name="Trazado 674920" d="M319.462,330.255a.585.585,0,0,0,.235.048l.154-.009,3.652-2.109-10.053-5.739-3.76,2.169Z" transform="translate(-193.453 -315.63)" fill="#37474f"/>
            <path id="Trazado_674921" data-name="Trazado 674921" d="M230.475,370.35l4.128,2.383a.534.534,0,0,0,.262.064l.154-.009,3.655-2.109-4.441-2.5Z" transform="translate(-171.501 -328.304)" fill="#37474f"/>
            <path id="Trazado_674922" data-name="Trazado 674922" d="M308.1,339.483l.155-.01,3.652-2.109-4.441-2.495-3.759,2.167,4.13,2.383A.542.542,0,0,0,308.1,339.483Z" transform="translate(-191.796 -319.072)" fill="#37474f"/>
            <path id="Trazado_674923" data-name="Trazado 674923" d="M314.977,335.515l3.809-2.119-4.444-2.5-3.758,2.168,4.117,2.375A.531.531,0,0,0,314.977,335.515Z" transform="translate(-193.701 -317.973)" fill="#37474f"/>
            <path id="Trazado_674924" data-name="Trazado 674924" d="M196.111,390.19l4.124,2.38a.534.534,0,0,0,.269.067l3.807-2.119-4.441-2.5Z" transform="translate(-161.979 -333.802)" fill="#37474f"/>
            <path id="Trazado_674925" data-name="Trazado 674925" d="M182.369,398.126l4.122,2.379a.53.53,0,0,0,.267.067l.154-.009,3.654-2.109-4.441-2.5Z" transform="translate(-158.17 -336.001)" fill="#37474f"/>
            <path id="Trazado_674926" data-name="Trazado 674926" d="M203.209,400.047l3.807-2.119-4.444-2.5-3.757,2.168,4.15,2.394A.553.553,0,0,0,203.209,400.047Z" transform="translate(-162.728 -335.855)" fill="#37474f"/>
            <path id="Trazado_674927" data-name="Trazado 674927" d="M196.335,404.013l3.808-2.117-4.443-2.5-3.757,2.168,4.146,2.393A.563.563,0,0,0,196.335,404.013Z" transform="translate(-160.824 -336.955)" fill="#37474f"/>
            <path id="Trazado_674928" data-name="Trazado 674928" d="M210.079,396.077l.154-.009,3.654-2.108-4.441-2.5-3.759,2.168,4.124,2.379A.541.541,0,0,0,210.079,396.077Z" transform="translate(-164.632 -334.756)" fill="#37474f"/>
            <path id="Trazado_674929" data-name="Trazado 674929" d="M223.6,374.319l4.134,2.385a.537.537,0,0,0,.257.062l.154-.01,3.652-2.109-4.439-2.5Z" transform="translate(-169.596 -329.404)" fill="#37474f"/>
            <path id="Trazado_674930" data-name="Trazado 674930" d="M223.825,388.143l3.808-2.119-4.441-2.5-3.759,2.167,4.124,2.381A.543.543,0,0,0,223.825,388.143Z" transform="translate(-168.441 -332.556)" fill="#37474f"/>
            <path id="Trazado_674931" data-name="Trazado 674931" d="M216.954,392.111l3.807-2.119-4.442-2.5-3.758,2.168,4.147,2.393A.57.57,0,0,0,216.954,392.111Z" transform="translate(-166.537 -333.656)" fill="#37474f"/>
            <path id="Trazado_674932" data-name="Trazado 674932" d="M209.856,382.254l4.124,2.379a.538.538,0,0,0,.269.068l3.807-2.12-4.441-2.5Z" transform="translate(-165.788 -331.603)" fill="#37474f"/>
            <path id="Trazado_674933" data-name="Trazado 674933" d="M189.239,394.158l4.123,2.379a.535.535,0,0,0,.269.067l3.807-2.119-4.441-2.5Z" transform="translate(-160.074 -334.901)" fill="#37474f"/>
            <path id="Trazado_674934" data-name="Trazado 674934" d="M216.73,378.286l4.128,2.383a.546.546,0,0,0,.264.063l3.807-2.119-4.441-2.5Z" transform="translate(-167.692 -330.503)" fill="#37474f"/>
            <path id="Trazado_674935" data-name="Trazado 674935" d="M202.986,386.222l4.122,2.38a.544.544,0,0,0,.269.067l.154-.01,3.653-2.109-4.441-2.5Z" transform="translate(-163.884 -332.702)" fill="#37474f"/>
            <path id="Trazado_674936" data-name="Trazado 674936" d="M230.7,384.175l3.81-2.119-4.442-2.5-3.758,2.168,4.139,2.39A.532.532,0,0,0,230.7,384.175Z" transform="translate(-170.346 -331.457)" fill="#37474f"/>
            <path id="Trazado_674937" data-name="Trazado 674937" d="M272.986,336.837l4.147,2.393a.548.548,0,0,0,.244.054l3.807-2.12-4.44-2.5Z" transform="translate(-183.282 -319.017)" fill="#37474f"/>
            <path id="Trazado_674938" data-name="Trazado 674938" d="M162.078,400.872l-3.758,2.167,4.148,2.394a.558.558,0,0,0,.244.052l.154-.009,3.656-2.109Z" transform="translate(-151.506 -337.363)" fill="#37474f"/>
            <path id="Trazado_674939" data-name="Trazado 674939" d="M171.678,403.893l-5.588,3.225,4.146,2.394a.56.56,0,0,0,.244.053l.154-.01,5.484-3.166Z" transform="translate(-153.659 -338.2)" fill="#37474f"/>
            <path id="Trazado_674940" data-name="Trazado 674940" d="M153.437,394.8l-4.543,2.621,4.128,2.383a.553.553,0,0,0,.264.064l4.592-2.571Z" transform="translate(-148.894 -335.681)" fill="#37474f"/>
            <path id="Trazado_674941" data-name="Trazado 674941" d="M186.168,413.7l-4.541,2.623,4.122,2.38a.541.541,0,0,0,.267.067l4.593-2.573Z" transform="translate(-157.965 -340.917)" fill="#37474f"/>
            <path id="Trazado_674942" data-name="Trazado 674942" d="M180.752,407.335l-6.895,3.979L178,413.709a.555.555,0,0,0,.244.053l.154-.01,6.793-3.922Z" transform="translate(-155.812 -339.154)" fill="#37474f"/>
            <path id="Trazado_674943" data-name="Trazado 674943" d="M164.234,393.723l3.808-2.12-4.441-2.5-3.758,2.167,4.123,2.381A.535.535,0,0,0,164.234,393.723Z" transform="translate(-151.928 -334.103)" fill="#37474f"/>
            <path id="Trazado_674944" data-name="Trazado 674944" d="M189.394,420.573l4.128,2.383a.525.525,0,0,0,.26.064l5.638-3.178-4.439-2.495Z" transform="translate(-160.117 -341.929)" fill="#37474f"/>
            <path id="Trazado_674945" data-name="Trazado 674945" d="M171.108,389.755l3.807-2.119-4.441-2.5-3.755,2.169,4.144,2.393A.561.561,0,0,0,171.108,389.755Z" transform="translate(-153.833 -333.003)" fill="#37474f"/>
            <path id="Trazado_674946" data-name="Trazado 674946" d="M201.586,372.156l.154-.01,3.655-2.109-4.441-2.5-3.757,2.17,4.132,2.385A.537.537,0,0,0,201.586,372.156Z" transform="translate(-162.28 -328.126)" fill="#37474f"/>
            <path id="Trazado_674947" data-name="Trazado 674947" d="M208.46,368.188l3.807-2.119-4.441-2.5-3.758,2.17,4.133,2.385A.541.541,0,0,0,208.46,368.188Z" transform="translate(-164.184 -327.027)" fill="#37474f"/>
            <path id="Trazado_674948" data-name="Trazado 674948" d="M194.713,376.124l.154-.01L198.522,374l-4.441-2.5-3.758,2.17,4.124,2.379A.542.542,0,0,0,194.713,376.124Z" transform="translate(-160.374 -329.226)" fill="#37474f"/>
            <path id="Trazado_674949" data-name="Trazado 674949" d="M184.851,381.819l.154-.009,3.654-2.109-4.441-2.5-3.756,2.169,4.132,2.385A.529.529,0,0,0,184.851,381.819Z" transform="translate(-157.642 -330.804)" fill="#37474f"/>
            <path id="Trazado_674950" data-name="Trazado 674950" d="M177.979,385.787l3.808-2.119-4.441-2.5-3.756,2.17,4.14,2.391A.557.557,0,0,0,177.979,385.787Z" transform="translate(-155.738 -331.903)" fill="#37474f"/>
            <path id="Trazado_674951" data-name="Trazado 674951" d="M326.125,342.037l4.153,2.4a.585.585,0,0,0,.235.048l.154-.009,3.655-2.109-4.441-2.5Z" transform="translate(-198.008 -320.458)" fill="#37474f"/>
            <path id="Trazado_674952" data-name="Trazado 674952" d="M290.31,362.712l4.124,2.378a.517.517,0,0,0,.267.07l3.808-2.12-4.441-2.5Z" transform="translate(-188.083 -326.187)" fill="#37474f"/>
            <path id="Trazado_674953" data-name="Trazado 674953" d="M312.376,348.874l4.128,2.382a.545.545,0,0,0,.262.065l.154-.01,8.623-4.978-4.441-2.5Z" transform="translate(-194.197 -321.557)" fill="#37474f"/>
            <path id="Trazado_674954" data-name="Trazado 674954" d="M297.183,358.744l4.12,2.377a.53.53,0,0,0,.273.069l3.807-2.117-4.441-2.5Z" transform="translate(-189.987 -325.088)" fill="#37474f"/>
            <path id="Trazado_674955" data-name="Trazado 674955" d="M304.056,354.776l4.105,2.37a.525.525,0,0,0,.288.079l3.806-2.119-4.441-2.5Z" transform="translate(-191.892 -323.988)" fill="#37474f"/>
            <path id="Trazado_674956" data-name="Trazado 674956" d="M215.331,364.22l.154-.01,3.655-2.109-4.441-2.5-3.758,2.169,4.124,2.38A.535.535,0,0,0,215.331,364.22Z" transform="translate(-166.088 -325.927)" fill="#37474f"/>
            <path id="Trazado_674957" data-name="Trazado 674957" d="M328.985,331.414l-3.758,2.17,9.77,5.641a.572.572,0,0,0,.236.048l.154-.01,3.651-2.109Z" transform="translate(-197.759 -318.115)" fill="#37474f"/>
            <path id="Trazado_674958" data-name="Trazado 674958" d="M206.757,410.78l4.121,2.379a.544.544,0,0,0,.268.067l4.592-2.572-4.439-2.5Z" transform="translate(-164.929 -339.382)" fill="#37474f"/>
            <path id="Trazado_674959" data-name="Trazado 674959" d="M214.715,400.919l4.115,2.375a.524.524,0,0,0,.274.071l.153-.01,28.234-16.3-4.441-2.5Z" transform="translate(-167.134 -332.842)" fill="#37474f"/>
            <path id="Trazado_674960" data-name="Trazado 674960" d="M214.591,402.442l3.808-2.117-4.441-2.5L210.2,400l4.142,2.391A.547.547,0,0,0,214.591,402.442Z" transform="translate(-165.883 -336.52)" fill="#37474f"/>
            <path id="Trazado_674961" data-name="Trazado 674961" d="M198.8,415.374l4.123,2.38a.531.531,0,0,0,.266.068l4.593-2.573-4.441-2.5Z" transform="translate(-162.723 -340.655)" fill="#37474f"/>
            <path id="Trazado_674962" data-name="Trazado 674962" d="M255.586,382.587l4.129,2.383a.538.538,0,0,0,.263.064l.154-.01,4.439-2.56-4.444-2.5Z" transform="translate(-178.46 -331.57)" fill="#37474f"/>
            <path id="Trazado_674963" data-name="Trazado 674963" d="M271.5,373.4l4.137,2.388a.548.548,0,0,0,.254.058l.154-.01,4.438-2.562-4.441-2.5Z" transform="translate(-182.871 -329.023)" fill="#37474f"/>
            <path id="Trazado_674964" data-name="Trazado 674964" d="M263.545,377.992l4.146,2.393a.57.57,0,0,0,.247.054l4.592-2.574-4.444-2.495Z" transform="translate(-180.666 -330.296)" fill="#37474f"/>
            <path id="Trazado_674965" data-name="Trazado 674965" d="M279.459,368.572l4.129,2.383a.537.537,0,0,0,.263.064l.154-.01,5.482-3.166-4.44-2.5Z" transform="translate(-185.076 -327.518)" fill="#37474f"/>
            <path id="Trazado_674966" data-name="Trazado 674966" d="M285.145,343.769l.154-.01,3.654-2.109-4.441-2.5-3.758,2.169,4.138,2.389A.549.549,0,0,0,285.145,343.769Z" transform="translate(-185.435 -320.26)" fill="#37474f"/>
            <path id="Trazado_674967" data-name="Trazado 674967" d="M293.807,356.707l.154-.01,3.654-2.109-4.441-2.5-3.758,2.167,4.137,2.391A.559.559,0,0,0,293.807,356.707Z" transform="translate(-187.835 -323.845)" fill="#37474f"/>
            <path id="Trazado_674968" data-name="Trazado 674968" d="M269.574,369.252l10.342-5.894-4.441-2.5L265.182,366.8l4.149,2.393A.554.554,0,0,0,269.574,369.252Z" transform="translate(-181.119 -326.275)" fill="#37474f"/>
            <path id="Trazado_674969" data-name="Trazado 674969" d="M309,347.935l.154-.01,3.653-2.112-4.441-2.495-3.758,2.169,4.146,2.393A.554.554,0,0,0,309,347.935Z" transform="translate(-192.045 -321.414)" fill="#37474f"/>
            <path id="Trazado_674970" data-name="Trazado 674970" d="M315.872,343.967l.154-.009,3.652-2.109-4.44-2.5-3.758,2.169,4.137,2.389A.559.559,0,0,0,315.872,343.967Z" transform="translate(-193.949 -320.315)" fill="#37474f"/>
            <path id="Trazado_674971" data-name="Trazado 674971" d="M262.7,374.668l3.81-2.119-4.441-2.5-3.758,2.167,4.128,2.384A.53.53,0,0,0,262.7,374.668Z" transform="translate(-179.215 -328.822)" fill="#37474f"/>
            <path id="Trazado_674972" data-name="Trazado 674972" d="M301.232,343.45l.154-.009,3.654-2.109-4.442-2.5L296.839,341l4.118,2.375A.527.527,0,0,0,301.232,343.45Z" transform="translate(-189.892 -320.172)" fill="#37474f"/>
            <path id="Trazado_674973" data-name="Trazado 674973" d="M228.337,394.506l3.807-2.119-4.44-2.495-3.758,2.168,4.142,2.391A.549.549,0,0,0,228.337,394.506Z" transform="translate(-169.692 -334.32)" fill="#37474f"/>
            <path id="Trazado_674974" data-name="Trazado 674974" d="M255.829,378.636l3.8-2.121-4.438-2.495-3.758,2.168,4.156,2.4A.571.571,0,0,0,255.829,378.636Z" transform="translate(-177.31 -329.922)" fill="#37474f"/>
            <path id="Trazado_674975" data-name="Trazado 674975" d="M221.465,398.474l.153-.01,3.653-2.109-4.44-2.495-3.758,2.167,4.146,2.393A.554.554,0,0,0,221.465,398.474Z" transform="translate(-167.787 -335.42)" fill="#37474f"/>
            <path id="Trazado_674976" data-name="Trazado 674976" d="M235.211,390.54l3.807-2.119-4.441-2.5-3.758,2.167,4.159,2.4A.557.557,0,0,0,235.211,390.54Z" transform="translate(-171.596 -333.221)" fill="#37474f"/>
            <path id="Trazado_674977" data-name="Trazado 674977" d="M242.082,386.57l.154-.01,3.652-2.109-4.439-2.495-3.758,2.168,4.124,2.379A.532.532,0,0,0,242.082,386.57Z" transform="translate(-173.501 -332.121)" fill="#37474f"/>
            <path id="Trazado_674978" data-name="Trazado 674978" d="M248.954,382.6l.154-.01,3.654-2.107-4.441-2.5-3.758,2.167,4.146,2.394A.558.558,0,0,0,248.954,382.6Z" transform="translate(-175.405 -331.022)" fill="#37474f"/>
            <path id="Trazado_674979" data-name="Trazado 674979" d="M232.068,354.559l3.807-2.119-4.441-2.5-3.758,2.168,4.123,2.379A.541.541,0,0,0,232.068,354.559Z" transform="translate(-170.725 -323.25)" fill="#37474f"/>
            <path id="Trazado_674980" data-name="Trazado 674980" d="M322.745,340l.154-.01,3.654-2.109-4.443-2.5-3.757,2.169,4.146,2.393A.553.553,0,0,0,322.745,340Z" transform="translate(-195.854 -319.215)" fill="#37474f"/>
            <path id="Trazado_674981" data-name="Trazado 674981" d="M245.813,346.623l3.807-2.12-4.441-2.5-3.758,2.168,4.123,2.379A.54.54,0,0,0,245.813,346.623Z" transform="translate(-174.534 -321.051)" fill="#37474f"/>
            <path id="Trazado_674982" data-name="Trazado 674982" d="M261.078,337.809l3.806-2.119-4.441-2.5-3.758,2.169,4.129,2.383A.551.551,0,0,0,261.078,337.809Z" transform="translate(-178.765 -318.608)" fill="#37474f"/>
            <path id="Trazado_674983" data-name="Trazado 674983" d="M254.206,341.777l3.805-2.119-4.44-2.5-3.758,2.17,4.128,2.382A.546.546,0,0,0,254.206,341.777Z" transform="translate(-176.86 -319.708)" fill="#37474f"/>
            <path id="Trazado_674984" data-name="Trazado 674984" d="M225.2,358.526,229,356.407l-4.441-2.5-3.756,2.169,4.132,2.385A.544.544,0,0,0,225.2,358.526Z" transform="translate(-168.822 -324.349)" fill="#37474f"/>
            <path id="Trazado_674985" data-name="Trazado 674985" d="M238.94,350.59l.154-.009,3.653-2.109-4.441-2.495-3.759,2.167,4.124,2.38A.54.54,0,0,0,238.94,350.59Z" transform="translate(-172.63 -322.151)" fill="#37474f"/>
            <path id="Trazado_674986" data-name="Trazado 674986" d="M267.951,333.841l3.805-2.119-4.44-2.5-3.758,2.17,4.129,2.382A.54.54,0,0,0,267.951,333.841Z" transform="translate(-180.669 -317.508)" fill="#37474f"/>
            <path id="Trazado_674987" data-name="Trazado 674987" d="M295.669,316.441l3.805-2.121-2.414-1.3-3.761,2.171,2.115,1.194A.556.556,0,0,0,295.669,316.441Z" transform="translate(-188.911 -313.017)" fill="#37474f"/>
            <path id="Trazado_674988" data-name="Trazado 674988" d="M306.314,322.578l3.809-2.119-4.442-2.5-3.756,2.169,4.126,2.382A.546.546,0,0,0,306.314,322.578Z" transform="translate(-191.301 -314.387)" fill="#37474f"/>
            <path id="Trazado_674989" data-name="Trazado 674989" d="M275.051,328.343l.155-.009,3.65-2.109-2.412-1.3-3.758,2.172,2.1,1.188A.538.538,0,0,0,275.051,328.343Z" transform="translate(-183.198 -316.315)" fill="#37474f"/>
            <path id="Trazado_674990" data-name="Trazado 674990" d="M281.924,324.376l.154-.01,3.65-2.109-2.412-1.3-3.759,2.171,2.122,1.2A.569.569,0,0,0,281.924,324.376Z" transform="translate(-185.103 -315.216)" fill="#37474f"/>
            <path id="Trazado_674991" data-name="Trazado 674991" d="M288.8,320.408l3.8-2.12-2.412-1.3-3.758,2.172,2.122,1.2A.563.563,0,0,0,288.8,320.408Z" transform="translate(-187.007 -314.116)" fill="#37474f"/>
          </g>
        </g>
      </g>
      <g id="Grupo_904211" data-name="Grupo 904211" transform="translate(66.576 53.415)">
        <g id="Grupo_904205" data-name="Grupo 904205">
          <g id="Grupo_904202" data-name="Grupo 904202" transform="translate(2.849 1.61)" opacity="0.8">
            <g id="Grupo_904199" data-name="Grupo 904199">
              <g id="Grupo_904198" data-name="Grupo 904198">
                <path id="Trazado_674992" data-name="Trazado 674992" d="M240.366,62.146V169.462a4.927,4.927,0,0,1-2.232,3.862L93.491,256.992a1.433,1.433,0,0,1-.739.212,1.275,1.275,0,0,1-.285-.036.875.875,0,0,1-.191-.066c-.043-.022-.08-.044-.117-.066l-.132-.088a.9.9,0,0,1-.124-.11,1.741,1.741,0,0,1-.409-.585,2.787,2.787,0,0,1-.234-1.127V148.352a4.94,4.94,0,0,1,2.231-3.862l144.643-83.63a1.619,1.619,0,0,1,1.5-.19,1,1,0,0,1,.19.11l.014.014a.7.7,0,0,1,.147.146.38.38,0,0,1,.066.081.388.388,0,0,1,.073.117,1,1,0,0,1,.132.285.787.787,0,0,1,.051.2c.007.015.014.03.007.044a.931.931,0,0,1,.036.2C240.358,61.956,240.366,62.051,240.366,62.146Z" transform="translate(-91.26 -60.558)" fill="#455a64"/>
                <path id="Trazado_674993" data-name="Trazado 674993" d="M239.124,61.281a.48.48,0,0,1,.215.048l.025.012h0l.042.031.061.081v0l.054.081a.282.282,0,0,1,.019.032l-.012.022.07.21,0,.023.016.033.007.019c0,.02.005.041.006.051.006.069.012.144.012.218V169.462a4.2,4.2,0,0,1-1.87,3.237L93.132,256.364a.736.736,0,0,1-.376.116h0a.672.672,0,0,1-.151-.025c-.02-.01-.038-.02-.054-.03l-.092-.061-.017-.013-.01-.012-.037-.033a1.055,1.055,0,0,1-.237-.346,2.073,2.073,0,0,1-.171-.833V148.352a4.2,4.2,0,0,1,1.87-3.236L238.492,61.487a1.35,1.35,0,0,1,.632-.206m0-.723a2.031,2.031,0,0,0-.99.3L93.491,144.489a4.94,4.94,0,0,0-2.231,3.862V255.127a2.784,2.784,0,0,0,.234,1.126,1.742,1.742,0,0,0,.409.585.857.857,0,0,0,.124.11l.132.088c.037.022.074.043.117.066a.884.884,0,0,0,.19.066,1.287,1.287,0,0,0,.286.036h.031a1.458,1.458,0,0,0,.708-.213l144.643-83.667a4.928,4.928,0,0,0,2.232-3.862V62.146c0-.1-.007-.19-.014-.278a.975.975,0,0,0-.037-.2c.007-.014,0-.029-.007-.044a.787.787,0,0,0-.051-.2,1,1,0,0,0-.132-.285.377.377,0,0,0-.074-.117.356.356,0,0,0-.065-.081.7.7,0,0,0-.147-.146l-.014-.014a1,1,0,0,0-.19-.11,1.181,1.181,0,0,0-.51-.111Z" transform="translate(-91.26 -60.558)" fill="#455a64"/>
              </g>
            </g>
            <g id="Grupo_904201" data-name="Grupo 904201" transform="translate(0 0)">
              <g id="Grupo_904200" data-name="Grupo 904200" opacity="0.7">
                <path id="Trazado_674994" data-name="Trazado 674994" d="M240.366,62.146V169.462a4.927,4.927,0,0,1-2.232,3.862L93.491,256.992a1.433,1.433,0,0,1-.739.212,1.275,1.275,0,0,1-.285-.036.875.875,0,0,1-.191-.066c-.043-.022-.08-.044-.117-.066l-.132-.088a.9.9,0,0,1-.124-.11,1.741,1.741,0,0,1-.409-.585,2.787,2.787,0,0,1-.234-1.127V148.352a4.94,4.94,0,0,1,2.231-3.862l144.643-83.63a1.619,1.619,0,0,1,1.5-.19,1,1,0,0,1,.19.11l.014.014a.7.7,0,0,1,.147.146.38.38,0,0,1,.066.081.388.388,0,0,1,.073.117,1,1,0,0,1,.132.285.787.787,0,0,1,.051.2c.007.015.014.03.007.044a.931.931,0,0,1,.036.2C240.358,61.956,240.366,62.051,240.366,62.146Z" transform="translate(-91.26 -60.559)" fill="#455a64"/>
              </g>
            </g>
          </g>
          <g id="Grupo_904203" data-name="Grupo 904203">
            <path id="Trazado_674995" data-name="Trazado 674995" d="M238.543,60.051a1.619,1.619,0,0,0-1.5.19L92.4,143.872a4.94,4.94,0,0,0-2.231,3.862v7.286l-2.845-1.668v-7.234a4.919,4.919,0,0,1,2.224-3.855L234.2,58.632a1.551,1.551,0,0,1,1.616-.132C236.217,58.742,238.068,59.8,238.543,60.051Z" transform="translate(-87.32 -58.33)" fill="#27debf"/>
            <path id="Trazado_674996" data-name="Trazado 674996" d="M240.361,62.131c-.009-1.407-1-1.976-2.227-1.269L93.49,144.491a4.927,4.927,0,0,0-2.228,3.86l0,7.289,149.1-86.2Z" transform="translate(-88.412 -58.948)" fill="#27debf"/>
            <path id="Trazado_674997" data-name="Trazado 674997" d="M237.3,60.244l-144.64,83.63a4.582,4.582,0,0,0-1.57,1.654l-2.832-1.639a4.453,4.453,0,0,1,1.551-1.627L234.455,58.63a1.568,1.568,0,0,1,1.619-.132c.4.245,2.25,1.3,2.719,1.549A1.61,1.61,0,0,0,237.3,60.244Z" transform="translate(-87.579 -58.33)" fill="#fff" opacity="0.4"/>
            <path id="Trazado_674998" data-name="Trazado 674998" d="M87.319,186.159v-7.245A4.594,4.594,0,0,1,88,176.686l2.839,1.633a4.5,4.5,0,0,0-.666,2.214v7.288Z" transform="translate(-87.319 -91.129)" opacity="0.15"/>
          </g>
          <g id="Grupo_904204" data-name="Grupo 904204" transform="translate(137.268 6.104)">
            <path id="Trazado_674999" data-name="Trazado 674999" d="M278.466,74.161a3.323,3.323,0,0,0-1.258,2.666c0,1.071.563,1.613,1.258,1.212a3.323,3.323,0,0,0,1.259-2.665C279.726,74.3,279.162,73.76,278.466,74.161Z" transform="translate(-277.208 -68.785)" fill="#455a64"/>
            <path id="Trazado_675000" data-name="Trazado 675000" d="M284.737,70.534a3.323,3.323,0,0,0-1.259,2.666c0,1.071.564,1.613,1.259,1.212A3.323,3.323,0,0,0,286,71.746C286,70.675,285.433,70.133,284.737,70.534Z" transform="translate(-278.946 -67.78)" fill="#455a64"/>
            <path id="Trazado_675001" data-name="Trazado 675001" d="M291.008,66.907a3.322,3.322,0,0,0-1.259,2.666c0,1.071.564,1.613,1.259,1.212a3.323,3.323,0,0,0,1.259-2.666C292.267,67.048,291.7,66.506,291.008,66.907Z" transform="translate(-280.683 -66.775)" fill="#455a64"/>
          </g>
          <path id="Trazado_675002" data-name="Trazado 675002" d="M90.988,292.808c-.08-.051-.176-.1-.278-.161-.2-.124-.439-.256-.687-.387l-.007-.007c-.124-.073-.249-.146-.373-.212a.051.051,0,0,0-.029-.015c-.205-.117-.4-.234-.586-.336s-.359-.205-.49-.278-.234-.132-.278-.153a1.256,1.256,0,0,1-.38-.307,1.7,1.7,0,0,1-.3-.454,2.763,2.763,0,0,1-.255-1.178v-99.54l2.845,1.668v99.488a3.314,3.314,0,0,0,.234,1.127,1.742,1.742,0,0,0,.409.585.361.361,0,0,0,.124.11A.165.165,0,0,0,90.988,292.808Z" transform="translate(-87.32 -94.757)" fill="#37474f" opacity="0.9"/>
        </g>
        <g id="Grupo_904210" data-name="Grupo 904210" transform="translate(19.607 64.09)">
          <g id="Grupo_904206" data-name="Grupo 904206" transform="translate(0 35.321)">
            <path id="Trazado_675003" data-name="Trazado 675003" d="M150.139,241.976s-5.265-3.4-5.946-3.426l-14.958-.47,5.946,3.165v.261Z" transform="translate(-118.542 -207.554)" fill="#263238"/>
            <path id="Trazado_675004" data-name="Trazado 675004" d="M122.668,241.844v-9.369l25.652-31.884v12.434l-14.959,17.831v.261l14.959.47v12.434Z" transform="translate(-116.722 -197.165)" fill="#fafafa"/>
            <path id="Trazado_675005" data-name="Trazado 675005" d="M146.04,199.277l-5.946-3.426-25.651,31.883,5.946,3.426Z" transform="translate(-114.443 -195.851)" fill="#455a64"/>
            <path id="Trazado_675006" data-name="Trazado 675006" d="M114.443,239.957v9.369l5.946,3.426v-9.369Z" transform="translate(-114.443 -208.074)" fill="#37474f"/>
          </g>
          <g id="Grupo_904207" data-name="Grupo 904207" transform="translate(33.215)">
            <path id="Trazado_675007" data-name="Trazado 675007" d="M176.579,224.32l-7.963,4.6,19.85-72.754,7.678-4.433Z" transform="translate(-162.67 -148.303)" fill="#fafafa"/>
            <path id="Trazado_675008" data-name="Trazado 675008" d="M201.474,150.416l-5.946-3.426-7.678,4.433,5.946,3.426Z" transform="translate(-168 -146.99)" fill="#455a64"/>
            <path id="Trazado_675009" data-name="Trazado 675009" d="M180.24,153.122l5.946,3.426L166.336,229.3l-5.946-3.426Z" transform="translate(-160.39 -148.689)" fill="#37474f"/>
          </g>
          <g id="Grupo_904209" data-name="Grupo 904209" transform="translate(68.307 10.694)">
            <path id="Trazado_675010" data-name="Trazado 675010" d="M208.935,197.76l5.946,3.426,14.958-18-5.946-3.426Z" transform="translate(-208.935 -166.764)" fill="#263238"/>
            <g id="Grupo_904208" data-name="Grupo 904208" transform="translate(5.946 3.426)">
              <path id="Trazado_675011" data-name="Trazado 675011" d="M232.119,179.515l-14.958-.558V166.523l25.651,2.265v9.369l-25.651,31.8V197.52l14.958-17.742Z" transform="translate(-217.161 -166.523)" fill="#fafafa"/>
            </g>
            <path id="Trazado_675012" data-name="Trazado 675012" d="M208.935,161.783l5.946,3.426,25.651,2.265-5.946-3.426Z" transform="translate(-208.935 -161.783)" fill="#455a64"/>
            <path id="Trazado_675013" data-name="Trazado 675013" d="M214.882,165.209v12.434l-5.946-3.426V161.783" transform="translate(-208.935 -161.783)" fill="#37474f"/>
            <path id="Trazado_675014" data-name="Trazado 675014" d="M208.935,204.662l5.946,3.426v12.434l-5.946-3.426Z" transform="translate(-208.935 -173.666)" fill="#37474f"/>
          </g>
        </g>
      </g>
      <g id="Grupo_904233" data-name="Grupo 904233" transform="translate(196.268 71.923)">
        <g id="Grupo_904219" data-name="Grupo 904219">
          <g id="Grupo_904216" data-name="Grupo 904216" transform="translate(2.848 1.611)" opacity="0.8">
            <g id="Grupo_904213" data-name="Grupo 904213">
              <g id="Grupo_904212" data-name="Grupo 904212">
                <path id="Trazado_675015" data-name="Trazado 675015" d="M336.783,87.749V195.066a4.93,4.93,0,0,1-2.232,3.862L272.9,234.5a1.434,1.434,0,0,1-.739.213,1.287,1.287,0,0,1-.286-.037.841.841,0,0,1-.19-.066c-.044-.022-.08-.044-.117-.066l-.132-.088a.9.9,0,0,1-.124-.109,1.765,1.765,0,0,1-.41-.586,2.794,2.794,0,0,1-.234-1.126V125.859A4.938,4.938,0,0,1,272.9,122l61.652-35.536a1.619,1.619,0,0,1,1.5-.19,1,1,0,0,1,.19.11l.014.014a.705.705,0,0,1,.147.147.35.35,0,0,1,.065.08.4.4,0,0,1,.074.117,1.019,1.019,0,0,1,.132.286.789.789,0,0,1,.051.2.048.048,0,0,1,.007.043,1,1,0,0,1,.037.205C336.776,87.559,336.783,87.655,336.783,87.749Z" transform="translate(-270.668 -86.162)" fill="#455a64"/>
                <path id="Trazado_675016" data-name="Trazado 675016" d="M335.541,86.885a.476.476,0,0,1,.216.048l.025.012h0l.041.03.061.082v0l.054.081.018.03-.012.022.071.213,0,.021.015.03.007.023c0,.02.005.041.007.051.006.069.012.144.012.218V195.066a4.2,4.2,0,0,1-1.869,3.236l-61.65,35.57a.731.731,0,0,1-.376.117h0a.7.7,0,0,1-.152-.026.542.542,0,0,1-.054-.03l-.093-.061-.017-.013-.009-.012-.037-.033a1.033,1.033,0,0,1-.237-.346,2.071,2.071,0,0,1-.172-.833V125.859a4.2,4.2,0,0,1,1.869-3.236L334.909,87.09a1.348,1.348,0,0,1,.632-.205m0-.723a2.029,2.029,0,0,0-.99.3L272.9,122a4.941,4.941,0,0,0-2.231,3.862V232.634a2.793,2.793,0,0,0,.234,1.126,1.766,1.766,0,0,0,.41.586.869.869,0,0,0,.124.109l.132.088c.037.022.073.044.117.066a.845.845,0,0,0,.19.066,1.285,1.285,0,0,0,.286.037h.031a1.458,1.458,0,0,0,.708-.212l61.652-35.572a4.927,4.927,0,0,0,2.232-3.862V87.749c0-.095-.007-.19-.014-.278a1,1,0,0,0-.037-.205.048.048,0,0,0-.007-.043.789.789,0,0,0-.051-.2,1,1,0,0,0-.132-.286.384.384,0,0,0-.074-.117.335.335,0,0,0-.066-.08.687.687,0,0,0-.146-.147l-.014-.014a1,1,0,0,0-.19-.11,1.191,1.191,0,0,0-.51-.11Z" transform="translate(-270.668 -86.162)" fill="#455a64"/>
              </g>
            </g>
            <g id="Grupo_904215" data-name="Grupo 904215">
              <g id="Grupo_904214" data-name="Grupo 904214" opacity="0.8">
                <path id="Trazado_675017" data-name="Trazado 675017" d="M336.783,87.749V195.066a4.93,4.93,0,0,1-2.232,3.862L272.9,234.5a1.434,1.434,0,0,1-.739.213,1.287,1.287,0,0,1-.286-.037.841.841,0,0,1-.19-.066c-.044-.022-.08-.044-.117-.066l-.132-.088a.9.9,0,0,1-.124-.109,1.765,1.765,0,0,1-.41-.586,2.794,2.794,0,0,1-.234-1.126V125.859A4.938,4.938,0,0,1,272.9,122l61.652-35.536a1.619,1.619,0,0,1,1.5-.19,1,1,0,0,1,.19.11l.014.014a.705.705,0,0,1,.147.147.35.35,0,0,1,.065.08.4.4,0,0,1,.074.117,1.019,1.019,0,0,1,.132.286.789.789,0,0,1,.051.2.048.048,0,0,1,.007.043,1,1,0,0,1,.037.205C336.776,87.559,336.783,87.655,336.783,87.749Z" transform="translate(-270.668 -86.162)" fill="#455a64"/>
              </g>
            </g>
          </g>
          <g id="Grupo_904217" data-name="Grupo 904217">
            <path id="Trazado_675018" data-name="Trazado 675018" d="M334.961,85.654a1.62,1.62,0,0,0-1.5.19L271.809,121.38a4.938,4.938,0,0,0-2.232,3.862v7.286l-2.845-1.668v-7.235a4.919,4.919,0,0,1,2.224-3.855l61.66-35.535a1.552,1.552,0,0,1,1.617-.132C332.634,84.345,334.485,85.406,334.961,85.654Z" transform="translate(-266.729 -83.933)" fill="#27debf"/>
            <path id="Trazado_675019" data-name="Trazado 675019" d="M336.779,87.735c-.009-1.408-1-1.977-2.227-1.269L272.9,122a4.925,4.925,0,0,0-2.228,3.859l0,7.289,66.106-38.1Z" transform="translate(-267.821 -84.551)" fill="#27debf"/>
            <path id="Trazado_675020" data-name="Trazado 675020" d="M333.719,85.847l-61.65,35.535a4.574,4.574,0,0,0-1.569,1.654l-2.832-1.64a4.452,4.452,0,0,1,1.551-1.627l61.654-35.534a1.567,1.567,0,0,1,1.619-.132c.4.246,2.25,1.3,2.719,1.549A1.612,1.612,0,0,0,333.719,85.847Z" transform="translate(-266.988 -83.933)" fill="#fff" opacity="0.4"/>
            <path id="Trazado_675021" data-name="Trazado 675021" d="M266.728,145.229v-7.245a4.594,4.594,0,0,1,.678-2.229l2.839,1.633a4.5,4.5,0,0,0-.666,2.214v7.288Z" transform="translate(-266.728 -98.294)" opacity="0.15"/>
          </g>
          <g id="Grupo_904218" data-name="Grupo 904218" transform="translate(54.276 6.105)">
            <path id="Trazado_675022" data-name="Trazado 675022" d="M343.069,99.765a3.322,3.322,0,0,0-1.259,2.665c0,1.071.564,1.613,1.259,1.212a3.32,3.32,0,0,0,1.259-2.665C344.329,99.906,343.765,99.363,343.069,99.765Z" transform="translate(-341.811 -94.389)" fill="#455a64"/>
            <path id="Trazado_675023" data-name="Trazado 675023" d="M349.34,96.138a3.32,3.32,0,0,0-1.259,2.665c0,1.071.564,1.613,1.259,1.212A3.32,3.32,0,0,0,350.6,97.35C350.6,96.279,350.036,95.736,349.34,96.138Z" transform="translate(-343.548 -93.384)" fill="#455a64"/>
            <path id="Trazado_675024" data-name="Trazado 675024" d="M355.611,92.511a3.321,3.321,0,0,0-1.259,2.665c0,1.071.564,1.613,1.259,1.212a3.321,3.321,0,0,0,1.259-2.665C356.871,92.652,356.307,92.109,355.611,92.511Z" transform="translate(-345.286 -92.379)" fill="#455a64"/>
          </g>
          <path id="Trazado_675025" data-name="Trazado 675025" d="M270.4,251.878c-.08-.051-.176-.1-.278-.16-.2-.124-.439-.257-.687-.388l-.007-.007c-.124-.073-.249-.146-.373-.212a.054.054,0,0,0-.03-.015c-.2-.117-.4-.234-.585-.337s-.359-.2-.49-.278-.234-.132-.278-.153a1.261,1.261,0,0,1-.38-.307,1.691,1.691,0,0,1-.3-.453,2.767,2.767,0,0,1-.256-1.178v-99.54l2.845,1.668v99.489a3.349,3.349,0,0,0,.234,1.126,1.766,1.766,0,0,0,.41.586.367.367,0,0,0,.124.109A.165.165,0,0,0,270.4,251.878Z" transform="translate(-266.729 -101.923)" fill="#37474f" opacity="0.9"/>
        </g>
        <g id="Grupo_904232" data-name="Grupo 904232" transform="translate(8.208 31.767)">
          <g id="Grupo_904220" data-name="Grupo 904220" transform="translate(0.117 13.619)">
            <path id="Trazado_675026" data-name="Trazado 675026" d="M278.244,158.046a.891.891,0,0,1,.113-.416l1.6-3.315a.318.318,0,0,1,.072-.1.41.41,0,0,1,.041-.03.1.1,0,0,1,.126.009.22.22,0,0,1,.053.163v1.115a1.44,1.44,0,0,1-.033.344,1.648,1.648,0,0,1-.113.3l-.845,1.752.845.776a.427.427,0,0,1,.113.172,1,1,0,0,1,.033.306v1.114a.529.529,0,0,1-.053.225.34.34,0,0,1-.126.154.422.422,0,0,1-.041.017.077.077,0,0,1-.072-.014l-1.6-1.466a.331.331,0,0,1-.113-.284Z" transform="translate(-278.244 -148.783)" fill="#27debf"/>
            <path id="Trazado_675027" data-name="Trazado 675027" d="M285.3,147.667a1.664,1.664,0,0,1,.121-.327.588.588,0,0,1,.236-.255l.6-.347a.1.1,0,0,1,.126.009.22.22,0,0,1,.052.163.566.566,0,0,1-.016.122l-2.747,11.711a1.542,1.542,0,0,1-.114.317.591.591,0,0,1-.244.266l-.578.333a.1.1,0,0,1-.126-.009.22.22,0,0,1-.053-.164.564.564,0,0,1,.016-.121Z" transform="translate(-279.441 -146.718)" fill="#27debf"/>
            <path id="Trazado_675028" data-name="Trazado 675028" d="M291.463,151.6a.889.889,0,0,1-.114.416l-1.6,3.315a.315.315,0,0,1-.074.1.358.358,0,0,1-.04.03.1.1,0,0,1-.126-.009.217.217,0,0,1-.052-.163v-1.114a1.518,1.518,0,0,1,.032-.344,1.7,1.7,0,0,1,.113-.3l.846-1.752L289.6,151a.45.45,0,0,1-.113-.172,1.062,1.062,0,0,1-.032-.306v-1.115a.514.514,0,0,1,.052-.224.34.34,0,0,1,.126-.154l.04-.017a.079.079,0,0,1,.074.013l1.6,1.467a.331.331,0,0,1,.114.285Z" transform="translate(-281.351 -147.353)" fill="#27debf"/>
            <path id="Trazado_675029" data-name="Trazado 675029" d="M298.021,151.525a.12.12,0,0,1,.155.011.27.27,0,0,1,.065.2v1.227a.637.637,0,0,1-.065.275.417.417,0,0,1-.155.189l-.756.437a.118.118,0,0,1-.154-.011.268.268,0,0,1-.065-.2v-1.227a.643.643,0,0,1,.065-.275.411.411,0,0,1,.154-.189Z" transform="translate(-283.454 -148.044)" fill="#27debf"/>
            <path id="Trazado_675030" data-name="Trazado 675030" d="M301.519,149.506a.118.118,0,0,1,.154.011.266.266,0,0,1,.065.2v1.227a.632.632,0,0,1-.065.275.415.415,0,0,1-.154.189l-.757.436a.117.117,0,0,1-.154-.011.266.266,0,0,1-.065-.2v-1.226a.639.639,0,0,1,.065-.275.415.415,0,0,1,.154-.189Z" transform="translate(-284.423 -147.485)" fill="#27debf"/>
            <path id="Trazado_675031" data-name="Trazado 675031" d="M305.015,147.487a.121.121,0,0,1,.155.011.272.272,0,0,1,.064.2v1.227a.652.652,0,0,1-.064.275.426.426,0,0,1-.155.189l-.755.436a.118.118,0,0,1-.155-.01.269.269,0,0,1-.065-.2v-1.227a.641.641,0,0,1,.065-.275.411.411,0,0,1,.155-.189Z" transform="translate(-285.392 -146.925)" fill="#27debf"/>
          </g>
          <path id="Trazado_675032" data-name="Trazado 675032" d="M278.874,163.662l37.043-21.387c.437-.252.792-.073.792.4a1.7,1.7,0,0,1-.792,1.315l-37.043,21.387c-.437.252-.792.073-.792-.4A1.7,1.7,0,0,1,278.874,163.662Z" transform="translate(-278.082 -131.836)" fill="#27debf"/>
          <path id="Trazado_675033" data-name="Trazado 675033" d="M295.315,182.647l37.044-21.387c.437-.252.792-.073.792.4a1.7,1.7,0,0,1-.792,1.315l-37.043,21.387c-.437.252-.792.073-.792-.4A1.7,1.7,0,0,1,295.315,182.647Z" transform="translate(-282.638 -137.097)" fill="#e0e0e0"/>
          <path id="Trazado_675034" data-name="Trazado 675034" d="M295.315,196.417l17.73-10.229c.437-.252.792-.073.792.4a1.7,1.7,0,0,1-.792,1.315l-17.73,10.229c-.437.252-.792.073-.792-.4A1.7,1.7,0,0,1,295.315,196.417Z" transform="translate(-282.638 -144.005)" fill="#e0e0e0"/>
          <path id="Trazado_675035" data-name="Trazado 675035" d="M295.315,205.909l17.73-10.229c.437-.252.792-.073.792.4a1.7,1.7,0,0,1-.792,1.315l-17.73,10.229c-.437.252-.792.073-.792-.4A1.7,1.7,0,0,1,295.315,205.909Z" transform="translate(-282.638 -146.636)" fill="#e0e0e0"/>
          <path id="Trazado_675036" data-name="Trazado 675036" d="M334.363,136.545l14.758-8.552c.437-.253.792-.074.792.4a1.7,1.7,0,0,1-.792,1.315l-14.758,8.552c-.437.253-.792.074-.792-.4A1.7,1.7,0,0,1,334.363,136.545Z" transform="translate(-293.459 -127.878)" fill="#27debf"/>
          <path id="Trazado_675037" data-name="Trazado 675037" d="M278.874,268.069l37.043-21.387c.437-.252.792-.073.792.4a1.7,1.7,0,0,1-.792,1.315l-37.043,21.387c-.437.252-.792.073-.792-.4A1.7,1.7,0,0,1,278.874,268.069Z" transform="translate(-278.082 -160.769)" fill="#27debf"/>
          <path id="Trazado_675038" data-name="Trazado 675038" d="M334.363,240.952l14.758-8.552c.437-.253.792-.074.792.4a1.7,1.7,0,0,1-.792,1.315l-14.758,8.552c-.437.252-.792.073-.792-.4A1.7,1.7,0,0,1,334.363,240.952Z" transform="translate(-293.459 -156.811)" fill="#27debf"/>
          <path id="Trazado_675039" data-name="Trazado 675039" d="M334.363,212.527l14.758-8.552c.437-.252.792-.073.792.4a1.7,1.7,0,0,1-.792,1.315l-14.758,8.552c-.437.252-.792.073-.792-.4A1.7,1.7,0,0,1,334.363,212.527Z" transform="translate(-293.459 -148.934)" fill="#27debf"/>
          <path id="Trazado_675040" data-name="Trazado 675040" d="M334.363,222.017l14.758-8.552c.437-.252.792-.073.792.4a1.7,1.7,0,0,1-.792,1.315l-14.758,8.552c-.437.252-.792.073-.792-.4A1.7,1.7,0,0,1,334.363,222.017Z" transform="translate(-293.459 -151.564)" fill="#27debf"/>
          <path id="Trazado_675041" data-name="Trazado 675041" d="M278.874,258.587,315.917,237.2c.437-.252.792-.073.792.4a1.7,1.7,0,0,1-.792,1.315L278.874,260.3c-.437.252-.792.073-.792-.4A1.7,1.7,0,0,1,278.874,258.587Z" transform="translate(-278.082 -158.141)" fill="#f5f5f5"/>
          <path id="Trazado_675042" data-name="Trazado 675042" d="M316.955,223.992l8.292-4.787c.437-.253.792-.074.792.4a1.7,1.7,0,0,1-.792,1.315l-8.292,4.787c-.437.252-.792.073-.792-.4A1.7,1.7,0,0,1,316.955,223.992Z" transform="translate(-288.635 -153.155)" fill="#27debf"/>
          <g id="Grupo_904221" data-name="Grupo 904221" transform="translate(0 26.106)">
            <path id="Trazado_675043" data-name="Trazado 675043" d="M278.874,176.589l21.607-12.483c.437-.253.792-.074.792.4a1.7,1.7,0,0,1-.792,1.315L278.874,178.3c-.437.252-.792.073-.792-.4A1.7,1.7,0,0,1,278.874,176.589Z" transform="translate(-278.082 -163.991)" fill="#27debf"/>
            <path id="Trazado_675044" data-name="Trazado 675044" d="M278.874,176.589l21.607-12.483c.437-.253.792-.074.792.4a1.7,1.7,0,0,1-.792,1.315L278.874,178.3c-.437.252-.792.073-.792-.4A1.7,1.7,0,0,1,278.874,176.589Z" transform="translate(-278.082 -163.991)" fill="#fff" opacity="0.6"/>
          </g>
          <g id="Grupo_904222" data-name="Grupo 904222" transform="translate(0 41.201)">
            <path id="Trazado_675045" data-name="Trazado 675045" d="M278.874,189.226l7.33-4.238c.437-.252.792-.073.792.4a1.7,1.7,0,0,1-.792,1.315l-7.33,4.238c-.437.252-.792.073-.792-.4A1.7,1.7,0,0,1,278.874,189.226Z" transform="translate(-278.082 -184.874)" fill="#27debf"/>
            <path id="Trazado_675046" data-name="Trazado 675046" d="M278.874,189.226l7.33-4.238c.437-.252.792-.073.792.4a1.7,1.7,0,0,1-.792,1.315l-7.33,4.238c-.437.252-.792.073-.792-.4A1.7,1.7,0,0,1,278.874,189.226Z" transform="translate(-278.082 -184.874)" fill="#fff" opacity="0.6"/>
          </g>
          <g id="Grupo_904223" data-name="Grupo 904223" transform="translate(0 48.063)">
            <path id="Trazado_675047" data-name="Trazado 675047" d="M278.874,198.717l7.33-4.237c.437-.252.792-.073.792.4a1.7,1.7,0,0,1-.792,1.315l-7.33,4.238c-.437.252-.792.073-.792-.4A1.7,1.7,0,0,1,278.874,198.717Z" transform="translate(-278.082 -194.366)" fill="#27debf"/>
            <path id="Trazado_675048" data-name="Trazado 675048" d="M278.874,198.717l7.33-4.237c.437-.252.792-.073.792.4a1.7,1.7,0,0,1-.792,1.315l-7.33,4.238c-.437.252-.792.073-.792-.4A1.7,1.7,0,0,1,278.874,198.717Z" transform="translate(-278.082 -194.366)" fill="#fff" opacity="0.6"/>
          </g>
          <g id="Grupo_904224" data-name="Grupo 904224" transform="translate(0 54.924)">
            <path id="Trazado_675049" data-name="Trazado 675049" d="M278.874,208.209l7.33-4.237c.437-.252.792-.073.792.4a1.7,1.7,0,0,1-.792,1.315l-7.33,4.238c-.437.252-.792.073-.792-.4A1.7,1.7,0,0,1,278.874,208.209Z" transform="translate(-278.082 -203.858)" fill="#27debf"/>
            <path id="Trazado_675050" data-name="Trazado 675050" d="M278.874,208.209l7.33-4.237c.437-.252.792-.073.792.4a1.7,1.7,0,0,1-.792,1.315l-7.33,4.238c-.437.252-.792.073-.792-.4A1.7,1.7,0,0,1,278.874,208.209Z" transform="translate(-278.082 -203.858)" fill="#fff" opacity="0.6"/>
          </g>
          <g id="Grupo_904225" data-name="Grupo 904225" transform="translate(0 61.786)">
            <path id="Trazado_675051" data-name="Trazado 675051" d="M278.874,217.7l7.33-4.237c.437-.252.792-.073.792.4a1.7,1.7,0,0,1-.792,1.315l-7.33,4.237c-.437.253-.792.074-.792-.4A1.7,1.7,0,0,1,278.874,217.7Z" transform="translate(-278.082 -213.35)" fill="#27debf"/>
            <path id="Trazado_675052" data-name="Trazado 675052" d="M278.874,217.7l7.33-4.237c.437-.252.792-.073.792.4a1.7,1.7,0,0,1-.792,1.315l-7.33,4.237c-.437.253-.792.074-.792-.4A1.7,1.7,0,0,1,278.874,217.7Z" transform="translate(-278.082 -213.35)" fill="#fff" opacity="0.6"/>
          </g>
          <g id="Grupo_904226" data-name="Grupo 904226" transform="translate(24.676 18.926)">
            <path id="Trazado_675053" data-name="Trazado 675053" d="M313.009,159.581l9.4-5.407c.437-.252.792-.073.792.4a1.7,1.7,0,0,1-.792,1.315l-9.4,5.407c-.437.252-.792.073-.792-.4A1.7,1.7,0,0,1,313.009,159.581Z" transform="translate(-312.217 -154.06)" fill="#27debf"/>
            <path id="Trazado_675054" data-name="Trazado 675054" d="M313.009,159.581l9.4-5.407c.437-.252.792-.073.792.4a1.7,1.7,0,0,1-.792,1.315l-9.4,5.407c-.437.252-.792.073-.792-.4A1.7,1.7,0,0,1,313.009,159.581Z" transform="translate(-312.217 -154.06)" fill="#fff" opacity="0.6"/>
          </g>
          <g id="Grupo_904227" data-name="Grupo 904227" transform="translate(20.8 48.381)">
            <path id="Trazado_675055" data-name="Trazado 675055" d="M307.647,207.4l21.606-12.484c.437-.252.792-.073.792.4a1.7,1.7,0,0,1-.792,1.315L307.647,209.12c-.437.252-.792.073-.792-.4A1.7,1.7,0,0,1,307.647,207.4Z" transform="translate(-306.855 -194.806)" fill="#f5f5f5"/>
          </g>
          <g id="Grupo_904228" data-name="Grupo 904228" transform="translate(33.265 48.073)">
            <path id="Trazado_675056" data-name="Trazado 675056" d="M324.891,206.979,346.5,194.5c.437-.253.792-.074.792.4a1.7,1.7,0,0,1-.792,1.315l-21.606,12.483c-.437.252-.792.073-.792-.4A1.7,1.7,0,0,1,324.891,206.979Z" transform="translate(-324.099 -194.38)" fill="#f5f5f5"/>
          </g>
          <g id="Grupo_904229" data-name="Grupo 904229" transform="translate(45.475 41.201)">
            <path id="Trazado_675057" data-name="Trazado 675057" d="M341.782,190.4l9.4-5.407c.437-.252.792-.073.792.4a1.7,1.7,0,0,1-.792,1.315l-9.4,5.407c-.437.253-.792.073-.792-.4A1.7,1.7,0,0,1,341.782,190.4Z" transform="translate(-340.99 -184.874)" fill="#f5f5f5"/>
          </g>
          <g id="Grupo_904230" data-name="Grupo 904230" transform="translate(11.885 26.093)">
            <path id="Trazado_675058" data-name="Trazado 675058" d="M295.315,176.572l21.607-12.483c.437-.252.792-.073.792.4a1.7,1.7,0,0,1-.792,1.315l-21.607,12.483c-.437.253-.791.074-.791-.4A1.7,1.7,0,0,1,295.315,176.572Z" transform="translate(-294.523 -163.974)" fill="#27debf"/>
            <path id="Trazado_675059" data-name="Trazado 675059" d="M295.315,176.572l21.607-12.483c.437-.252.792-.073.792.4a1.7,1.7,0,0,1-.792,1.315l-21.607,12.483c-.437.253-.791.074-.791-.4A1.7,1.7,0,0,1,295.315,176.572Z" transform="translate(-294.523 -163.974)" fill="#fff" opacity="0.6"/>
          </g>
          <g id="Grupo_904231" data-name="Grupo 904231" transform="translate(36.561 18.913)">
            <path id="Trazado_675060" data-name="Trazado 675060" d="M329.45,159.563l9.4-5.407c.437-.252.792-.073.792.4a1.7,1.7,0,0,1-.792,1.315l-9.4,5.407c-.437.253-.792.073-.792-.4A1.7,1.7,0,0,1,329.45,159.563Z" transform="translate(-328.658 -154.042)" fill="#27debf"/>
            <path id="Trazado_675061" data-name="Trazado 675061" d="M329.45,159.563l9.4-5.407c.437-.252.792-.073.792.4a1.7,1.7,0,0,1-.792,1.315l-9.4,5.407c-.437.253-.792.073-.792-.4A1.7,1.7,0,0,1,329.45,159.563Z" transform="translate(-328.658 -154.042)" fill="#fff" opacity="0.6"/>
          </g>
        </g>
      </g>
      <g id="Grupo_904242" data-name="Grupo 904242" transform="translate(296.412 60.555)">
        <g id="Grupo_904239" data-name="Grupo 904239">
          <g id="Grupo_904234" data-name="Grupo 904234" transform="translate(0 10.84)">
            <path id="Trazado_675062" data-name="Trazado 675062" d="M419.68,92.042V83.811l-6.948-.606a.506.506,0,0,0-.288.059c-.269.147-6.847,3.911-6.933,3.962a.51.51,0,0,0-.113.784L412.764,96Z" transform="translate(-405.261 -83.203)" fill="#27debf"/>
            <path id="Trazado_675063" data-name="Trazado 675063" d="M412.764,97.51,405.4,89.525a.509.509,0,0,1,.418-.852l6.948.606Z" transform="translate(-405.261 -84.718)" fill="#27debf"/>
            <path id="Trazado_675064" data-name="Trazado 675064" d="M419.8,83.808l-6.914,3.959-6.949-.608a.527.527,0,0,0-.24.035c.556-.327,6.615-3.794,6.867-3.929a.473.473,0,0,1,.292-.059Z" transform="translate(-405.382 -83.203)" fill="#27debf"/>
            <path id="Trazado_675065" data-name="Trazado 675065" d="M419.8,83.808l-6.914,3.959-6.949-.608a.527.527,0,0,0-.24.035c.556-.327,6.615-3.794,6.867-3.929a.473.473,0,0,1,.292-.059Z" transform="translate(-405.382 -83.203)" fill="#fff" opacity="0.5"/>
          </g>
          <g id="Grupo_904238" data-name="Grupo 904238" transform="translate(7.516)">
            <g id="Grupo_904237" data-name="Grupo 904237">
              <g id="Grupo_904236" data-name="Grupo 904236">
                <g id="Grupo_904235" data-name="Grupo 904235">
                  <path id="Trazado_675066" data-name="Trazado 675066" d="M415.659,74.322a5.537,5.537,0,0,1,2.5-4.339l2.039-1.178a5.54,5.54,0,0,1,5.01,0l21.737,12.551a5.535,5.535,0,0,1,2.5,4.338v25.112a5.537,5.537,0,0,1-2.5,4.338l-2.04,1.178a5.534,5.534,0,0,1-5.009,0l-6.418-3.7-8.341-4.819-6.979-4.028a5.534,5.534,0,0,1-2.5-4.338Z" transform="translate(-415.658 -68.207)" fill="#27debf"/>
                  <path id="Trazado_675067" data-name="Trazado 675067" d="M458.911,116.564a5.537,5.537,0,0,1-2.5,4.338l-2.04,1.178a5.594,5.594,0,0,1-4.581.2c1.179.446,2.076-.219,2.076-1.647V95.523a5.12,5.12,0,0,0-.734-2.469l7.049-4.069a5.115,5.115,0,0,1,.734,2.468Z" transform="translate(-425.115 -73.965)" opacity="0.2"/>
                  <path id="Trazado_675068" data-name="Trazado 675068" d="M415.772,73.611c.292-1.063,1.261-1.4,2.419-.736l21.742,12.555A4.973,4.973,0,0,1,441.7,87.3l7.046-4.066a5.052,5.052,0,0,0-1.764-1.869L425.248,68.809a5.57,5.57,0,0,0-5.013,0l-2.044,1.18A5.523,5.523,0,0,0,415.772,73.611Z" transform="translate(-415.69 -68.209)" fill="#fff" opacity="0.5"/>
                </g>
              </g>
            </g>
          </g>
        </g>
        <g id="Grupo_904241" data-name="Grupo 904241" transform="translate(12.61 14.131)">
          <g id="Grupo_904240" data-name="Grupo 904240">
            <path id="Trazado_675069" data-name="Trazado 675069" d="M430.983,88.908l-8.277-1.153,1.157,15.268,7.12,9.25Z" transform="translate(-422.705 -87.755)" fill="#455a64"/>
            <path id="Trazado_675070" data-name="Trazado 675070" d="M434.156,89.35l8.277,8.4-1.157,13.932-7.12,1.028Z" transform="translate(-425.879 -88.197)" fill="#37474f"/>
          </g>
          <path id="Trazado_675071" data-name="Trazado 675071" d="M435.545,110.119l1.9,1.094-5.289-18.64-5.288,12.533,1.9,1.094,1.142-2.717,4.5,2.6Zm-4.955-8.271,1.563-3.721,1.564,5.526Z" transform="translate(-423.858 -89.09)" fill="#fafafa"/>
        </g>
      </g>
      <g id="Grupo_904250" data-name="Grupo 904250" transform="translate(296.412 107.429)">
        <g id="Grupo_904248" data-name="Grupo 904248" transform="translate(0 0)">
          <g id="Grupo_904243" data-name="Grupo 904243" transform="translate(0 10.84)">
            <path id="Trazado_675072" data-name="Trazado 675072" d="M419.68,156.885v-8.231l-6.948-.606a.505.505,0,0,0-.288.059c-.269.147-6.847,3.911-6.933,3.962a.51.51,0,0,0-.113.784l7.366,7.985Z" transform="translate(-405.261 -148.046)" fill="#27debf"/>
            <path id="Trazado_675073" data-name="Trazado 675073" d="M412.764,162.353l-7.366-7.985a.509.509,0,0,1,.418-.852l6.948.606Z" transform="translate(-405.261 -149.561)" fill="#ebebeb"/>
            <path id="Trazado_675074" data-name="Trazado 675074" d="M419.8,148.651l-6.914,3.959L405.935,152a.537.537,0,0,0-.24.035c.556-.327,6.615-3.794,6.867-3.929a.478.478,0,0,1,.292-.059Z" transform="translate(-405.382 -148.046)" fill="#27debf"/>
            <path id="Trazado_675075" data-name="Trazado 675075" d="M419.8,148.651l-6.914,3.959L405.935,152a.537.537,0,0,0-.24.035c.556-.327,6.615-3.794,6.867-3.929a.478.478,0,0,1,.292-.059Z" transform="translate(-405.382 -148.046)" fill="#f5f5f5"/>
          </g>
          <g id="Grupo_904247" data-name="Grupo 904247" transform="translate(7.516)">
            <g id="Grupo_904246" data-name="Grupo 904246">
              <g id="Grupo_904245" data-name="Grupo 904245">
                <g id="Grupo_904244" data-name="Grupo 904244">
                  <path id="Trazado_675076" data-name="Trazado 675076" d="M415.659,139.165a5.538,5.538,0,0,1,2.5-4.339l2.039-1.177a5.536,5.536,0,0,1,5.01,0L446.949,146.2a5.536,5.536,0,0,1,2.5,4.339V175.65a5.537,5.537,0,0,1-2.5,4.338l-2.04,1.178a5.535,5.535,0,0,1-5.009,0l-6.418-3.7-8.341-4.819-6.979-4.027a5.536,5.536,0,0,1-2.5-4.338Z" transform="translate(-415.658 -133.05)" fill="#ebebeb"/>
                  <path id="Trazado_675077" data-name="Trazado 675077" d="M458.911,181.407a5.536,5.536,0,0,1-2.5,4.338l-2.04,1.178a5.6,5.6,0,0,1-4.581.2c1.179.445,2.076-.22,2.076-1.648V160.366a5.12,5.12,0,0,0-.734-2.469l7.049-4.069a5.118,5.118,0,0,1,.734,2.469Z" transform="translate(-425.115 -138.808)" fill="#e0e0e0"/>
                  <path id="Trazado_675078" data-name="Trazado 675078" d="M415.772,138.454c.292-1.063,1.261-1.4,2.419-.736l21.742,12.555a4.973,4.973,0,0,1,1.765,1.869l7.046-4.066a5.052,5.052,0,0,0-1.764-1.869l-21.731-12.556a5.57,5.57,0,0,0-5.013,0l-2.044,1.18A5.523,5.523,0,0,0,415.772,138.454Z" transform="translate(-415.69 -133.052)" fill="#f5f5f5"/>
                </g>
              </g>
            </g>
          </g>
        </g>
        <g id="Grupo_904249" data-name="Grupo 904249" transform="translate(12.61 12.197)">
          <path id="Trazado_675079" data-name="Trazado 675079" d="M430.983,159.193l1.827-3.436,6.451,3.724-8.277,15.569-8.277-25.127,6.451,3.724Z" transform="translate(-422.705 -149.924)" fill="#27debf"/>
          <path id="Trazado_675080" data-name="Trazado 675080" d="M430.983,159.193l1.827-3.436,6.451,3.724-8.277,15.569-8.277-25.127,6.451,3.724Z" transform="translate(-422.705 -149.924)" opacity="0.15"/>
          <path id="Trazado_675081" data-name="Trazado 675081" d="M432.353,159.985l-1.827-5.546-2.876-1.66,4.7,14.275,4.7-8.845-2.876-1.66Z" transform="translate(-424.076 -150.715)" fill="#37474f"/>
        </g>
      </g>
      <g id="Grupo_904262" data-name="Grupo 904262" transform="translate(296.412 154.303)">
        <g id="Grupo_904256" data-name="Grupo 904256" transform="translate(0 0)">
          <g id="Grupo_904251" data-name="Grupo 904251" transform="translate(0 10.84)">
            <path id="Trazado_675082" data-name="Trazado 675082" d="M419.68,221.728V213.5l-6.948-.606a.506.506,0,0,0-.288.059c-.269.147-6.847,3.911-6.933,3.962a.51.51,0,0,0-.113.784l7.366,7.985Z" transform="translate(-405.261 -212.889)" fill="#27debf"/>
            <path id="Trazado_675083" data-name="Trazado 675083" d="M412.764,227.2l-7.366-7.985a.509.509,0,0,1,.418-.852l6.948.606Z" transform="translate(-405.261 -214.404)" fill="#37474f"/>
            <path id="Trazado_675084" data-name="Trazado 675084" d="M419.8,213.494l-6.914,3.958-6.949-.608a.537.537,0,0,0-.24.035c.556-.327,6.615-3.794,6.867-3.929a.478.478,0,0,1,.292-.059Z" transform="translate(-405.382 -212.889)" fill="#27debf"/>
            <path id="Trazado_675085" data-name="Trazado 675085" d="M419.8,213.494l-6.914,3.958-6.949-.608a.537.537,0,0,0-.24.035c.556-.327,6.615-3.794,6.867-3.929a.478.478,0,0,1,.292-.059Z" transform="translate(-405.382 -212.889)" fill="#455a64"/>
          </g>
          <g id="Grupo_904255" data-name="Grupo 904255" transform="translate(7.516)">
            <g id="Grupo_904254" data-name="Grupo 904254">
              <g id="Grupo_904253" data-name="Grupo 904253">
                <g id="Grupo_904252" data-name="Grupo 904252">
                  <path id="Trazado_675086" data-name="Trazado 675086" d="M415.659,204.008a5.538,5.538,0,0,1,2.5-4.339l2.039-1.177a5.536,5.536,0,0,1,5.01,0l21.737,12.551a5.536,5.536,0,0,1,2.5,4.339v25.111a5.536,5.536,0,0,1-2.5,4.338l-2.04,1.178a5.535,5.535,0,0,1-5.009,0l-6.418-3.7-8.341-4.819-6.979-4.027a5.535,5.535,0,0,1-2.5-4.338Z" transform="translate(-415.658 -197.893)" fill="#37474f"/>
                  <path id="Trazado_675087" data-name="Trazado 675087" d="M458.911,246.25a5.538,5.538,0,0,1-2.5,4.339l-2.04,1.177a5.6,5.6,0,0,1-4.581.2c1.179.445,2.076-.22,2.076-1.648V225.209a5.12,5.12,0,0,0-.734-2.469l7.049-4.069a5.12,5.12,0,0,1,.734,2.469Z" transform="translate(-425.115 -203.651)" fill="#263238"/>
                  <path id="Trazado_675088" data-name="Trazado 675088" d="M415.772,203.3c.292-1.063,1.261-1.4,2.419-.736l21.742,12.555a4.97,4.97,0,0,1,1.765,1.87l7.046-4.067a5.052,5.052,0,0,0-1.764-1.869L425.248,198.5a5.566,5.566,0,0,0-5.013,0l-2.044,1.18A5.523,5.523,0,0,0,415.772,203.3Z" transform="translate(-415.69 -197.895)" fill="#455a64"/>
                </g>
              </g>
            </g>
          </g>
        </g>
        <g id="Grupo_904261" data-name="Grupo 904261" transform="translate(12.519 14.25)">
          <g id="Grupo_904258" data-name="Grupo 904258">
            <path id="Trazado_675089" data-name="Trazado 675089" d="M435.79,228.651c.513-2.6.3-4.993-.727-6.351a2.411,2.411,0,0,0-1.963-1.042q-.09,0-.18.007a3.912,3.912,0,0,0-1.919.754c-1.467-2.73-2.9-4.412-3.927-4.412a.9.9,0,0,0-.147.012.945.945,0,0,0-.656.493c-.5.828-.523,2.625-.148,4.992a4.053,4.053,0,0,0-2.706.192,1.707,1.707,0,0,0-.839,1.577c0,1.569,1.382,3.724,3.527,5.778-.514,2.6-.3,4.994.726,6.352a2.75,2.75,0,0,0,.813.738,2.262,2.262,0,0,0,1.147.305,2.863,2.863,0,0,0,.767-.111,4.564,4.564,0,0,0,1.379-.694c1.166,2.18,2.324,3.742,3.259,4.282a1.418,1.418,0,0,0,.7.218.841.841,0,0,0,.149-.013.948.948,0,0,0,.656-.493c.5-.831.523-2.636.144-5.014a6.584,6.584,0,0,0,1.152.118,2.952,2.952,0,0,0,1.481-.331,1.708,1.708,0,0,0,.839-1.578C439.316,232.86,437.934,230.705,435.79,228.651Zm-2.48,4.188a14.391,14.391,0,0,1-.8,1.266c-.479-.231-.984-.493-1.519-.8s-1.045-.631-1.535-.963q-.423-1.089-.828-2.284-.4-1.174-.707-2.252c.2-.448.417-.9.664-1.342a14.828,14.828,0,0,1,.791-1.265c.482.231.986.491,1.525.8.562.325,1.1.664,1.614,1.015q.417,1.08.824,2.274.373,1.1.672,2.125C433.8,231.889,433.571,232.367,433.309,232.839Zm.709-3.694c-.162-.479-.328-.946-.5-1.4.485.367.941.74,1.367,1.115-.126.5-.283,1.012-.469,1.529C434.293,229.976,434.16,229.564,434.019,229.145Zm-3.025-4.077c-.367-.212-.727-.4-1.084-.584a9,9,0,0,1,1.029-1.086c.34.689.685,1.447,1.031,2.266C431.65,225.46,431.324,225.26,430.993,225.068Zm-3.073.638c-.132.237-.255.478-.374.72-.195-.755-.359-1.469-.49-2.13a13.1,13.1,0,0,1,1.413.5C428.282,225.082,428.1,225.386,427.92,225.706Zm.031,4.493c.164.485.334.959.507,1.428-.518-.389-1-.784-1.453-1.181a16.144,16.144,0,0,1,.5-1.624C427.648,229.275,427.794,229.734,427.951,230.2Zm2.951,4.034c.364.21.722.4,1.076.58a9.306,9.306,0,0,1-.981,1.05q-.492-1-.99-2.172Q430.449,233.97,430.9,234.234Zm3.072-.638c.147-.265.285-.533.417-.8.207.794.381,1.544.518,2.237a13.159,13.159,0,0,1-1.487-.516C433.612,234.221,433.8,233.918,433.974,233.6Zm-.982-7.241c-.489-1.232-.995-2.37-1.5-3.392a4.043,4.043,0,0,1,1.208-.605,2.31,2.31,0,0,1,.62-.089,1.581,1.581,0,0,1,1.317.651c.691.915.876,2.83.445,5.078A25.2,25.2,0,0,0,432.992,226.355Zm-4-2.306a14.662,14.662,0,0,0-2.117-.771c-.361-2.241-.317-3.781.042-4.382a.488.488,0,0,1,.325-.26.4.4,0,0,1,.067-.005.807.807,0,0,1,.391.128,10.338,10.338,0,0,1,2.754,3.695A9.958,9.958,0,0,0,428.989,224.049Zm-1.9,3.373a17.271,17.271,0,0,0-.8,2.372c-1.856-1.79-2.957-3.528-2.957-4.588a1.048,1.048,0,0,1,.551-.968,2.479,2.479,0,0,1,1.227-.258,6.284,6.284,0,0,1,1.183.131C426.5,225.137,426.766,226.25,427.094,227.422Zm1.893,5.585c.474,1.185.969,2.294,1.468,3.3a3.472,3.472,0,0,1-1.736.722,1.6,1.6,0,0,1-1.459-.647c-.692-.915-.876-2.831-.445-5.079A25.388,25.388,0,0,0,428.987,233.007Zm3.919,2.25a14.711,14.711,0,0,0,2.189.8c.364,2.249.32,3.8-.04,4.4a.488.488,0,0,1-.326.259c-.654.116-1.891-1.349-3.247-3.9A9.961,9.961,0,0,0,432.906,235.257Zm1.932-3.47a17.319,17.319,0,0,0,.759-2.28c1.856,1.791,2.957,3.528,2.957,4.587a1.048,1.048,0,0,1-.551.968,3.582,3.582,0,0,1-2.339.142C435.459,234.148,435.18,233,434.838,231.788Z" transform="translate(-422.579 -217.606)" fill="#27debf"/>
            <g id="Grupo_904257" data-name="Grupo 904257" transform="translate(6.899 9.909)">
              <path id="Trazado_675090" data-name="Trazado 675090" d="M435.061,234.3c0,1.081-.658,1.579-1.469,1.11a3.517,3.517,0,0,1-1.47-2.807c0-1.082.658-1.58,1.47-1.111A3.52,3.52,0,0,1,435.061,234.3Z" transform="translate(-432.123 -231.314)" fill="#27debf"/>
            </g>
          </g>
          <g id="Grupo_904260" data-name="Grupo 904260" opacity="0.65">
            <path id="Trazado_675091" data-name="Trazado 675091" d="M435.79,228.651c.513-2.6.3-4.993-.727-6.351a2.411,2.411,0,0,0-1.963-1.042q-.09,0-.18.007a3.912,3.912,0,0,0-1.919.754c-1.467-2.73-2.9-4.412-3.927-4.412a.9.9,0,0,0-.147.012.945.945,0,0,0-.656.493c-.5.828-.523,2.625-.148,4.992a4.053,4.053,0,0,0-2.706.192,1.707,1.707,0,0,0-.839,1.577c0,1.569,1.382,3.724,3.527,5.778-.514,2.6-.3,4.994.726,6.352a2.75,2.75,0,0,0,.813.738,2.262,2.262,0,0,0,1.147.305,2.863,2.863,0,0,0,.767-.111,4.564,4.564,0,0,0,1.379-.694c1.166,2.18,2.324,3.742,3.259,4.282a1.418,1.418,0,0,0,.7.218.841.841,0,0,0,.149-.013.948.948,0,0,0,.656-.493c.5-.831.523-2.636.144-5.014a6.584,6.584,0,0,0,1.152.118,2.952,2.952,0,0,0,1.481-.331,1.708,1.708,0,0,0,.839-1.578C439.316,232.86,437.934,230.705,435.79,228.651Zm-2.48,4.188a14.391,14.391,0,0,1-.8,1.266c-.479-.231-.984-.493-1.519-.8s-1.045-.631-1.535-.963q-.423-1.089-.828-2.284-.4-1.174-.707-2.252c.2-.448.417-.9.664-1.342a14.828,14.828,0,0,1,.791-1.265c.482.231.986.491,1.525.8.562.325,1.1.664,1.614,1.015q.417,1.08.824,2.274.373,1.1.672,2.125C433.8,231.889,433.571,232.367,433.309,232.839Zm.709-3.694c-.162-.479-.328-.946-.5-1.4.485.367.941.74,1.367,1.115-.126.5-.283,1.012-.469,1.529C434.293,229.976,434.16,229.564,434.019,229.145Zm-3.025-4.077c-.367-.212-.727-.4-1.084-.584a9,9,0,0,1,1.029-1.086c.34.689.685,1.447,1.031,2.266C431.65,225.46,431.324,225.26,430.993,225.068Zm-3.073.638c-.132.237-.255.478-.374.72-.195-.755-.359-1.469-.49-2.13a13.1,13.1,0,0,1,1.413.5C428.282,225.082,428.1,225.386,427.92,225.706Zm.031,4.493c.164.485.334.959.507,1.428-.518-.389-1-.784-1.453-1.181a16.144,16.144,0,0,1,.5-1.624C427.648,229.275,427.794,229.734,427.951,230.2Zm2.951,4.034c.364.21.722.4,1.076.58a9.306,9.306,0,0,1-.981,1.05q-.492-1-.99-2.172Q430.449,233.97,430.9,234.234Zm3.072-.638c.147-.265.285-.533.417-.8.207.794.381,1.544.518,2.237a13.159,13.159,0,0,1-1.487-.516C433.612,234.221,433.8,233.918,433.974,233.6Zm-.982-7.241c-.489-1.232-.995-2.37-1.5-3.392a4.043,4.043,0,0,1,1.208-.605,2.31,2.31,0,0,1,.62-.089,1.581,1.581,0,0,1,1.317.651c.691.915.876,2.83.445,5.078A25.2,25.2,0,0,0,432.992,226.355Zm-4-2.306a14.662,14.662,0,0,0-2.117-.771c-.361-2.241-.317-3.781.042-4.382a.488.488,0,0,1,.325-.26.4.4,0,0,1,.067-.005.807.807,0,0,1,.391.128,10.338,10.338,0,0,1,2.754,3.695A9.958,9.958,0,0,0,428.989,224.049Zm-1.9,3.373a17.271,17.271,0,0,0-.8,2.372c-1.856-1.79-2.957-3.528-2.957-4.588a1.048,1.048,0,0,1,.551-.968,2.479,2.479,0,0,1,1.227-.258,6.284,6.284,0,0,1,1.183.131C426.5,225.137,426.766,226.25,427.094,227.422Zm1.893,5.585c.474,1.185.969,2.294,1.468,3.3a3.472,3.472,0,0,1-1.736.722,1.6,1.6,0,0,1-1.459-.647c-.692-.915-.876-2.831-.445-5.079A25.388,25.388,0,0,0,428.987,233.007Zm3.919,2.25a14.711,14.711,0,0,0,2.189.8c.364,2.249.32,3.8-.04,4.4a.488.488,0,0,1-.326.259c-.654.116-1.891-1.349-3.247-3.9A9.961,9.961,0,0,0,432.906,235.257Zm1.932-3.47a17.319,17.319,0,0,0,.759-2.28c1.856,1.791,2.957,3.528,2.957,4.587a1.048,1.048,0,0,1-.551.968,3.582,3.582,0,0,1-2.339.142C435.459,234.148,435.18,233,434.838,231.788Z" transform="translate(-422.579 -217.606)" fill="#fff"/>
            <g id="Grupo_904259" data-name="Grupo 904259" transform="translate(6.899 9.909)">
              <path id="Trazado_675092" data-name="Trazado 675092" d="M435.061,234.3c0,1.081-.658,1.579-1.469,1.11a3.517,3.517,0,0,1-1.47-2.807c0-1.082.658-1.58,1.47-1.111A3.52,3.52,0,0,1,435.061,234.3Z" transform="translate(-432.123 -231.314)" fill="#fff"/>
            </g>
          </g>
        </g>
      </g>
      <g id="Character" transform="translate(243.96 187.628)">
        <g id="Grupo_904263" data-name="Grupo 904263" transform="translate(43.67 21.847)">
          <path id="Trazado_675093" data-name="Trazado 675093" d="M393.113,274.216c2.825.549,4.112,1.512,5.719,5.43s4.471,13.464,5.139,16.082c.3,1.173-7.127,11.67-6.808,11.515.1-.048-2.9-5.062-2.9-5.062l3.644-6.973-2.594-6.341Z" transform="translate(-393.113 -274.216)" fill="#ffa8a7"/>
        </g>
        <path id="Trazado_675094" data-name="Trazado 675094" d="M391.536,274.273a5.859,5.859,0,0,1,4.284.956c1.705,1.418,1.966,2.359,3.118,5.271s3.049,8.959,3.049,8.959-.545,3.256-5.844,3.9l-4.543-10.23S390.019,276.939,391.536,274.273Z" transform="translate(-348.824 -252.365)" fill="#27debf"/>
        <g id="Grupo_904270" data-name="Grupo 904270" transform="translate(19.303 45.808)">
          <path id="Trazado_675095" data-name="Trazado 675095" d="M384.4,390.406a6.079,6.079,0,0,0,.167,2.754,6.213,6.213,0,0,0,2.227,2.685,10.924,10.924,0,0,1,1.85,2.242,9.426,9.426,0,0,0,1.931,2.414,3.865,3.865,0,0,0,3.119.225c.818-.344,1.093-.652,1.042-1.96-.049-1.277-4.013-1.753-4.013-1.753Z" transform="translate(-366.309 -330.375)" fill="#455a64"/>
          <path id="Trazado_675096" data-name="Trazado 675096" d="M394.305,394.272c.338.128.424.772.475,2.052.039.969.446,2.388-.889,3a3.259,3.259,0,0,1-3.525-.748c-.908-1.14-1.522-2.143-2.818-3.534-1.124-1.207-2.294-1.613-2.793-4.026-.321-1.55-.069-2.193.974-2.637,1.435-.612,3.689,1.386,4.813,1.7C391.51,390.35,393.967,394.144,394.305,394.272Z" transform="translate(-366.394 -329.781)" fill="#27debf"/>
          <path id="Trazado_675097" data-name="Trazado 675097" d="M394.305,394.272c.338.128.424.772.475,2.052.039.969.446,2.388-.889,3a3.259,3.259,0,0,1-3.525-.748c-.908-1.14-1.522-2.143-2.818-3.534-1.124-1.207-2.294-1.613-2.793-4.026-.321-1.55-.069-2.193.974-2.637,1.435-.612,3.689,1.386,4.813,1.7C391.51,390.35,393.967,394.144,394.305,394.272Z" transform="translate(-366.394 -329.781)" opacity="0.2"/>
          <path id="Trazado_675098" data-name="Trazado 675098" d="M391.533,390.749c-.06-.017-.124-.04-.191-.066a3.7,3.7,0,0,0-3.106,2.037c-.192.422.4.75.749.422a3.948,3.948,0,0,1,3.1-2.025A1.645,1.645,0,0,0,391.533,390.749Z" transform="translate(-367.384 -330.452)" fill="#fafafa"/>
          <path id="Trazado_675099" data-name="Trazado 675099" d="M392.974,391.785a3.671,3.671,0,0,0-2.886,2.02c-.191.422.4.75.75.422a3.781,3.781,0,0,1,2.589-1.933C393.271,392.112,393.12,391.939,392.974,391.785Z" transform="translate(-367.898 -330.757)" fill="#fafafa"/>
          <g id="Grupo_904266" data-name="Grupo 904266" transform="translate(0 72.846)">
            <path id="Trazado_675100" data-name="Trazado 675100" d="M359.462,417.243c-.22,1.086.173,1.652,1.574,2.461a7.809,7.809,0,0,0,5.912.413c2.313-.673,3.418-1.682,4.379-1.922s3.339-.262,4.288-.539.935-.766.93-1.907Z" transform="translate(-359.405 -410.244)" fill="#455a64"/>
            <g id="Grupo_904264" data-name="Grupo 904264" transform="translate(0.102)">
              <path id="Trazado_675101" data-name="Trazado 675101" d="M375.655,408.134s.451,1.368.695,2.563a6.929,6.929,0,0,1,.137,3.254c-.333.716-1.631,1.177-3.644,1.162a11.812,11.812,0,0,0-4.727,1.652,7.237,7.237,0,0,1-4.516.626c-1.791-.21-3.647-1.249-3.936-1.991s-.365-1.3,3.856-3.1c.039-.017,4.9-1.809,6.941-4.063Z" transform="translate(-359.547 -408.134)" fill="#27debf"/>
            </g>
            <g id="Grupo_904265" data-name="Grupo 904265" transform="translate(0.102)" opacity="0.2">
              <path id="Trazado_675102" data-name="Trazado 675102" d="M375.655,408.134s.451,1.368.695,2.563a6.929,6.929,0,0,1,.137,3.254c-.333.716-1.631,1.177-3.644,1.162a11.812,11.812,0,0,0-4.727,1.652,7.237,7.237,0,0,1-4.516.626c-1.791-.21-3.647-1.249-3.936-1.991s-.365-1.3,3.856-3.1c.039-.017,4.9-1.809,6.941-4.063Z" transform="translate(-359.547 -408.134)"/>
            </g>
            <path id="Trazado_675103" data-name="Trazado 675103" d="M367.514,418.578s-.361-3.625-3.308-4.661c-2.663-.937-4.989,1.037-4.73,2.752C359.651,417.823,362.893,420.443,367.514,418.578Z" transform="translate(-359.419 -409.669)" fill="#fafafa"/>
            <path id="Trazado_675104" data-name="Trazado 675104" d="M367.058,412.876a3.433,3.433,0,0,1,2.011.893c.849.715.874,1.19.874,1.19a.446.446,0,0,0,.768-.367,2.767,2.767,0,0,0-2.6-2.2A.981.981,0,0,0,367.058,412.876Z" transform="translate(-361.526 -409.308)" fill="#fafafa"/>
            <path id="Trazado_675105" data-name="Trazado 675105" d="M369.389,411.76a3.015,3.015,0,0,1,2.03.807c.85.715.855,1.277.855,1.277a.447.447,0,0,0,.768-.368,2.769,2.769,0,0,0-2.6-2.2A.981.981,0,0,0,369.389,411.76Z" transform="translate(-362.172 -408.999)" fill="#fafafa"/>
            <path id="Trazado_675106" data-name="Trazado 675106" d="M371.7,410.417a3.013,3.013,0,0,1,2.081.667c.9.655.94,1.214.94,1.214a.447.447,0,0,0,.742-.419,2.768,2.768,0,0,0-2.748-2.019A.981.981,0,0,0,371.7,410.417Z" transform="translate(-362.812 -408.61)" fill="#fafafa"/>
          </g>
          <g id="Grupo_904267" data-name="Grupo 904267" transform="translate(23.67 62.419)">
            <path id="Trazado_675107" data-name="Trazado 675107" d="M396.39,393.709v2.459a3.849,3.849,0,0,1-3.973.107c-.069-.152-.268-2.566-.268-2.566Z" transform="translate(-392.149 -393.709)" fill="#ffa8a7"/>
          </g>
          <g id="Grupo_904268" data-name="Grupo 904268" transform="translate(11.014 71.147)">
            <path id="Trazado_675108" data-name="Trazado 675108" d="M379.838,405.783s-.006,1.167,0,1.834-.781,1.66-2.82,1.587c-1.432-.051-2.432-.436-2.375-1.616v-1.7Z" transform="translate(-374.641 -405.783)" fill="#ffa8a7"/>
          </g>
          <g id="Grupo_904269" data-name="Grupo 904269" transform="translate(7.543)">
            <path id="Trazado_675109" data-name="Trazado 675109" d="M392.859,348.917c-.132-5.186-1.2-7.462-1.2-7.462s.4-6.405,1.259-14.249c1.312-11.94.708-14.254-1.647-19.626,0,0-20.1-2.037-20.711,6.315-.763,10.4-.854,31.56-.578,35.234s.273.279,1.165,7.718c.706,5.883,2.166,21.767,2.166,21.767a5.512,5.512,0,0,0,5.195-.106s1.644-19.437,1.471-23.677a47.9,47.9,0,0,0-.5-6.5s2.35-16.76,2.714-19.459c0,0,.327,4.83.6,8.5s.253,6.635,1.027,14.235c.607,5.962,2.078,18.833,2.078,18.833a4.935,4.935,0,0,0,4.383-.323S392.967,353.113,392.859,348.917Z" transform="translate(-369.84 -307.362)" fill="#455a64"/>
          </g>
          <path id="Trazado_675110" data-name="Trazado 675110" d="M385.349,392.717s.113-2.871,3.992-3.27l.223.127a3.347,3.347,0,0,0-1.908-1.474,2.641,2.641,0,0,0-2.986.858C383.992,389.83,384.678,392.157,385.349,392.717Z" transform="translate(-366.329 -329.698)" fill="#fafafa"/>
        </g>
        <g id="Grupo_904272" data-name="Grupo 904272" transform="translate(33.376 17.673)">
          <g id="Grupo_904271" data-name="Grupo 904271">
            <path id="Trazado_675111" data-name="Trazado 675111" d="M378.873,269.912l.944,7.766,6.828-.617-.78-8.62Z" transform="translate(-378.873 -268.441)" fill="#ffa8a7"/>
          </g>
        </g>
        <g id="Grupo_904274" data-name="Grupo 904274" transform="translate(26.804 21.839)">
          <g id="Grupo_904273" data-name="Grupo 904273">
            <path id="Trazado_675112" data-name="Trazado 675112" d="M390.784,277.969c-.75-2.043-2.469-4.183-5.095-3.7-.684.127-1.285.227-1.929.356-.059,1.789-3.43,2.715-6.791,1.63q-1.516.434-2.775.884c-2.4.858-3.369,4.851-3.422,11.529s-.992,20.087-.992,20.087,5.052,2.683,14.51.969,9.292-4.929,9.292-4.929-.189-3.917-4.452-10.5C392.752,284.676,391.9,281,390.784,277.969Z" transform="translate(-369.781 -274.204)" fill="#37474f"/>
          </g>
        </g>
        <g id="Grupo_904279" data-name="Grupo 904279" transform="translate(26.803)">
          <g id="Grupo_904275" data-name="Grupo 904275" transform="translate(0.992)">
            <path id="Trazado_675113" data-name="Trazado 675113" d="M371.66,253.271a5.991,5.991,0,0,1,.515-5.773c2.292-3.6,6.711-4.213,11.947-2.808a9.29,9.29,0,0,1,6.551,8.432c.251,3.84-10.459,6.673-10.214,9.3Z" transform="translate(-371.153 -243.993)" fill="#263238"/>
          </g>
          <g id="Grupo_904276" data-name="Grupo 904276" transform="translate(0 10.737)">
            <path id="Trazado_675114" data-name="Trazado 675114" d="M371.049,258.846s-1.453,2.331-1.248,2.567a3.614,3.614,0,0,0,1.174.469Z" transform="translate(-369.781 -258.846)" fill="#f28f8f"/>
          </g>
          <g id="Grupo_904277" data-name="Grupo 904277" transform="translate(1.114 2.666)">
            <path id="Trazado_675115" data-name="Trazado 675115" d="M375.908,248.372c-1.451.8-3.958,2.274-4.467,7.715-.521,5.586.77,7.488,1.549,8.2.526.478,3.174.586,4.541.121,1.712-.582,5.4-2.53,7.075-5.451,1.971-3.437,2.275-7.954-.153-9.656A8.892,8.892,0,0,0,375.908,248.372Z" transform="translate(-371.321 -247.681)" fill="#ffa8a7"/>
          </g>
          <path id="Trazado_675116" data-name="Trazado 675116" d="M376.39,254.086a5.534,5.534,0,0,1-3.544-4.463c-.549-3.544,3.878-5.045,3.878-5.045Z" transform="translate(-370.617 -244.155)" fill="#263238"/>
          <g id="Grupo_904278" data-name="Grupo 904278" transform="translate(4.88 1.423)">
            <path id="Trazado_675117" data-name="Trazado 675117" d="M376.924,248.139s-1.146,5.114.478,8.283c0,0,.846-2.007,2.566-1.483s1.635,2.817.317,4.022a2.556,2.556,0,0,1-2.644.636,11.471,11.471,0,0,0,2.555,3.857s5.089,2.269,9.5-2.706c4-4.513,3.256-12.386-2.869-14.242A10.43,10.43,0,0,0,376.924,248.139Z" transform="translate(-376.531 -245.962)" fill="#263238"/>
          </g>
          <path id="Trazado_675118" data-name="Trazado 675118" d="M403.581,269.566h0a6.951,6.951,0,0,1-6.951-6.95V250.979h0a6.95,6.95,0,0,1,6.951,6.95Z" transform="translate(-377.221 -245.929)" fill="#263238"/>
          <path id="Trazado_675119" data-name="Trazado 675119" d="M397.384,248.869a1.2,1.2,0,0,0-.776,1.509l2.285-.734A1.2,1.2,0,0,0,397.384,248.869Z" transform="translate(-377.199 -245.328)" fill="#263238"/>
        </g>
        <g id="Grupo_904283" data-name="Grupo 904283" transform="translate(0 24.255)">
          <g id="Grupo_904280" data-name="Grupo 904280" transform="translate(7.672 4.603)">
            <path id="Trazado_675120" data-name="Trazado 675120" d="M349.58,292.137c-.991-1.132-1.155-3.632-2.476-5.354-1.29-1.68-1.08-3.455-1.909-2.683-.885.826-.209,3.593-.209,3.593a16.772,16.772,0,0,0-1.668,4.313c-.13,1.46,3.734,5.127,3.734,5.127Z" transform="translate(-343.315 -283.915)" fill="#ffa8a7"/>
          </g>
          <g id="Grupo_904281" data-name="Grupo 904281" transform="translate(0 7.419)">
            <path id="Trazado_675121" data-name="Trazado 675121" d="M342.254,288.577s-1.564,2.187-8.611-.669c-1.947-.789-.633,3.4,1.754,5.129,2.209,1.6,4.975,2.1,7.186,3.6C342.588,296.422,342.254,288.577,342.254,288.577Z" transform="translate(-332.702 -287.81)" fill="#ffa8a7"/>
          </g>
          <g id="Grupo_904282" data-name="Grupo 904282" transform="translate(10.699 0.318)">
            <path id="Trazado_675122" data-name="Trazado 675122" d="M368.618,277.987c-2.007.7-3.764,1.507-5.638,5.028-2.407,4.524-6.784,13.386-6.784,13.386l-5.456-5.906s-.794-1.118-2.271,1.321-.824,3.115-.824,3.115,6.347,8.5,7.512,9.583,3.079.241,4.327-1.461,7.707-13.4,7.707-13.4S371.455,282.264,368.618,277.987Z" transform="translate(-347.503 -277.987)" fill="#ffa8a7"/>
          </g>
          <path id="Trazado_675123" data-name="Trazado 675123" d="M373.826,277.547a7.679,7.679,0,0,0-6.118,4.068c-2.4,4.341-4.926,9.238-4.926,9.238s1.739,4.195,6.173,4.515c.008-.432,3.631-6.865,4.994-9.621S375.181,278.786,373.826,277.547Z" transform="translate(-341.037 -277.547)" fill="#27debf"/>
        </g>
        <path id="Trazado_675124" data-name="Trazado 675124" d="M386.922,334.68l.38-4.062a15.343,15.343,0,0,0,6.131-2.32,8.32,8.32,0,0,1-4.888,3.045l-.809,3.957-.211,7.884Z" transform="translate(-347.727 -267.356)" fill="#37474f"/>
      </g>
    </g>
  </g>
</svg>
