<svg xmlns="http://www.w3.org/2000/svg" width="418.054" height="478.25" viewBox="0 0 418.054 478.25">
  <g id="Grupo_904446" data-name="Grupo 904446" transform="translate(-181.946 -2051.5)">
    <g id="Grupo_904337" data-name="Grupo 904337" transform="translate(114.29 2006.5)">
      <g id="Grupo_904289" data-name="Grupo 904289" transform="translate(327.617 45)">
        <path id="Trazado_675125" data-name="Trazado 675125" d="M421.433,134.053l-3.837,2.222L263.34,47.213,267.2,45Z" transform="translate(-263.34 -45)" fill="#86c3c2"/>
        <path id="Trazado_675126" data-name="Trazado 675126" d="M383.293,125.726l-3.837,2.219V114.257l3.837-2.222Z" transform="translate(-225.199 -22.981)" fill="#395d60"/>
        <path id="Trazado_675127" data-name="Trazado 675127" d="M383.293,241.7l-3.837,2.225V124.56l3.837-2.219Z" transform="translate(-225.199 -19.596)" fill="#c8c8c8"/>
        <path id="Trazado_675128" data-name="Trazado 675128" d="M417.6,135.728,263.34,46.666V60.354L417.6,149.417Z" transform="translate(-263.34 -44.453)" fill="#35908f"/>
        <path id="Trazado_675129" data-name="Trazado 675129" d="M263.34,176.336,417.6,265.4V146.032L263.34,56.969Z" transform="translate(-263.34 -41.068)" fill="#f1f1f1"/>
        <path id="Trazado_675130" data-name="Trazado 675130" d="M269.441,67.271V169.55l138.053,79.76V147.022Z" transform="translate(-261.336 -37.685)" fill="#211a1a"/>
        <g id="Grupo_904288" data-name="Grupo 904288" transform="translate(14.994 43.495)">
          <path id="Trazado_675131" data-name="Trazado 675131" d="M299.76,95.873,274.627,81.357V77.741L299.76,92.257Z" transform="translate(-274.627 -77.741)" fill="#f1f1f1"/>
          <path id="Trazado_675132" data-name="Trazado 675132" d="M291.534,97.651l-16.907-9.761V84.272l16.907,9.762Z" transform="translate(-274.627 -75.595)" fill="#86c3c2"/>
          <path id="Trazado_675133" data-name="Trazado 675133" d="M283.08,99.3l-8.453-4.882V90.8l8.453,4.883Z" transform="translate(-274.627 -73.45)" fill="#aca69f"/>
          <path id="Trazado_675134" data-name="Trazado 675134" d="M327.846,125.14,282.674,99.07V95.453l45.172,26.074Z" transform="translate(-271.983 -71.923)" fill="#86c3c2"/>
          <path id="Trazado_675135" data-name="Trazado 675135" d="M309.609,128,277.34,109.364v-3.617l32.269,18.632Z" transform="translate(-273.736 -68.542)" fill="#f1f1f1"/>
          <path id="Trazado_675136" data-name="Trazado 675136" d="M298.986,128.394l-13.995-8.082v-3.617l13.995,8.082Z" transform="translate(-271.223 -64.946)" fill="#f1f1f1"/>
          <path id="Trazado_675137" data-name="Trazado 675137" d="M306.448,146.075,280.99,131.382v-3.617l25.458,14.694Z" transform="translate(-272.537 -61.309)" fill="#f1f1f1"/>
          <path id="Trazado_675138" data-name="Trazado 675138" d="M315.269,157.7,280.99,137.913V134.3l34.279,19.788Z" transform="translate(-272.537 -59.164)" fill="#f1f1f1"/>
          <path id="Trazado_675139" data-name="Trazado 675139" d="M288.309,148.674l-7.319-4.23v-3.617l7.319,4.227Z" transform="translate(-272.537 -57.019)" fill="#86c3c2"/>
          <path id="Trazado_675140" data-name="Trazado 675140" d="M329.531,172.466,290.255,149.8v-3.616l39.275,22.672Z" transform="translate(-269.493 -55.26)" fill="#f1f1f1"/>
          <path id="Trazado_675141" data-name="Trazado 675141" d="M325.267,163.477l-16.619-9.6v-3.617l16.619,9.6Z" transform="translate(-263.452 -53.919)" fill="#86c3c2"/>
          <path id="Trazado_675142" data-name="Trazado 675142" d="M331.549,167.1l-7.129-4.11v-3.617l7.129,4.113Z" transform="translate(-258.271 -50.927)" fill="#aca69f"/>
          <path id="Trazado_675143" data-name="Trazado 675143" d="M330.007,172.743l-7.123-4.11v-3.62l7.123,4.113Z" transform="translate(-258.776 -49.074)" fill="#aca69f"/>
          <path id="Trazado_675144" data-name="Trazado 675144" d="M340.241,172.12l-7.117-4.11-.006-3.617,7.123,4.113Z" transform="translate(-255.414 -49.278)" fill="#aca69f"/>
          <path id="Trazado_675145" data-name="Trazado 675145" d="M376.972,189.713,341.387,169.16v3.617l35.585,20.554Z" transform="translate(-252.698 -47.712)" fill="#86c3c2"/>
          <path id="Trazado_675146" data-name="Trazado 675146" d="M358.528,185.593l-27.26-15.739v3.617l27.26,15.745Z" transform="translate(-256.022 -47.484)" fill="#f6993b"/>
          <path id="Trazado_675147" data-name="Trazado 675147" d="M314.752,150.871l-12.573-7.261V140l12.573,7.255Z" transform="translate(-265.577 -57.291)" fill="#aca69f"/>
          <path id="Trazado_675148" data-name="Trazado 675148" d="M335.8,163.029l-20.72-11.965v-3.617l20.72,11.966Z" transform="translate(-261.337 -54.844)" fill="#86c3c2"/>
          <path id="Trazado_675149" data-name="Trazado 675149" d="M390.963,181.5l-92.171-53.214v-3.623l92.171,53.221Z" transform="translate(-266.689 -62.328)" fill="#f6993b"/>
          <path id="Trazado_675150" data-name="Trazado 675150" d="M283.4,119.4l-6.057-3.509v-3.608l6.057,3.5Z" transform="translate(-273.736 -66.396)" fill="#aca69f"/>
          <path id="Trazado_675151" data-name="Trazado 675151" d="M276.369,102.032l-1.594-.913V97.5l1.594.923Z" transform="translate(-274.578 -71.25)" fill="#aca69f"/>
          <path id="Trazado_675152" data-name="Trazado 675152" d="M279.564,124.027l-1.587-.917v-3.617l1.587.917Z" transform="translate(-273.526 -64.026)" fill="#aca69f"/>
          <path id="Trazado_675153" data-name="Trazado 675153" d="M308.13,127.145l-5.406-3.126.006-3.614,5.4,3.12Z" transform="translate(-265.398 -63.727)" fill="#aca69f"/>
          <path id="Trazado_675154" data-name="Trazado 675154" d="M291.036,97.36l-2-1.146v-3.62l2,1.149Z" transform="translate(-269.893 -72.862)" fill="#aca69f"/>
          <path id="Trazado_675155" data-name="Trazado 675155" d="M296.538,100.538l-4.1-2.363V94.556l4.1,2.369Z" transform="translate(-268.775 -72.218)" fill="#aca69f"/>
          <path id="Trazado_675156" data-name="Trazado 675156" d="M302.065,97.2l-7.73-4.462V89.122l7.73,4.456Z" transform="translate(-268.153 -74.002)" fill="#aca69f"/>
        </g>
      </g>
      <g id="Grupo_904291" data-name="Grupo 904291" transform="translate(321.469 197.401)">
        <path id="Trazado_675157" data-name="Trazado 675157" d="M399.346,238.7,395.5,240.92,258.712,161.932l3.85-2.213Z" transform="translate(-258.712 -159.719)" fill="#86c3c2"/>
        <path id="Trazado_675158" data-name="Trazado 675158" d="M365.524,232.858l-3.843,2.222V221.392l3.843-2.222Z" transform="translate(-224.89 -140.191)" fill="#395d60"/>
        <path id="Trazado_675159" data-name="Trazado 675159" d="M365.524,321.233l-3.843,2.222V231.7l3.843-2.222Z" transform="translate(-224.89 -136.806)" fill="#c8c8c8"/>
        <path id="Trazado_675160" data-name="Trazado 675160" d="M395.5,240.373,258.712,161.384v13.695L395.5,254.061Z" transform="translate(-258.712 -159.172)" fill="#35908f"/>
        <path id="Trazado_675161" data-name="Trazado 675161" d="M258.712,263.456,395.5,342.435v-91.76L258.712,171.693Z" transform="translate(-258.712 -155.786)" fill="#f1f1f1"/>
        <path id="Trazado_675162" data-name="Trazado 675162" d="M264.808,181.992v74.678l120.608,69.68V251.672Z" transform="translate(-256.71 -152.403)" fill="#211a1a"/>
        <g id="Grupo_904290" data-name="Grupo 904290" transform="translate(15.331 38.843)">
          <path id="Trazado_675163" data-name="Trazado 675163" d="M276.609,196.249l-6.357-3.672v-3.619l6.357,3.672Z" transform="translate(-270.252 -188.958)" fill="#aca69f"/>
          <path id="Trazado_675164" data-name="Trazado 675164" d="M296.81,207.914l-18.427-10.645v-3.617l18.427,10.642Z" transform="translate(-267.582 -187.416)" fill="#f1f1f1"/>
          <path id="Trazado_675165" data-name="Trazado 675165" d="M291.751,218.054l-18.439-10.645v-3.617l18.439,10.642Z" transform="translate(-269.247 -184.085)" fill="#f1f1f1"/>
          <path id="Trazado_675166" data-name="Trazado 675166" d="M280.049,217.828l-6.737-3.887v-3.617l6.737,3.89Z" transform="translate(-269.247 -181.939)" fill="#86c3c2"/>
          <path id="Trazado_675167" data-name="Trazado 675167" d="M300.255,229.5l-17.207-9.937v-3.617l17.207,9.937Z" transform="translate(-266.049 -180.093)" fill="#86c3c2"/>
          <path id="Trazado_675168" data-name="Trazado 675168" d="M309.456,234.8l-6.437-3.709v-3.617l6.437,3.715Z" transform="translate(-259.49 -176.306)" fill="#86c3c2"/>
          <path id="Trazado_675169" data-name="Trazado 675169" d="M301.114,229.993l-3.212-1.857v-3.614l3.212,1.849Z" transform="translate(-261.17 -177.276)" fill="#aca69f"/>
          <path id="Trazado_675170" data-name="Trazado 675170" d="M282.8,219.413l-3.206-1.852-.006-3.619L282.8,215.8Z" transform="translate(-267.188 -180.751)" fill="#aca69f"/>
          <path id="Trazado_675171" data-name="Trazado 675171" d="M280.049,224.359l-6.737-3.887v-3.616l6.737,3.889Z" transform="translate(-269.247 -179.794)" fill="#86c3c2"/>
          <path id="Trazado_675172" data-name="Trazado 675172" d="M277.6,229.479,273.312,227v-3.611l4.291,2.47Z" transform="translate(-269.247 -177.647)" fill="#86c3c2"/>
          <path id="Trazado_675173" data-name="Trazado 675173" d="M307.611,246.808,281.65,231.817V228.2l25.961,14.991Z" transform="translate(-266.509 -176.068)" fill="#f1f1f1"/>
          <path id="Trazado_675174" data-name="Trazado 675174" d="M294.865,246.29l-21.589-12.466v-3.611l21.584,12.459Z" transform="translate(-269.26 -175.406)" fill="#f1f1f1"/>
          <path id="Trazado_675175" data-name="Trazado 675175" d="M305.229,252.283l-13.615-7.865-.006-3.622,13.621,7.865Z" transform="translate(-263.238 -171.931)" fill="#86c3c2"/>
          <path id="Trazado_675176" data-name="Trazado 675176" d="M350.023,278.146l-16.655-9.627V264.9l16.655,9.615Z" transform="translate(-249.521 -164.011)" fill="#86c3c2"/>
          <path id="Trazado_675177" data-name="Trazado 675177" d="M310.046,255.055l-5.579-3.221v-3.607l5.579,3.212Z" transform="translate(-259.014 -169.49)" fill="#aca69f"/>
          <path id="Trazado_675178" data-name="Trazado 675178" d="M335.409,269.7l-21.529-12.425v-3.616l21.529,12.425Z" transform="translate(-255.922 -167.706)" fill="#f6993b"/>
          <path id="Trazado_675179" data-name="Trazado 675179" d="M328.979,259.145l-25.96-14.988v-3.616l25.96,14.99Z" transform="translate(-259.49 -172.014)" fill="#86c3c2"/>
          <path id="Trazado_675180" data-name="Trazado 675180" d="M300.255,236.029l-17.207-9.937v-3.617l17.207,9.943Z" transform="translate(-266.049 -177.948)" fill="#86c3c2"/>
          <path id="Trazado_675181" data-name="Trazado 675181" d="M309.456,241.338l-6.437-3.715v-3.614l6.437,3.712Z" transform="translate(-259.49 -174.16)" fill="#86c3c2"/>
          <path id="Trazado_675182" data-name="Trazado 675182" d="M301.114,236.528,297.9,234.67v-3.616l3.212,1.857Z" transform="translate(-261.17 -175.13)" fill="#aca69f"/>
          <path id="Trazado_675183" data-name="Trazado 675183" d="M282.8,225.946l-3.206-1.857-.006-3.611,3.212,1.851Z" transform="translate(-267.188 -178.604)" fill="#aca69f"/>
          <path id="Trazado_675184" data-name="Trazado 675184" d="M281.047,231.471l-3.218-1.857V226l3.218,1.855Z" transform="translate(-267.764 -176.791)" fill="#aca69f"/>
          <path id="Trazado_675185" data-name="Trazado 675185" d="M307.753,227.292l-18.439-10.645V213.03l18.439,10.645Z" transform="translate(-263.991 -181.05)" fill="#86c3c2"/>
          <path id="Trazado_675186" data-name="Trazado 675186" d="M318.862,233.709l-11.672-6.746v-3.617l11.672,6.746Z" transform="translate(-258.119 -177.662)" fill="#86c3c2"/>
          <path id="Trazado_675187" data-name="Trazado 675187" d="M335.707,243.433l-17.58-10.158v-3.611l17.58,10.151Z" transform="translate(-254.527 -175.586)" fill="#86c3c2"/>
          <path id="Trazado_675188" data-name="Trazado 675188" d="M346.2,249.494l-10.433-6.026v-3.616l10.433,6.025Z" transform="translate(-248.733 -172.241)" fill="#86c3c2"/>
          <path id="Trazado_675189" data-name="Trazado 675189" d="M314.675,218.229l-18.42-10.645v-3.617l18.42,10.642Z" transform="translate(-261.711 -184.027)" fill="#86c3c2"/>
          <path id="Trazado_675190" data-name="Trazado 675190" d="M271.841,200.017l-1.588-.923v-3.607l1.588.91Z" transform="translate(-270.252 -186.813)" fill="#aca69f"/>
          <path id="Trazado_675191" data-name="Trazado 675191" d="M271.841,239.622l-1.588-.917v-3.614l1.588.92Z" transform="translate(-270.252 -173.804)" fill="#aca69f"/>
        </g>
      </g>
      <g id="Grupo_904293" data-name="Grupo 904293" transform="translate(67.656 135.267)">
        <path id="Trazado_675192" data-name="Trazado 675192" d="M208.3,191.93l-3.838,2.219-136.8-78.988,3.85-2.213Z" transform="translate(-67.656 -112.948)" fill="#86c3c2"/>
        <path id="Trazado_675193" data-name="Trazado 675193" d="M174.472,186.089l-3.838,2.222V174.62l3.838-2.219Z" transform="translate(-33.831 -93.419)" fill="#395d60"/>
        <path id="Trazado_675194" data-name="Trazado 675194" d="M174.472,274.465l-3.838,2.222v-91.76l3.838-2.222Z" transform="translate(-33.831 -90.035)" fill="#c8c8c8"/>
        <path id="Trazado_675195" data-name="Trazado 675195" d="M204.459,193.6l-136.8-78.988v13.7l136.8,78.982Z" transform="translate(-67.656 -112.401)" fill="#35908f"/>
        <path id="Trazado_675196" data-name="Trazado 675196" d="M67.656,216.685l136.8,78.982v-91.76l-136.8-78.982Z" transform="translate(-67.656 -109.014)" fill="#f1f1f1"/>
        <path id="Trazado_675197" data-name="Trazado 675197" d="M73.761,135.224v74.67l120.6,69.683V204.9Z" transform="translate(-65.651 -105.631)" fill="#211a1a"/>
        <g id="Grupo_904292" data-name="Grupo 904292" transform="translate(15.343 38.846)">
          <path id="Trazado_675198" data-name="Trazado 675198" d="M85.556,149.48l-6.351-3.671v-3.62l6.351,3.672Z" transform="translate(-79.206 -142.189)" fill="#aca69f"/>
          <path id="Trazado_675199" data-name="Trazado 675199" d="M105.758,161.14,87.331,150.5v-3.616l18.427,10.642Z" transform="translate(-76.537 -140.647)" fill="#f1f1f1"/>
          <path id="Trazado_675200" data-name="Trazado 675200" d="M100.685,171.276l-18.42-10.636v-3.616l18.42,10.639Z" transform="translate(-78.201 -137.316)" fill="#f1f1f1"/>
          <path id="Trazado_675201" data-name="Trazado 675201" d="M89,171.059l-6.73-3.886v-3.617L89,167.442Z" transform="translate(-78.201 -135.171)" fill="#86c3c2"/>
          <path id="Trazado_675202" data-name="Trazado 675202" d="M109.211,182.729l-17.219-9.937v-3.616l17.219,9.937Z" transform="translate(-75.006 -133.324)" fill="#86c3c2"/>
          <path id="Trazado_675203" data-name="Trazado 675203" d="M118.393,188.033l-6.43-3.709v-3.617l6.43,3.715Z" transform="translate(-68.446 -129.537)" fill="#86c3c2"/>
          <path id="Trazado_675204" data-name="Trazado 675204" d="M110.057,183.219l-3.212-1.851v-3.614l3.212,1.848Z" transform="translate(-70.127 -130.507)" fill="#aca69f"/>
          <path id="Trazado_675205" data-name="Trazado 675205" d="M91.739,172.644l-3.206-1.854-.006-3.617,3.212,1.857Z" transform="translate(-76.144 -133.982)" fill="#aca69f"/>
          <path id="Trazado_675206" data-name="Trazado 675206" d="M89,177.59l-6.73-3.886v-3.617L89,173.974Z" transform="translate(-78.201 -133.025)" fill="#86c3c2"/>
          <path id="Trazado_675207" data-name="Trazado 675207" d="M86.544,182.712l-4.278-2.476v-3.617l4.278,2.477Z" transform="translate(-78.201 -130.88)" fill="#86c3c2"/>
          <path id="Trazado_675208" data-name="Trazado 675208" d="M116.561,200.033,90.594,185.048v-3.617l25.966,14.991Z" transform="translate(-75.465 -129.299)" fill="#f1f1f1"/>
          <path id="Trazado_675209" data-name="Trazado 675209" d="M103.808,199.522,82.224,187.056v-3.611L103.808,195.9Z" transform="translate(-78.214 -128.637)" fill="#f1f1f1"/>
          <path id="Trazado_675210" data-name="Trazado 675210" d="M114.185,205.508l-13.627-7.868-.006-3.614,13.633,7.865Z" transform="translate(-72.194 -125.162)" fill="#86c3c2"/>
          <path id="Trazado_675211" data-name="Trazado 675211" d="M158.973,231.368l-16.661-9.618v-3.614l16.661,9.615Z" transform="translate(-58.477 -117.242)" fill="#86c3c2"/>
          <path id="Trazado_675212" data-name="Trazado 675212" d="M118.987,208.288l-5.566-3.221v-3.614l5.566,3.218Z" transform="translate(-67.967 -122.722)" fill="#aca69f"/>
          <path id="Trazado_675213" data-name="Trazado 675213" d="M144.353,222.929,122.825,210.5v-3.614l21.528,12.425Z" transform="translate(-64.878 -120.938)" fill="#f6993b"/>
          <path id="Trazado_675214" data-name="Trazado 675214" d="M137.924,212.377l-25.961-14.988v-3.617l25.961,14.991Z" transform="translate(-68.446 -125.245)" fill="#86c3c2"/>
          <path id="Trazado_675215" data-name="Trazado 675215" d="M109.211,189.261l-17.219-9.937v-3.616l17.219,9.937Z" transform="translate(-75.006 -131.179)" fill="#86c3c2"/>
          <path id="Trazado_675216" data-name="Trazado 675216" d="M118.393,194.564l-6.43-3.708v-3.617l6.43,3.709Z" transform="translate(-68.446 -127.391)" fill="#86c3c2"/>
          <path id="Trazado_675217" data-name="Trazado 675217" d="M110.057,189.76l-3.212-1.857v-3.617l3.212,1.854Z" transform="translate(-70.127 -128.361)" fill="#aca69f"/>
          <path id="Trazado_675218" data-name="Trazado 675218" d="M91.739,179.179l-3.206-1.857-.006-3.617,3.212,1.857Z" transform="translate(-76.144 -131.837)" fill="#aca69f"/>
          <path id="Trazado_675219" data-name="Trazado 675219" d="M90,184.7l-3.218-1.854v-3.617L90,181.083Z" transform="translate(-76.718 -130.023)" fill="#aca69f"/>
          <path id="Trazado_675220" data-name="Trazado 675220" d="M116.7,180.523,98.263,169.878v-3.616L116.7,176.907Z" transform="translate(-72.946 -134.282)" fill="#86c3c2"/>
          <path id="Trazado_675221" data-name="Trazado 675221" d="M127.806,186.94l-11.672-6.746v-3.616l11.678,6.746Z" transform="translate(-67.076 -130.893)" fill="#86c3c2"/>
          <path id="Trazado_675222" data-name="Trazado 675222" d="M144.659,196.663l-17.594-10.154v-3.617l17.594,10.157Z" transform="translate(-63.485 -128.819)" fill="#86c3c2"/>
          <path id="Trazado_675223" data-name="Trazado 675223" d="M155.15,202.722l-10.44-6.029v-3.611l10.44,6.026Z" transform="translate(-57.689 -125.472)" fill="#86c3c2"/>
          <path id="Trazado_675224" data-name="Trazado 675224" d="M123.631,171.461,105.2,160.816V157.2l18.433,10.642Z" transform="translate(-70.668 -137.258)" fill="#86c3c2"/>
          <path id="Trazado_675225" data-name="Trazado 675225" d="M80.788,153.242l-1.582-.913v-3.617l1.582.917Z" transform="translate(-79.206 -140.047)" fill="#aca69f"/>
          <path id="Trazado_675226" data-name="Trazado 675226" d="M80.788,192.853l-1.582-.917v-3.614l1.582.913Z" transform="translate(-79.206 -127.035)" fill="#aca69f"/>
        </g>
      </g>
      <g id="Grupo_904295" data-name="Grupo 904295" transform="translate(164.173 64.049)">
        <path id="Trazado_675227" data-name="Trazado 675227" d="M354.233,180.63l-3.843,2.222L140.309,61.555l3.849-2.216Z" transform="translate(-140.309 -59.339)" fill="#86c3c2"/>
        <path id="Trazado_675228" data-name="Trazado 675228" d="M302.289,164.332l-3.843,2.222V152.862l3.843-2.222Z" transform="translate(-88.365 -29.349)" fill="#395d60"/>
        <path id="Trazado_675229" data-name="Trazado 675229" d="M302.289,445.556l-3.843,2.222V163.169l3.843-2.222Z" transform="translate(-88.365 -25.963)" fill="#c8c8c8"/>
        <path id="Trazado_675230" data-name="Trazado 675230" d="M350.39,182.3,140.309,61.007V74.7L350.39,196Z" transform="translate(-140.309 -58.791)" fill="#35908f"/>
        <path id="Trazado_675231" data-name="Trazado 675231" d="M140.309,355.924,350.39,477.219V192.609L140.309,71.318Z" transform="translate(-140.309 -55.404)" fill="#f1f1f1"/>
        <path id="Trazado_675232" data-name="Trazado 675232" d="M146.4,81.617V349.139L340.3,461.125V193.6Z" transform="translate(-138.307 -52.021)" fill="#211a1a"/>
        <g id="Grupo_904294" data-name="Grupo 904294" transform="translate(17.152 42.328)">
          <path id="Trazado_675233" data-name="Trazado 675233" d="M178.364,109.333,153.22,94.814V91.2l25.145,14.516Z" transform="translate(-153.22 -91.201)" fill="#f1f1f1"/>
          <path id="Trazado_675234" data-name="Trazado 675234" d="M170.132,111.117l-16.913-9.765V97.735l16.913,9.765Z" transform="translate(-153.22 -89.055)" fill="#86c3c2"/>
          <path id="Trazado_675235" data-name="Trazado 675235" d="M161.673,112.757l-8.453-4.874v-3.617l8.453,4.874Z" transform="translate(-153.22 -86.909)" fill="#aca69f"/>
          <path id="Trazado_675236" data-name="Trazado 675236" d="M206.437,138.608l-45.166-26.08v-3.619l45.166,26.08Z" transform="translate(-150.575 -85.384)" fill="#86c3c2"/>
          <path id="Trazado_675237" data-name="Trazado 675237" d="M188.213,141.454l-32.281-18.629v-3.619l32.281,18.638Z" transform="translate(-152.328 -82.002)" fill="#f1f1f1"/>
          <path id="Trazado_675238" data-name="Trazado 675238" d="M177.584,141.86l-14-8.089v-3.617l14,8.089Z" transform="translate(-149.815 -78.406)" fill="#f1f1f1"/>
          <path id="Trazado_675239" data-name="Trazado 675239" d="M185.04,159.537l-25.458-14.693v-3.617L185.04,155.92Z" transform="translate(-151.129 -74.769)" fill="#f1f1f1"/>
          <path id="Trazado_675240" data-name="Trazado 675240" d="M193.868,171.166l-34.285-19.787v-3.62l34.285,19.791Z" transform="translate(-151.129 -72.623)" fill="#f1f1f1"/>
          <path id="Trazado_675241" data-name="Trazado 675241" d="M166.908,162.137l-7.325-4.23V154.29l7.325,4.23Z" transform="translate(-151.129 -70.478)" fill="#86c3c2"/>
          <path id="Trazado_675242" data-name="Trazado 675242" d="M166.908,168.668l-7.325-4.229v-3.617l7.325,4.229Z" transform="translate(-151.129 -68.332)" fill="#86c3c2"/>
          <path id="Trazado_675243" data-name="Trazado 675243" d="M166.908,175.2l-7.325-4.23v-3.617l7.325,4.23Z" transform="translate(-151.129 -66.187)" fill="#86c3c2"/>
          <path id="Trazado_675244" data-name="Trazado 675244" d="M176.458,174.18l-7.319-4.229v-3.617l7.319,4.229Z" transform="translate(-147.991 -66.522)" fill="#86c3c2"/>
          <path id="Trazado_675245" data-name="Trazado 675245" d="M186.136,179.768l-10.145-5.86V170.3l10.145,5.857Z" transform="translate(-145.74 -65.22)" fill="#aca69f"/>
          <path id="Trazado_675246" data-name="Trazado 675246" d="M208.121,185.929,168.853,163.26V159.64l39.268,22.672Z" transform="translate(-148.084 -68.72)" fill="#f1f1f1"/>
          <path id="Trazado_675247" data-name="Trazado 675247" d="M192.975,190.244,167.3,175.427v-3.616l25.673,14.816Z" transform="translate(-148.594 -64.723)" fill="#f1f1f1"/>
          <path id="Trazado_675248" data-name="Trazado 675248" d="M180.866,190.1l-21.283-12.287V174.2l21.283,12.287Z" transform="translate(-151.129 -63.939)" fill="#f1f1f1"/>
          <path id="Trazado_675249" data-name="Trazado 675249" d="M221.544,220.123l-61.961-35.778v-3.616l61.961,35.778Z" transform="translate(-151.129 -61.794)" fill="#f1f1f1"/>
          <path id="Trazado_675250" data-name="Trazado 675250" d="M187.744,207.132l-28.161-16.256v-3.614l28.161,16.253Z" transform="translate(-151.129 -59.647)" fill="#f1f1f1"/>
          <path id="Trazado_675251" data-name="Trazado 675251" d="M167.386,201.918l-7.8-4.508v-3.617l7.8,4.5Z" transform="translate(-151.129 -57.502)" fill="#aca69f"/>
          <path id="Trazado_675252" data-name="Trazado 675252" d="M173.343,219.042l-10.826-6.249v-3.62l10.826,6.253Z" transform="translate(-150.166 -52.45)" fill="#86c3c2"/>
          <path id="Trazado_675253" data-name="Trazado 675253" d="M168.874,223l-6.357-3.671v-3.617l6.357,3.672Z" transform="translate(-150.166 -50.304)" fill="#aca69f"/>
          <path id="Trazado_675254" data-name="Trazado 675254" d="M172.354,238.377,166,234.7v-3.616l6.357,3.671Z" transform="translate(-149.023 -45.251)" fill="#aca69f"/>
          <path id="Trazado_675255" data-name="Trazado 675255" d="M192.549,250.036,174.122,239.4v-3.617l18.427,10.645Z" transform="translate(-146.354 -43.709)" fill="#f1f1f1"/>
          <path id="Trazado_675256" data-name="Trazado 675256" d="M187.483,260.176,169.056,249.54v-3.617l18.427,10.636Z" transform="translate(-148.018 -40.379)" fill="#f1f1f1"/>
          <path id="Trazado_675257" data-name="Trazado 675257" d="M175.787,259.955l-6.731-3.884v-3.616l6.731,3.883Z" transform="translate(-148.018 -38.233)" fill="#86c3c2"/>
          <path id="Trazado_675258" data-name="Trazado 675258" d="M196,271.629l-17.207-9.937v-3.617L196,268.012Z" transform="translate(-144.82 -36.387)" fill="#86c3c2"/>
          <path id="Trazado_675259" data-name="Trazado 675259" d="M205.189,276.931l-6.43-3.705v-3.617l6.43,3.712Z" transform="translate(-138.261 -32.599)" fill="#86c3c2"/>
          <path id="Trazado_675260" data-name="Trazado 675260" d="M196.847,272.125l-3.206-1.854v-3.62l3.206,1.852Z" transform="translate(-139.942 -33.57)" fill="#aca69f"/>
          <path id="Trazado_675261" data-name="Trazado 675261" d="M178.536,261.547l-3.212-1.857-.006-3.616,3.218,1.857Z" transform="translate(-145.961 -37.045)" fill="#aca69f"/>
          <path id="Trazado_675262" data-name="Trazado 675262" d="M175.787,266.487l-6.731-3.884v-3.616l6.731,3.892Z" transform="translate(-148.018 -36.088)" fill="#86c3c2"/>
          <path id="Trazado_675263" data-name="Trazado 675263" d="M173.341,271.608l-4.285-2.473v-3.617l4.285,2.476Z" transform="translate(-148.018 -33.942)" fill="#86c3c2"/>
          <path id="Trazado_675264" data-name="Trazado 675264" d="M203.352,288.932,177.385,273.95v-3.617l25.967,14.988Z" transform="translate(-145.282 -32.361)" fill="#f1f1f1"/>
          <path id="Trazado_675265" data-name="Trazado 675265" d="M190.6,288.421l-21.584-12.466v-3.61L190.6,284.8Z" transform="translate(-148.03 -31.7)" fill="#f1f1f1"/>
          <path id="Trazado_675266" data-name="Trazado 675266" d="M170.594,290.241l-4.6-2.648v-3.617l4.6,2.645Z" transform="translate(-149.023 -27.88)" fill="#86c3c2"/>
          <path id="Trazado_675267" data-name="Trazado 675267" d="M185.972,299.121l-11.512-6.651v-3.608l11.512,6.642Z" transform="translate(-146.243 -26.274)" fill="#86c3c2"/>
          <path id="Trazado_675268" data-name="Trazado 675268" d="M174.595,292.559l-4.15-2.4v-3.611l4.15,2.394Z" transform="translate(-147.562 -27.035)" fill="#aca69f"/>
          <path id="Trazado_675269" data-name="Trazado 675269" d="M200.972,294.416l-13.621-7.873v-3.617l13.621,7.865Z" transform="translate(-142.008 -28.224)" fill="#86c3c2"/>
          <path id="Trazado_675270" data-name="Trazado 675270" d="M245.768,320.277l-16.661-9.627v-3.617l16.661,9.621Z" transform="translate(-128.293 -20.306)" fill="#86c3c2"/>
          <path id="Trazado_675271" data-name="Trazado 675271" d="M252.244,324.011l-6.909-3.987v-3.617l6.909,3.988Z" transform="translate(-122.962 -17.227)" fill="#86c3c2"/>
          <path id="Trazado_675272" data-name="Trazado 675272" d="M259.765,328.358l-6.909-4v-3.617l6.909,4Z" transform="translate(-120.492 -15.802)" fill="#86c3c2"/>
          <path id="Trazado_675273" data-name="Trazado 675273" d="M205.784,297.187l-5.572-3.218v-3.616l5.572,3.215Z" transform="translate(-137.784 -25.785)" fill="#aca69f"/>
          <path id="Trazado_675274" data-name="Trazado 675274" d="M231.144,311.827,209.616,299.4v-3.608l21.529,12.423Z" transform="translate(-134.695 -24)" fill="#f6993b"/>
          <path id="Trazado_675275" data-name="Trazado 675275" d="M224.725,301.276l-25.967-14.988v-3.616l25.967,14.988Z" transform="translate(-138.261 -28.308)" fill="#86c3c2"/>
          <path id="Trazado_675276" data-name="Trazado 675276" d="M196,278.16l-17.207-9.934v-3.617L196,274.543Z" transform="translate(-144.82 -34.241)" fill="#86c3c2"/>
          <path id="Trazado_675277" data-name="Trazado 675277" d="M205.189,283.463l-6.43-3.705V276.14l6.43,3.7Z" transform="translate(-138.261 -30.453)" fill="#86c3c2"/>
          <path id="Trazado_675278" data-name="Trazado 675278" d="M196.847,278.657l-3.206-1.857v-3.616l3.206,1.857Z" transform="translate(-139.942 -31.425)" fill="#aca69f"/>
          <path id="Trazado_675279" data-name="Trazado 675279" d="M178.536,268.079l-3.212-1.857-.006-3.617,3.218,1.857Z" transform="translate(-145.961 -34.899)" fill="#aca69f"/>
          <path id="Trazado_675280" data-name="Trazado 675280" d="M176.787,273.6l-3.218-1.857v-3.617l3.218,1.857Z" transform="translate(-146.536 -33.085)" fill="#aca69f"/>
          <path id="Trazado_675281" data-name="Trazado 675281" d="M203.487,269.423l-18.433-10.642v-3.62l18.433,10.645Z" transform="translate(-142.763 -37.344)" fill="#86c3c2"/>
          <path id="Trazado_675282" data-name="Trazado 675282" d="M214.6,275.84l-11.678-6.746v-3.617l11.684,6.746Z" transform="translate(-136.893 -33.956)" fill="#86c3c2"/>
          <path id="Trazado_675283" data-name="Trazado 675283" d="M231.454,285.566l-17.593-10.158v-3.617l17.593,10.154Z" transform="translate(-133.301 -31.882)" fill="#86c3c2"/>
          <path id="Trazado_675284" data-name="Trazado 675284" d="M241.944,291.624l-10.433-6.032v-3.607L241.944,288Z" transform="translate(-127.503 -28.534)" fill="#86c3c2"/>
          <path id="Trazado_675285" data-name="Trazado 675285" d="M210.422,260.36l-18.433-10.645V246.1l18.433,10.645Z" transform="translate(-140.485 -40.321)" fill="#86c3c2"/>
          <path id="Trazado_675286" data-name="Trazado 675286" d="M185.008,232.312l-14.914-8.61v-3.616l14.914,8.609Z" transform="translate(-147.677 -48.866)" fill="#86c3c2"/>
          <path id="Trazado_675287" data-name="Trazado 675287" d="M200.846,234.921l-25.109-14.494V216.81l25.109,14.5Z" transform="translate(-145.823 -49.942)" fill="#f1f1f1"/>
          <path id="Trazado_675288" data-name="Trazado 675288" d="M232.154,253l-31.287-18.062v-3.617l31.287,18.062Z" transform="translate(-137.569 -45.177)" fill="#86c3c2"/>
          <path id="Trazado_675289" data-name="Trazado 675289" d="M261.159,269.737l-31.281-18.059v-3.613l31.281,18.065Z" transform="translate(-128.04 -39.675)" fill="#86c3c2"/>
          <path id="Trazado_675290" data-name="Trazado 675290" d="M180.34,209.4l-11.954-6.911v-3.617l11.954,6.909Z" transform="translate(-148.238 -55.832)" fill="#86c3c2"/>
          <path id="Trazado_675291" data-name="Trazado 675291" d="M201.724,215.209l-19.383-11.2V200.4l19.383,11.193Z" transform="translate(-143.654 -55.333)" fill="#86c3c2"/>
          <path id="Trazado_675292" data-name="Trazado 675292" d="M205.874,217.61l-6.945-4.015v-3.617l6.945,4.012Z" transform="translate(-138.205 -52.186)" fill="#aca69f"/>
          <path id="Trazado_675293" data-name="Trazado 675293" d="M214.086,215.814l-4.812-2.78v-3.616l4.812,2.776Z" transform="translate(-134.807 -52.37)" fill="#f6993b"/>
          <path id="Trazado_675294" data-name="Trazado 675294" d="M218.881,218.585l-4.794-2.777V212.2l4.794,2.771Z" transform="translate(-133.226 -51.457)" fill="#aca69f"/>
          <path id="Trazado_675295" data-name="Trazado 675295" d="M227.414,223.506l-4.8-2.771v-3.617l4.8,2.774Z" transform="translate(-130.425 -49.84)" fill="#f6993b"/>
          <path id="Trazado_675296" data-name="Trazado 675296" d="M242.332,232.121l-14.915-8.6v-3.623l14.915,8.607Z" transform="translate(-128.848 -48.929)" fill="#86c3c2"/>
          <path id="Trazado_675297" data-name="Trazado 675297" d="M190.044,195.4l-12.664-7.32v-3.607l12.664,7.307Z" transform="translate(-145.283 -60.562)" fill="#86c3c2"/>
          <path id="Trazado_675298" data-name="Trazado 675298" d="M197.394,199.648l-7.154-4.132V191.9l7.154,4.135Z" transform="translate(-141.059 -58.125)" fill="#aca69f"/>
          <path id="Trazado_675299" data-name="Trazado 675299" d="M214.3,209.4l-13.977-8.064v-3.616l13.977,8.064Z" transform="translate(-137.746 -56.211)" fill="#f6993b"/>
          <path id="Trazado_675300" data-name="Trazado 675300" d="M219.805,212.587l-6.277-3.633v-3.613l6.277,3.629Z" transform="translate(-133.41 -53.709)" fill="#86c3c2"/>
          <path id="Trazado_675301" data-name="Trazado 675301" d="M227.132,216.81l-6.29-3.622v-3.62l6.29,3.622Z" transform="translate(-131.007 -52.321)" fill="#86c3c2"/>
          <path id="Trazado_675302" data-name="Trazado 675302" d="M214.416,202.625,188.75,187.809V184.2l25.673,14.816Z" transform="translate(-141.549 -60.655)" fill="#86c3c2"/>
          <path id="Trazado_675303" data-name="Trazado 675303" d="M217.158,204.207l-6.841-3.945v-3.62l6.841,3.948Z" transform="translate(-134.465 -56.566)" fill="#aca69f"/>
          <path id="Trazado_675304" data-name="Trazado 675304" d="M203.872,176.943l-16.631-9.6v-3.617l16.631,9.6Z" transform="translate(-142.045 -67.378)" fill="#86c3c2"/>
          <path id="Trazado_675305" data-name="Trazado 675305" d="M210.139,180.555l-7.117-4.1v-3.613l7.117,4.1Z" transform="translate(-136.861 -64.385)" fill="#aca69f"/>
          <path id="Trazado_675306" data-name="Trazado 675306" d="M208.6,186.206l-7.117-4.113v-3.614l7.117,4.11Z" transform="translate(-137.367 -62.533)" fill="#aca69f"/>
          <path id="Trazado_675307" data-name="Trazado 675307" d="M218.838,185.575l-7.117-4.11-.006-3.607,7.123,4.11Z" transform="translate(-134.005 -62.736)" fill="#aca69f"/>
          <path id="Trazado_675308" data-name="Trazado 675308" d="M261.118,210,219.98,186.242v-3.619l41.132,23.759Z" transform="translate(-131.291 -61.171)" fill="#86c3c2"/>
          <path id="Trazado_675309" data-name="Trazado 675309" d="M296.765,237.108l-86.9-50.174v-3.617l86.9,50.174Z" transform="translate(-134.615 -60.943)" fill="#f6993b"/>
          <path id="Trazado_675310" data-name="Trazado 675310" d="M193.347,164.333l-12.566-7.261v-3.607l12.566,7.251Z" transform="translate(-144.166 -70.749)" fill="#aca69f"/>
          <path id="Trazado_675311" data-name="Trazado 675311" d="M214.4,176.491l-20.713-11.963v-3.617L214.4,172.874Z" transform="translate(-139.929 -68.303)" fill="#86c3c2"/>
          <path id="Trazado_675312" data-name="Trazado 675312" d="M269.562,194.957l-92.177-53.215v-3.614l92.177,53.212Z" transform="translate(-145.282 -75.786)" fill="#f6993b"/>
          <path id="Trazado_675313" data-name="Trazado 675313" d="M162,132.858l-6.062-3.506v-3.611L162,129.232Z" transform="translate(-152.328 -79.855)" fill="#aca69f"/>
          <path id="Trazado_675314" data-name="Trazado 675314" d="M154.958,115.5l-1.581-.917v-3.617l1.581.917Z" transform="translate(-153.168 -84.709)" fill="#aca69f"/>
          <path id="Trazado_675315" data-name="Trazado 675315" d="M158.163,137.484l-1.594-.916v-3.617l1.594.92Z" transform="translate(-152.119 -77.487)" fill="#aca69f"/>
          <path id="Trazado_675316" data-name="Trazado 675316" d="M161.49,205.508l-1.594-.913v-3.617l1.594.91Z" transform="translate(-151.026 -55.142)" fill="#aca69f"/>
          <path id="Trazado_675317" data-name="Trazado 675317" d="M164.577,227.2l-1.594-.92v-3.61l1.594.913Z" transform="translate(-150.012 -48.018)" fill="#aca69f"/>
          <path id="Trazado_675318" data-name="Trazado 675318" d="M167.584,242.141,166,241.228v-3.617l1.587.914Z" transform="translate(-149.023 -43.109)" fill="#aca69f"/>
          <path id="Trazado_675319" data-name="Trazado 675319" d="M167.584,281.753,166,280.84V277.22l1.587.913Z" transform="translate(-149.023 -30.098)" fill="#aca69f"/>
          <path id="Trazado_675320" data-name="Trazado 675320" d="M186.728,140.6l-5.407-3.12v-3.617l5.407,3.12Z" transform="translate(-143.989 -77.186)" fill="#aca69f"/>
          <path id="Trazado_675321" data-name="Trazado 675321" d="M169.635,110.824l-2-1.156v-3.616l2,1.156Z" transform="translate(-148.486 -86.323)" fill="#aca69f"/>
          <path id="Trazado_675322" data-name="Trazado 675322" d="M175.136,114l-4.1-2.366V108.02l4.1,2.363Z" transform="translate(-147.368 -85.676)" fill="#aca69f"/>
          <path id="Trazado_675323" data-name="Trazado 675323" d="M180.656,110.657l-7.723-4.466v-3.607l7.723,4.456Z" transform="translate(-146.745 -87.462)" fill="#aca69f"/>
        </g>
      </g>
      <g id="Grupo_904312" data-name="Grupo 904312" transform="translate(211.65 133.94)">
        <g id="Grupo_904310" data-name="Grupo 904310" transform="translate(3.905)">
          <g id="Grupo_904296" data-name="Grupo 904296">
            <path id="Trazado_675324" data-name="Trazado 675324" d="M238.271,119.09l8.667-5-3.727-2.137-8.674,5Z" transform="translate(-160.739 -111.949)" fill="#ddd8d4"/>
            <path id="Trazado_675325" data-name="Trazado 675325" d="M178.986,429.768l3.715,2.155,11.5-28.605,65.076-283.13-2.758-2.333-3.734-2.145Z" transform="translate(-178.986 -110.714)" fill="#9a938d"/>
            <path id="Trazado_675326" data-name="Trazado 675326" d="M181.782,432.63l8.674-5,73.811-314.07-8.667,5Z" transform="translate(-178.067 -111.421)" fill="#cfc8bf"/>
          </g>
          <g id="Grupo_904308" data-name="Grupo 904308" transform="translate(17.28 19.506)">
            <g id="Grupo_904297" data-name="Grupo 904297" transform="translate(60.448)">
              <path id="Trazado_675327" data-name="Trazado 675327" d="M286.237,154l-47.4-27.364-.858.506L285.36,154.87Z" transform="translate(-237.338 -126.632)" fill="#ddd8d4"/>
              <path id="Trazado_675328" data-name="Trazado 675328" d="M285.518,154.383l-47.385-27.371L237.5,128.1l47.385,28.376Z" transform="translate(-237.495 -126.507)" fill="#aca69f"/>
              <path id="Trazado_675329" data-name="Trazado 675329" d="M284.88,155.189,237.5,127.832v1.018l47.385,27.358Z" transform="translate(-237.495 -126.237)" fill="#9a938d"/>
              <path id="Trazado_675330" data-name="Trazado 675330" d="M273.8,150.2l-.638-.365v-1.018l.638-1.075.877-.512.631.358v1.03l-.631,1.066Z" transform="translate(-225.779 -119.866)" fill="#cfc8bf"/>
            </g>
            <g id="Grupo_904298" data-name="Grupo 904298" transform="translate(54.404 25.823)">
              <path id="Trazado_675331" data-name="Trazado 675331" d="M281.686,173.437,234.295,146.07l-.883.512,47.4,27.735Z" transform="translate(-232.793 -146.07)" fill="#ddd8d4"/>
              <path id="Trazado_675332" data-name="Trazado 675332" d="M280.962,173.825l-47.4-27.37-.619,1.085,47.385,28.385Z" transform="translate(-232.946 -145.943)" fill="#aca69f"/>
              <path id="Trazado_675333" data-name="Trazado 675333" d="M280.331,174.633l-47.385-27.361v1.006l47.385,27.38Z" transform="translate(-232.946 -145.675)" fill="#9a938d"/>
              <path id="Trazado_675334" data-name="Trazado 675334" d="M269.246,169.65l-.631-.365v-1.024l.631-1.076.877-.515.631.365v1l-.631,1.094Z" transform="translate(-221.229 -139.303)" fill="#cfc8bf"/>
            </g>
            <g id="Grupo_904299" data-name="Grupo 904299" transform="translate(48.348 51.652)">
              <path id="Trazado_675335" data-name="Trazado 675335" d="M277.134,192.871l-47.4-27.358-.864.515,47.4,27.732Z" transform="translate(-228.229 -165.512)" fill="#ddd8d4"/>
              <path id="Trazado_675336" data-name="Trazado 675336" d="M276.421,193.252l-47.4-27.352-.637,1.091,47.4,28.367Z" transform="translate(-228.387 -165.385)" fill="#aca69f"/>
              <path id="Trazado_675337" data-name="Trazado 675337" d="M275.784,194.064l-47.4-27.343v1.009l47.4,27.358Z" transform="translate(-228.387 -165.115)" fill="#9a938d"/>
              <path id="Trazado_675338" data-name="Trazado 675338" d="M264.7,189.091l-.637-.37V187.7l.637-1.082.871-.508.625.377V187.5l-.625,1.076Z" transform="translate(-216.668 -158.748)" fill="#cfc8bf"/>
            </g>
            <g id="Grupo_904300" data-name="Grupo 904300" transform="translate(42.31 77.477)">
              <path id="Trazado_675339" data-name="Trazado 675339" d="M272.586,212.31l-47.391-27.358-.883.515L271.722,213.2Z" transform="translate(-223.687 -184.952)" fill="#ddd8d4"/>
              <path id="Trazado_675340" data-name="Trazado 675340" d="M271.864,212.7l-47.4-27.361-.625,1.085,47.4,28.373Z" transform="translate(-223.842 -184.825)" fill="#aca69f"/>
              <path id="Trazado_675341" data-name="Trazado 675341" d="M271.245,213.53l-47.4-27.373v1.011l47.4,27.361Z" transform="translate(-223.842 -184.557)" fill="#9a938d"/>
              <path id="Trazado_675342" data-name="Trazado 675342" d="M260.144,208.538l-.62-.377v-1l.62-1.106.876-.509.631.365v1.033l-.631,1.078Z" transform="translate(-212.121 -178.188)" fill="#cfc8bf"/>
            </g>
            <g id="Grupo_904301" data-name="Grupo 904301" transform="translate(36.265 103.318)">
              <path id="Trazado_675343" data-name="Trazado 675343" d="M268.036,231.756l-47.4-27.352-.871.515,47.409,27.717Z" transform="translate(-219.138 -204.404)" fill="#ddd8d4"/>
              <path id="Trazado_675344" data-name="Trazado 675344" d="M267.32,232.144l-47.4-27.352-.625,1.064,47.4,28.379Z" transform="translate(-219.292 -204.277)" fill="#aca69f"/>
              <path id="Trazado_675345" data-name="Trazado 675345" d="M266.7,232.965l-47.4-27.373v1.027l47.4,27.352Z" transform="translate(-219.292 -204.014)" fill="#9a938d"/>
              <path id="Trazado_675346" data-name="Trazado 675346" d="M255.6,227.963l-.625-.365v-1.006l.625-1.085.871-.515.625.356v1.027l-.625,1.073Z" transform="translate(-207.571 -197.641)" fill="#cfc8bf"/>
            </g>
            <g id="Grupo_904302" data-name="Grupo 904302" transform="translate(30.221 129.141)">
              <path id="Trazado_675347" data-name="Trazado 675347" d="M263.493,251.2,216.1,223.842l-.889.5,47.4,27.738Z" transform="translate(-214.588 -223.842)" fill="#ddd8d4"/>
              <path id="Trazado_675348" data-name="Trazado 675348" d="M262.771,251.582l-47.4-27.361-.625,1.088,47.4,28.376Z" transform="translate(-214.742 -223.718)" fill="#aca69f"/>
              <path id="Trazado_675349" data-name="Trazado 675349" d="M262.145,252.4l-47.4-27.358v1.014l47.4,27.361Z" transform="translate(-214.742 -223.449)" fill="#9a938d"/>
              <path id="Trazado_675350" data-name="Trazado 675350" d="M251.05,247.4l-.626-.358v-1.018l.626-1.085.876-.509.619.371v1.017l-.619,1.073Z" transform="translate(-203.022 -217.078)" fill="#cfc8bf"/>
            </g>
            <g id="Grupo_904303" data-name="Grupo 904303" transform="translate(24.177 154.961)">
              <path id="Trazado_675351" data-name="Trazado 675351" d="M258.928,270.644l-47.385-27.367-.87.5,47.385,27.732Z" transform="translate(-210.035 -243.277)" fill="#ddd8d4"/>
              <path id="Trazado_675352" data-name="Trazado 675352" d="M258.215,271.036l-47.385-27.38-.638,1.095,47.4,28.384Z" transform="translate(-210.193 -243.153)" fill="#aca69f"/>
              <path id="Trazado_675353" data-name="Trazado 675353" d="M257.59,271.838l-47.4-27.358V245.5l47.4,27.367Z" transform="translate(-210.193 -242.883)" fill="#9a938d"/>
              <path id="Trazado_675354" data-name="Trazado 675354" d="M246.5,266.842l-.625-.35v-1.026l.625-1.085.871-.5.643.359v1.033l-.643,1.07Z" transform="translate(-198.473 -236.511)" fill="#cfc8bf"/>
            </g>
            <g id="Grupo_904304" data-name="Grupo 904304" transform="translate(18.133 180.795)">
              <path id="Trazado_675355" data-name="Trazado 675355" d="M254.389,290.089l-47.409-27.364-.871.508,47.41,27.735Z" transform="translate(-205.49 -262.724)" fill="#ddd8d4"/>
              <path id="Trazado_675356" data-name="Trazado 675356" d="M253.665,290.465l-47.4-27.358-.619,1.079,47.4,28.376Z" transform="translate(-205.643 -262.599)" fill="#aca69f"/>
              <path id="Trazado_675357" data-name="Trazado 675357" d="M253.046,291.281l-47.4-27.361v1.018l47.4,27.358Z" transform="translate(-205.643 -262.332)" fill="#9a938d"/>
              <path id="Trazado_675358" data-name="Trazado 675358" d="M241.951,286.286l-.625-.365v-1.014l.619-1.082.871-.5.644.337v1.027l-.644,1.091Z" transform="translate(-193.922 -255.958)" fill="#cfc8bf"/>
            </g>
            <g id="Grupo_904305" data-name="Grupo 904305" transform="translate(12.082 206.621)">
              <path id="Trazado_675359" data-name="Trazado 675359" d="M249.858,309.523l-47.4-27.358-.9.518,47.41,27.714Z" transform="translate(-200.934 -282.164)" fill="#ddd8d4"/>
              <path id="Trazado_675360" data-name="Trazado 675360" d="M249.123,309.906l-47.41-27.352-.625,1.063,47.4,28.391Z" transform="translate(-201.088 -282.036)" fill="#aca69f"/>
              <path id="Trazado_675361" data-name="Trazado 675361" d="M248.492,310.719l-47.4-27.365v1.024l47.4,27.368Z" transform="translate(-201.088 -281.773)" fill="#9a938d"/>
              <path id="Trazado_675362" data-name="Trazado 675362" d="M237.4,305.738l-.631-.365v-1.027l.631-1.076.889-.512.607.356v1.036l-.607,1.073Z" transform="translate(-189.367 -275.4)" fill="#cfc8bf"/>
            </g>
            <g id="Grupo_904306" data-name="Grupo 904306" transform="translate(6.057 232.453)">
              <path id="Trazado_675363" data-name="Trazado 675363" d="M245.3,328.955l-47.4-27.346-.889.5,47.41,27.717Z" transform="translate(-196.401 -301.609)" fill="#ddd8d4"/>
              <path id="Trazado_675364" data-name="Trazado 675364" d="M244.575,329.355l-47.41-27.367-.613,1.088,47.391,28.376Z" transform="translate(-196.553 -301.485)" fill="#aca69f"/>
              <path id="Trazado_675365" data-name="Trazado 675365" d="M243.944,330.159l-47.391-27.352v1.008l47.391,27.368Z" transform="translate(-196.553 -301.216)" fill="#9a938d"/>
              <path id="Trazado_675366" data-name="Trazado 675366" d="M232.858,325.164l-.632-.35V323.79l.632-1.094.876-.5.625.38v1.008l-.625,1.066Z" transform="translate(-184.835 -294.848)" fill="#cfc8bf"/>
            </g>
            <g id="Grupo_904307" data-name="Grupo 904307" transform="translate(0 258.278)">
              <path id="Trazado_675367" data-name="Trazado 675367" d="M240.752,348.4l-47.4-27.346-.894.5,47.409,27.723Z" transform="translate(-191.84 -321.049)" fill="#ddd8d4"/>
              <path id="Trazado_675368" data-name="Trazado 675368" d="M240.022,348.8l-47.409-27.368-.62,1.073,47.385,28.379Z" transform="translate(-191.993 -320.925)" fill="#aca69f"/>
              <path id="Trazado_675369" data-name="Trazado 675369" d="M239.379,349.615l-47.385-27.38v1.027l47.385,27.352Z" transform="translate(-191.993 -320.66)" fill="#9a938d"/>
              <path id="Trazado_675370" data-name="Trazado 675370" d="M228.306,344.6l-.643-.356v-1l.643-1.085.883-.524.613.371v1.017l-.613,1.081Z" transform="translate(-180.277 -314.288)" fill="#cfc8bf"/>
            </g>
          </g>
          <g id="Grupo_904309" data-name="Grupo 904309" transform="translate(52.896 30.549)">
            <path id="Trazado_675371" data-name="Trazado 675371" d="M278.1,142.08l8.668-4.99-3.727-2.145-8.674,4.99Z" transform="translate(-200.551 -134.944)" fill="#ddd8d4"/>
            <path id="Trazado_675372" data-name="Trazado 675372" d="M218.8,452.781l3.751,2.145,11.506-28.6L299.1,143.191l-2.746-2.345L292.62,138.7Z" transform="translate(-218.803 -133.711)" fill="#9a938d"/>
            <path id="Trazado_675373" data-name="Trazado 675373" d="M221.627,455.629l8.656-4.987,73.811-314.083-8.668,4.99Z" transform="translate(-217.876 -134.414)" fill="#cfc8bf"/>
          </g>
        </g>
        <g id="Grupo_904311" data-name="Grupo 904311" transform="translate(0 118.744)">
          <path id="Trazado_675374" data-name="Trazado 675374" d="M201.093,327.624l2.875-.819,3.12-1.278,6.062,1.079v1.018l-3.334,5.5-7.4,4.217-4,6.05-3.96,2.676-3.794-1.753V343.3l.589-6.479Z" transform="translate(-171.246 -160.539)" fill="#211a1a"/>
          <path id="Trazado_675375" data-name="Trazado 675375" d="M223.21,310.148l4.125,1.1,3.414,3.607v1.027l-.962,2.1-4.451,1.128L219.526,319l-5.278,1.088-4.42-.7-1.661-2.578v-1.026Z" transform="translate(-165.496 -165.59)" fill="#211a1a"/>
          <path id="Trazado_675376" data-name="Trazado 675376" d="M211.5,220.362l5.363-2.268,4.8-3.086,1.827.889.962,3.325-.79,1.141-4.69,3.334-8.827,8.288-4.628,2.936H202.75v-13.4Z" transform="translate(-167.275 -196.841)" fill="#e7bead"/>
          <path id="Trazado_675377" data-name="Trazado 675377" d="M211.152,219.129l.41,1.64-1.545,2.722-2.611.233-2.415,9.572-1.189.846v-7.194l3.6-8.187Z" transform="translate(-166.929 -195.608)" fill="#be9c8e"/>
          <path id="Trazado_675378" data-name="Trazado 675378" d="M218.983,222.212l-.509-2.933-1.489-2.421,5.768-5.563,4.616-1.918,4.169.821,2.8,4.757-1.232,1.343-3.893.135-4.4,2.808,1.87.785,2.476-.2.215,1.505-3.881,1.382-3.764-.5Z" transform="translate(-162.599 -198.691)" fill="#f1f1f1"/>
          <path id="Trazado_675379" data-name="Trazado 675379" d="M196.562,224.547l-6.963-1.293-5.627.659-3.151,2.222-1.784,4.594,1.784,3.436,2.054,2.243Z" transform="translate(-175.064 -194.133)" fill="#ebe6e0"/>
          <path id="Trazado_675380" data-name="Trazado 675380" d="M210.206,223.207l-1.631,10.28-3.653,2.611-7.54-.266-4.015-4.711-.478-5.238,2.164-1.82,2.679-5.882,12.474.978Z" transform="translate(-170.514 -195.799)" fill="#e7bead"/>
          <path id="Trazado_675381" data-name="Trazado 675381" d="M207.276,267.413l3.77-8.07,2.562-9.155-6.725.821-5.431,19.917h3.629Z" transform="translate(-167.701 -185.286)" fill="#2a536f"/>
          <path id="Trazado_675382" data-name="Trazado 675382" d="M218.582,239.174l-1.753-1.686-4.714-1.189,1.692-2.372-1.122-2.345-3.187.4L204,230.709l-4.426-2.213L197,223.978l-3.476.613-.62-.613-3.586.613-4.42,2.988-2.875,6.348-1.643,7.095L181.4,252.4l6.995,8.757,4.511,10.583,6.578,5.042,8.33,1.931,5.327-.846,2.439-8.787,4.953-9.254Z" transform="translate(-174.623 -193.895)" fill="#f1f1f1"/>
          <path id="Trazado_675383" data-name="Trazado 675383" d="M201.093,326.861l2.875-.828,3.12-1.278h4.223l1.839,2.106-3.334,5.48-7.4,4.214-4,6.065-3.96,2.673-3.794-1.738.264-4.79.325-2.7Z" transform="translate(-171.246 -160.793)" fill="#f1f1f1"/>
          <path id="Trazado_675384" data-name="Trazado 675384" d="M176.886,282.423l9.955,30.46-1.226,10.58,9.134,26.709,3.9,1.842,6.8-4.2.626-5.541-5-22.751.453-9.618V288.314l-14.252-7.981Z" transform="translate(-175.77 -175.384)" fill="#346f88"/>
          <path id="Trazado_675385" data-name="Trazado 675385" d="M237.426,246.865l1.931-8.312,3.23-2.314,4.573.469,5.505,5.906.1,1.554-1.539.132-2.268-1.343-3.617,7.46-2.973,1.658-4.187-1.658Z" transform="translate(-155.885 -189.868)" fill="#f1f1f1"/>
          <path id="Trazado_675386" data-name="Trazado 675386" d="M222.154,249.923l6.48,9.1,4.309-4.031,8.563-6.433,4.439-4.319,1.649.65,2.881,2.857.411,1.7-11.776,16.894-4.2,3.555-11.279,1.312-12.137-13.49,2.691-7.941Z" transform="translate(-164.403 -187.24)" fill="#e7bead"/>
          <path id="Trazado_675387" data-name="Trazado 675387" d="M211.4,209.789l.576,2.933-.576,2.2.938,1.594-.472,7.184-1.434,2.167-3.034.659-2.513-1.018-3.427-1.808,1.471-15.644Z" transform="translate(-167.701 -199.123)" fill="#e7bead"/>
          <path id="Trazado_675388" data-name="Trazado 675388" d="M200.908,203.411l5.339-2.078,6.253,3.687,2.164,2.44.822,2.9-.926,5.554-1.937,2.161v2.764l-.619.825h-2.679l-1.122,2.869.5,3.188-1.637,2.979-2.979,1.328h-4.211l-4.009-2.565-4.622-7.179-1.441-7.1.822-4.916,2.569-3,5.345-3.993Z" transform="translate(-171.527 -201.333)" fill="#8b4935"/>
          <path id="Trazado_675389" data-name="Trazado 675389" d="M200.45,202.9l-5.9,4.331-3.347,6.115,4.622-5.744Z" transform="translate(-171.069 -200.819)" fill="#602d1e"/>
          <path id="Trazado_675390" data-name="Trazado 675390" d="M207.2,235.027l-2.887,3.506-.508,5.229,3.4,6.577,6.362,10.473,4.825-.721,5.646-3.9.729-3.583-7-12.845-4.542-3.89Z" transform="translate(-166.929 -190.266)" fill="#ebe6e0"/>
          <path id="Trazado_675391" data-name="Trazado 675391" d="M212.326,235.028l-7.8,2.51-4.96,4.662-1.778,6.881-3.7-2.3,1.716-6.565,4.923-5.351,8.576-3.4Z" transform="translate(-170.12 -191.435)" fill="#3e829f"/>
          <path id="Trazado_675392" data-name="Trazado 675392" d="M196.017,223.978l-4.641,5.609-3.353,6.2-.956,8.086-3.7-2.311.889-7.755,3.764-7.156,3.9-2.676Z" transform="translate(-173.642 -193.895)" fill="#3e829f"/>
          <path id="Trazado_675393" data-name="Trazado 675393" d="M223.21,309.38l4.125,1.107,3.414,1.7v2.921l-.962,2.105-4.451,1.125-5.811-.129-5.278,1.095-4.42-.7-1.661-2.577,2.385-6.231Z" transform="translate(-165.496 -165.843)" fill="#f1f1f1"/>
          <path id="Trazado_675394" data-name="Trazado 675394" d="M206.654,246.61l-12.328-5.44-9.844-5.753-1.717,13.765-.134,14.179-1.925,6.831-4.138,10.825-.521,15,4.114,4.319,21.645,5.609,9.171-1.643,19.3-4.392-1.778,4.662L220.152,333.2l4.512,4.233h8.484l2.207-3.279,4.376-16.287,8.772-22.779-1.68-6.054-4-4.177L223.5,281.018l-9.655-.132,1.778-8.622-2.7.889-2.637-1.027-4.555-6.022-.717-10.063Z" transform="translate(-176.046 -190.137)" fill="#3e829f"/>
          <path id="Trazado_675395" data-name="Trazado 675395" d="M216.87,285.014l12.548-4.236-2.011,3Z" transform="translate(-162.637 -175.238)" fill="#2a536f"/>
          <path id="Trazado_675396" data-name="Trazado 675396" d="M224.4,255.365l.478,4.42,2.072-.721Z" transform="translate(-160.165 -183.585)" fill="#be9c8e"/>
        </g>
      </g>
      <g id="Grupo_904314" data-name="Grupo 904314" transform="translate(98.201 331.145)">
        <g id="Grupo_904313" data-name="Grupo 904313" transform="translate(15.129 17.403)">
          <path id="Trazado_675397" data-name="Trazado 675397" d="M108.3,273.494l-6.265,3.62v5.3l6.265,3.617H117l6.264-3.617.007-5.3-6.27-3.62Zm14.29,8.534-5.776,3.333-8.336-.005-5.775-3.328L102.7,277.5l5.78-3.328,8.336-.007,5.776,3.334Z" transform="translate(-102.037 -273.494)" opacity="0.3"/>
        </g>
        <path id="Trazado_675398" data-name="Trazado 675398" d="M93.229,265.456l5.762,1.821L97.4,276.683l-4.174-2.412Z" transform="translate(-89.802 -258.731)" fill="#cd6622"/>
        <path id="Trazado_675399" data-name="Trazado 675399" d="M123.674,267.878l.957-1.658,3.225-.763v8.815l-4.181,2.412Z" transform="translate(-79.801 -258.731)" fill="#f4b66b"/>
        <rect id="Rectngulo_303275" data-name="Rectngulo 303275" width="5.912" height="8.815" transform="translate(0 18.222)" fill="#f4aa50"/>
        <path id="Trazado_675400" data-name="Trazado 675400" d="M95.1,274.11l1.692,2.36,1.122,4.353L96.8,285.276,95.1,282.925Z" transform="translate(-89.188 -255.888)" fill="#cd6622"/>
        <path id="Trazado_675401" data-name="Trazado 675401" d="M113.441,267.113l7.405,3.4-1.152,9.017-6.253-3.6-.864-3.641Z" transform="translate(-83.446 -258.187)" fill="#cd6622"/>
        <path id="Trazado_675402" data-name="Trazado 675402" d="M102.122,270.047l6.345-2.927,1.587,3.5-1.587,5.3-3.537,2.035-3.132-2Z" transform="translate(-86.987 -258.185)" fill="#f4b66b"/>
        <path id="Trazado_675403" data-name="Trazado 675403" d="M124.943,274.346l2.188-.954,3.739.954v8.815h-5.928Z" transform="translate(-79.384 -256.124)" fill="#f4aa50"/>
        <path id="Trazado_675404" data-name="Trazado 675404" d="M123.678,276.476l1.68-2.366v8.815l-1.68,2.351Z" transform="translate(-79.8 -255.888)" fill="#f4b66b"/>
        <path id="Trazado_675405" data-name="Trazado 675405" d="M98.251,280.976l-4.174,2.411,8.221,4.745,4.193-2.406,4.076.968v3.423h11.647l-.005-3.414,4.082-.978,4.187,2.406,8.226-4.745-4.175-2.406,1.681-2.365h5.928l-.005-6.725h-5.922l-1.686-2.351,4.181-2.422-8.226-4.751-4.187,2.421-4.082-.976v-3.418H110.565v3.418l-4.076.976-4.193-2.421-8.221,4.751,4.181,2.422-1.681,2.351H90.649v6.725h5.909Zm7.865-3.268-.005-4.915,6.019-3.463,8.514-.009,6.026,3.473-.007,4.915-6.019,3.479h-8.514Z" transform="translate(-90.649 -260.394)" fill="#e68a2b"/>
        <path id="Trazado_675406" data-name="Trazado 675406" d="M120.628,282.447l8.227-4.745v8.815l-8.227,4.745Z" transform="translate(-80.802 -254.709)" fill="#f4b66b"/>
        <rect id="Rectngulo_303276" data-name="Rectngulo 303276" width="11.644" height="8.802" transform="translate(19.916 29.725)" fill="#f4b66b"/>
        <path id="Trazado_675407" data-name="Trazado 675407" d="M93.229,277.7l8.22,4.745v8.821l-8.22-4.75Z" transform="translate(-89.802 -254.709)" fill="#cd6622"/>
        <path id="Trazado_675408" data-name="Trazado 675408" d="M117.477,279.463l4.187,2.406v8.815l-4.187-2.422Z" transform="translate(-81.837 -254.13)" fill="#cd6622"/>
        <path id="Trazado_675409" data-name="Trazado 675409" d="M102.573,279.463l4.076.969v8.818l-4.076-.987Z" transform="translate(-86.732 -254.13)" fill="#f4aa50"/>
        <path id="Trazado_675410" data-name="Trazado 675410" d="M106.818,267.122l8.514-.009v8.818l-8.514-.009Z" transform="translate(-85.338 -258.187)" fill="#d79736"/>
        <path id="Trazado_675411" data-name="Trazado 675411" d="M114.4,280.44l4.083-.977v8.8l-4.083.987Z" transform="translate(-82.846 -254.13)" fill="#f4aa50"/>
        <path id="Trazado_675412" data-name="Trazado 675412" d="M99.417,281.869l4.193-2.406v8.8l-4.193,2.427Z" transform="translate(-87.769 -254.13)" fill="#f4b66b"/>
      </g>
      <g id="Grupo_904316" data-name="Grupo 904316" transform="translate(120.668 381.559)">
        <g id="Grupo_904315" data-name="Grupo 904315" transform="translate(9.398 10.815)">
          <path id="Trazado_675413" data-name="Trazado 675413" d="M118.533,306.484l-3.9,2.244v3.295l3.9,2.248h5.395l3.887-2.248v-3.295l-3.887-2.244Zm8.87,5.3-3.586,2.07h-5.18l-3.592-2.07v-2.814l3.592-2.068h5.18l3.586,2.068Z" transform="translate(-114.635 -306.484)" opacity="0.3"/>
        </g>
        <path id="Trazado_675414" data-name="Trazado 675414" d="M109.166,301.492l3.574,1.131-.981,5.838-2.593-1.5Z" transform="translate(-107.033 -297.309)" fill="#cd6622"/>
        <path id="Trazado_675415" data-name="Trazado 675415" d="M128.081,303l.588-1.029,2-.475.006,5.474-2.6,1.5Z" transform="translate(-100.821 -297.309)" fill="#f4b66b"/>
        <rect id="Rectngulo_303277" data-name="Rectngulo 303277" width="3.675" height="5.48" transform="translate(0 11.318)" fill="#f4aa50"/>
        <path id="Trazado_675416" data-name="Trazado 675416" d="M110.325,306.863l1.054,1.471.693,2.7-.693,2.765-1.048-1.459Z" transform="translate(-106.653 -295.544)" fill="#cd6622"/>
        <path id="Trazado_675417" data-name="Trazado 675417" d="M121.721,302.521l4.6,2.108-.723,5.6-3.881-2.232-.539-2.262Z" transform="translate(-103.087 -296.971)" fill="#cd6622"/>
        <path id="Trazado_675418" data-name="Trazado 675418" d="M114.689,304.341l3.942-1.82.987,2.182-.987,3.283-2.195,1.266-1.95-1.241Z" transform="translate(-105.286 -296.971)" fill="#f4b66b"/>
        <path id="Trazado_675419" data-name="Trazado 675419" d="M128.871,307.008l1.348-.589,2.323.589v5.48h-3.678Z" transform="translate(-100.563 -295.69)" fill="#f4aa50"/>
        <path id="Trazado_675420" data-name="Trazado 675420" d="M128.081,308.334l1.048-1.471-.006,5.48-1.042,1.459Z" transform="translate(-100.821 -295.544)" fill="#f4b66b"/>
        <path id="Trazado_675421" data-name="Trazado 675421" d="M112.286,311.127l-2.593,1.5,5.113,2.952,2.593-1.493,2.537.6v2.131h7.234l-.007-2.124,2.539-.614,2.6,1.5,5.119-2.952-2.6-1.493,1.048-1.471h3.672v-4.174h-3.672l-1.048-1.457,2.592-1.5-5.112-2.952-2.6,1.5-2.539-.6v-2.126h-7.227v2.126l-2.537.6-2.593-1.5-5.113,2.952,2.593,1.5-1.042,1.465h-3.684v4.174h3.672Zm4.881-2.023v-3.057l3.738-2.153h5.29l3.74,2.153-.005,3.057-3.734,2.155h-5.29Z" transform="translate(-107.561 -298.343)" fill="#e68a2b"/>
        <path id="Trazado_675422" data-name="Trazado 675422" d="M126.184,312.045l5.118-2.951v5.48l-5.118,2.951Z" transform="translate(-101.444 -294.812)" fill="#f4b66b"/>
        <rect id="Rectngulo_303278" data-name="Rectngulo 303278" width="7.23" height="5.468" transform="translate(12.377 18.469)" fill="#f4b66b"/>
        <path id="Trazado_675423" data-name="Trazado 675423" d="M109.166,309.094l5.113,2.951v5.48l-5.113-2.951Z" transform="translate(-107.033 -294.812)" fill="#cd6622"/>
        <path id="Trazado_675424" data-name="Trazado 675424" d="M124.228,310.185l2.6,1.5v5.48l-2.6-1.508Z" transform="translate(-102.086 -294.453)" fill="#cd6622"/>
        <path id="Trazado_675425" data-name="Trazado 675425" d="M114.967,310.192l2.538.6v5.481l-2.538-.613Z" transform="translate(-105.128 -294.451)" fill="#f4aa50"/>
        <rect id="Rectngulo_303279" data-name="Rectngulo 303279" width="5.29" height="5.469" transform="translate(13.345 5.55)" fill="#d79736"/>
        <path id="Trazado_675426" data-name="Trazado 675426" d="M122.317,310.8l2.538-.613v5.474l-2.538.6Z" transform="translate(-102.714 -294.453)" fill="#f4aa50"/>
        <path id="Trazado_675427" data-name="Trazado 675427" d="M113.015,311.685l2.593-1.493v5.465l-2.593,1.508Z" transform="translate(-105.769 -294.451)" fill="#f4b66b"/>
      </g>
      <g id="Grupo_904329" data-name="Grupo 904329" transform="translate(314.769 471.182)">
        <g id="Grupo_904322" data-name="Grupo 904322" transform="translate(46.888)">
          <g id="Grupo_904317" data-name="Grupo 904317" transform="translate(32.532)">
            <path id="Trazado_675428" data-name="Trazado 675428" d="M351.575,365.806l1.778,1.024-2.434,4.589-5.824,1.456-28.927,16.769-2.715-1.566v-1.505l2.292.169L342.386,371.3l2.489-3.353Z" transform="translate(-313.452 -365.806)" fill="#c8c8c8"/>
            <path id="Trazado_675429" data-name="Trazado 675429" d="M351.575,365.806l1.778,1.024-2.434,3.074-5.824,1.456-28.939,16.771-2.7-1.56L342.386,369.8l2.494-3.362Z" transform="translate(-313.452 -365.806)" fill="#ebe6e0"/>
          </g>
          <g id="Grupo_904318" data-name="Grupo 904318" transform="translate(25.255 14.136)">
            <path id="Trazado_675430" data-name="Trazado 675430" d="M315.723,380.621l3.212,5.554.006,5.235-3.2,1.864-4.542-2.621-3.218-5.551-.006-5.238,3.2-1.848Z" transform="translate(-307.974 -375.932)" fill="#211a1a"/>
            <path id="Trazado_675431" data-name="Trazado 675431" d="M316.225,384.674l.006,5.235,3.586-2.09-.006-5.235-3.163,1.088Z" transform="translate(-305.264 -374.431)" fill="#0a0808"/>
            <path id="Trazado_675432" data-name="Trazado 675432" d="M313.807,380.493l3.212,5.554,3.586-2.09-3.218-5.554-2.495.35Z" transform="translate(-306.059 -375.804)" fill="#2d2522"/>
            <path id="Trazado_675433" data-name="Trazado 675433" d="M310.383,378.531l4.548,2.605,3.58-2.09-4.536-2.6Z" transform="translate(-307.183 -376.447)" fill="#4e413c"/>
          </g>
          <g id="Grupo_904321" data-name="Grupo 904321" transform="translate(0 17.498)">
            <path id="Trazado_675434" data-name="Trazado 675434" d="M297.939,397.635l.012,4.444,23.1-13.437-.006-4.441L298.3,396.774Z" transform="translate(-286.016 -377.262)" fill="#0a0808"/>
            <g id="Grupo_904319" data-name="Grupo 904319" transform="translate(15.686 10.293)">
              <path id="Trazado_675435" data-name="Trazado 675435" d="M316.753,387.09v1.026l-.625,1.092-14.737,8.48-.619-.368v-.107L315.4,388.76l.632-1.076v-.9l.092-.055Z" transform="translate(-300.772 -386.725)" fill="#4e413c"/>
              <path id="Trazado_675436" data-name="Trazado 675436" d="M316.036,386.766v.9l-.632,1.076L300.772,397.2v-.908l.619-1.094Z" transform="translate(-300.772 -386.712)" fill="#c38c49"/>
            </g>
            <path id="Trazado_675437" data-name="Trazado 675437" d="M291.581,399.374l6.081.3,2.557-1.483-.711-2.139-8.472.8Z" transform="translate(-288.283 -373.37)" fill="#c38c49"/>
            <path id="Trazado_675438" data-name="Trazado 675438" d="M288.964,395.97l2.771-5.413,2.556-1.477,1.508,1.68-4.916,6.936Z" transform="translate(-288.964 -375.659)" fill="#dab55a"/>
            <path id="Trazado_675439" data-name="Trazado 675439" d="M300.052,399.306l-7.27.4-1.239-.57.276-2.081,8.784-4.413,1.576,3.58Z" transform="translate(-288.116 -374.489)" fill="#0a0808"/>
            <path id="Trazado_675440" data-name="Trazado 675440" d="M293.983,389.16l-3.966,6.1-.117,1.361,1.943.79,8.19-5.418-2.317-3.154Z" transform="translate(-288.656 -375.739)" fill="#4e413c"/>
            <path id="Trazado_675441" data-name="Trazado 675441" d="M300.311,395.483l-7.258,2.627-2.336-.239.962-2.13,5.891-4.986,2.746,1.56Z" transform="translate(-288.388 -375.11)" fill="#cda24d"/>
            <path id="Trazado_675442" data-name="Trazado 675442" d="M295.876,394.071l2.74,4.729,23.11-13.434-2.734-4.711-22.185,11.938Z" transform="translate(-286.693 -378.427)" fill="#cda24d"/>
            <path id="Trazado_675443" data-name="Trazado 675443" d="M292.973,392.4l3.856,2.222,23.116-13.416-3.856-2.228Z" transform="translate(-287.647 -378.978)" fill="#4e413c"/>
            <g id="Grupo_904320" data-name="Grupo 904320" transform="translate(10.366 2.792)">
              <path id="Trazado_675444" data-name="Trazado 675444" d="M313.71,381.588v.729l-.9-.475h-1.251l-14.749,8.49-.049-.034v-.714l14.8-8.506h1.251Z" transform="translate(-296.767 -381.079)" fill="#211a1a"/>
              <path id="Trazado_675445" data-name="Trazado 675445" d="M313.673,382.147,298.9,390.641h-1.257l-.84-.5,14.749-8.49H312.8Z" transform="translate(-296.755 -380.891)" fill="#f2e175"/>
            </g>
            <path id="Trazado_675446" data-name="Trazado 675446" d="M288.964,396.682l1.373,2.369,1.925,1.1,1.367-.785v-2.219l-1.374-2.37-1.931-1.109-1.361.79Z" transform="translate(-288.964 -374.151)" fill="#2d2522"/>
          </g>
        </g>
        <g id="Grupo_904328" data-name="Grupo 904328" transform="translate(0 21.59)">
          <g id="Grupo_904323" data-name="Grupo 904323" transform="translate(23.484)">
            <path id="Trazado_675447" data-name="Trazado 675447" d="M295.676,382.058l1.771,1.023-2.44,4.585-5.823,1.459-15.117,8.8-2.722-1.566v-1.505l2.3.178,12.836-7.467,2.476-3.371Z" transform="translate(-271.346 -382.058)" fill="#c8c8c8"/>
            <path id="Trazado_675448" data-name="Trazado 675448" d="M295.676,382.058l1.771,1.023-2.44,3.081-5.823,1.449-15.117,8.8-2.722-1.56,15.128-8.8,2.489-3.363Z" transform="translate(-271.346 -382.058)" fill="#ebe6e0"/>
          </g>
          <g id="Grupo_904324" data-name="Grupo 904324" transform="translate(16.214 6.16)">
            <path id="Trazado_675449" data-name="Trazado 675449" d="M273.622,390.878l3.213,5.548.012,5.238-3.212,1.854-4.536-2.611-3.218-5.548-.006-5.235,3.206-1.861Z" transform="translate(-265.874 -386.18)" fill="#211a1a"/>
            <path id="Trazado_675450" data-name="Trazado 675450" d="M274.124,394.923l.012,5.238,3.586-2.09-.006-5.232-3.163,1.079Z" transform="translate(-263.164 -384.677)" fill="#0a0808"/>
            <path id="Trazado_675451" data-name="Trazado 675451" d="M271.706,390.749l3.213,5.548,3.592-2.084-3.218-5.557L272.8,389Z" transform="translate(-263.958 -386.051)" fill="#2d2522"/>
            <path id="Trazado_675452" data-name="Trazado 675452" d="M268.287,388.779l4.542,2.614,3.586-2.093-4.53-2.605Z" transform="translate(-265.081 -386.695)" fill="#4e413c"/>
          </g>
          <g id="Grupo_904327" data-name="Grupo 904327" transform="translate(0 9.523)">
            <path id="Trazado_675453" data-name="Trazado 675453" d="M262.644,402.54l.012,4.441,14.068-8.086-.012-4.441-13.707,7.228Z" transform="translate(-250.721 -387.509)" fill="#0a0808"/>
            <g id="Grupo_904325" data-name="Grupo 904325" transform="translate(14.614 9.501)">
              <path id="Trazado_675454" data-name="Trazado 675454" d="M274.109,396.752v1.008l-.638,1.1-8.177,4.717-.625-.365V403.1l8.086-4.69.631-1.078v-.9l.085-.055Z" transform="translate(-264.669 -396.378)" fill="#4e413c"/>
              <path id="Trazado_675455" data-name="Trazado 675455" d="M273.386,396.42v.9l-.631,1.078-8.086,4.69v-.9l.625-1.1Z" transform="translate(-264.669 -396.365)" fill="#c38c49"/>
            </g>
            <path id="Trazado_675456" data-name="Trazado 675456" d="M256.292,405.608l6.081.288,2.55-1.483-.705-2.139-8.478.812Z" transform="translate(-252.988 -384.941)" fill="#c38c49"/>
            <path id="Trazado_675457" data-name="Trazado 675457" d="M253.669,402.2l2.776-5.413,2.55-1.477,1.514,1.677-4.923,6.945Z" transform="translate(-253.669 -387.229)" fill="#dab55a"/>
            <path id="Trazado_675458" data-name="Trazado 675458" d="M264.756,405.531l-7.27.407-1.238-.567.282-2.087,8.784-4.417,1.582,3.586Z" transform="translate(-252.822 -386.059)" fill="#0a0808"/>
            <path id="Trazado_675459" data-name="Trazado 675459" d="M258.688,395.388l-3.966,6.1-.117,1.367,1.955.791,8.184-5.425-2.317-3.157Z" transform="translate(-253.361 -387.309)" fill="#4e413c"/>
            <path id="Trazado_675460" data-name="Trazado 675460" d="M265.014,401.711l-7.258,2.626-2.33-.233.957-2.139,5.9-4.986,2.741,1.56Z" transform="translate(-253.092 -386.68)" fill="#cda24d"/>
            <path id="Trazado_675461" data-name="Trazado 675461" d="M260.585,398.974l2.734,4.732,14.068-8.086L274.66,390.9,261.511,397.5Z" transform="translate(-251.397 -388.675)" fill="#cda24d"/>
            <path id="Trazado_675462" data-name="Trazado 675462" d="M257.679,397.305l3.862,2.219,14.075-8.071-3.855-2.228Z" transform="translate(-252.352 -389.226)" fill="#4e413c"/>
            <g id="Grupo_904326" data-name="Grupo 904326" transform="translate(9.293 2.001)">
              <path id="Trazado_675463" data-name="Trazado 675463" d="M271.054,391.239v.729l-.889-.472h-1.25l-8.2,4.729-.055-.034v-.714l8.251-4.745h1.25Z" transform="translate(-260.664 -390.733)" fill="#211a1a"/>
              <path id="Trazado_675464" data-name="Trazado 675464" d="M271.01,391.794l-8.208,4.739h-1.257l-.84-.5,8.2-4.729h1.25Z" transform="translate(-260.65 -390.544)" fill="#f2e175"/>
            </g>
            <path id="Trazado_675465" data-name="Trazado 675465" d="M253.674,402.918l1.373,2.363,1.925,1.106,1.361-.788v-2.222l-1.373-2.372L255.03,399.9l-1.361.791Z" transform="translate(-253.669 -385.721)" fill="#2d2522"/>
          </g>
        </g>
      </g>
      <g id="Grupo_904336" data-name="Grupo 904336" transform="translate(112.343 410.109)">
        <g id="Grupo_904332" data-name="Grupo 904332" transform="translate(33.569)">
          <g id="Grupo_904330" data-name="Grupo 904330" transform="translate(1.986 34.214)" opacity="0.3">
            <path id="Trazado_675466" data-name="Trazado 675466" d="M130.718,345.588l-2.66,1.542v2.385l2.666,1.538h3.586l2.661-1.538V347.13l-2.661-1.542Zm5.505,3.5-2.115,1.226h-3.194l-2.122-1.226v-1.525l2.122-1.228h3.194l2.115,1.228Z" transform="translate(-128.058 -345.588)"/>
          </g>
          <path id="Trazado_675467" data-name="Trazado 675467" d="M137.329,349.431l-3.776,2.185-.539-2.893,2.084-1.03,2.232-.806Z" transform="translate(-124.444 -310.947)" fill="#9a938d"/>
          <path id="Trazado_675468" data-name="Trazado 675468" d="M177.2,324.586l-1.159,3.721-.95-2.228.754-2.642,1.355-1.4Z" transform="translate(-110.621 -319.111)" fill="#aca69f"/>
          <path id="Trazado_675469" data-name="Trazado 675469" d="M171.788,322.378l-2.605,3.39-.944-2.234,2.195-2.3,1.355-1.4Z" transform="translate(-112.873 -319.833)" fill="#aca69f"/>
          <path id="Trazado_675470" data-name="Trazado 675470" d="M176.532,327.385l-1.968,1.14-.95-2.222.68-.659,2.237-.806Z" transform="translate(-111.107 -318.19)" fill="#9a938d"/>
          <path id="Trazado_675471" data-name="Trazado 675471" d="M176.249,328.424l-6.828.187-.932-3.467,5.327.245,2.433.485Z" transform="translate(-112.791 -318.089)" fill="#aca69f"/>
          <path id="Trazado_675472" data-name="Trazado 675472" d="M180,328.385l-43.738,25.252.006-2.55,21.191-14.164L180,325.832Z" transform="translate(-123.375 -317.863)" fill="#9a938d"/>
          <path id="Trazado_675473" data-name="Trazado 675473" d="M134.891,351.258h-5.333l-.619-3.279,3.519.251,2.433.478Z" transform="translate(-125.782 -310.589)" fill="#aca69f"/>
          <path id="Trazado_675474" data-name="Trazado 675474" d="M130.338,351.616l-3.776-2.185v-2.544l2.017.583,1.759,1.6Z" transform="translate(-126.563 -310.947)" fill="#cfc8bf"/>
          <path id="Trazado_675475" data-name="Trazado 675475" d="M133.523,346.639h-3.384V344.1l1.894-.576,1.49.576Z" transform="translate(-125.388 -312.053)" fill="#aca69f"/>
          <path id="Trazado_675476" data-name="Trazado 675476" d="M130.889,346.5l-2.39,1.382-.644-2.026.729-1.569,2.3-.331Z" transform="translate(-126.138 -311.911)" fill="#9a938d"/>
          <path id="Trazado_675477" data-name="Trazado 675477" d="M132.686,346.5l2.39,1.382.644-2.026-.729-1.569-2.3-.331Z" transform="translate(-124.551 -311.911)" fill="#cfc8bf"/>
          <path id="Trazado_675478" data-name="Trazado 675478" d="M191.945,321.642l-2.617,3.316-4.047-.07-2.409-1.67,2.605-3.384-3.574.741-3.121,1.808v2.875l-43.737,25.25-4.708.005-3.776,2.18v3.079l3.776,2.18h5.332l3.777-2.18v-2.725L183.192,327.8l6.828-.183,1.967-1.137,1.158-3.728ZM137.094,355.21l-2.4,1.383h-3.384l-2.391-1.383v-1.953l2.391-1.382H134.7l2.4,1.382Z" transform="translate(-126.563 -319.833)" fill="#ddd8d4"/>
          <g id="Grupo_904331" data-name="Grupo 904331" transform="translate(20.536 13.676)">
            <path id="Trazado_675479" data-name="Trazado 675479" d="M163.831,330.842v.358l-1.257-.72h-1.766l-18.788,10.847v-.355l18.788-10.844h1.766Z" transform="translate(-142.021 -330.128)" fill="#aca69f"/>
            <path id="Trazado_675480" data-name="Trazado 675480" d="M163.831,331.113v.668l-18.8,10.841h-1.766l-1.244-.714v-.668l18.788-10.847h1.766Z" transform="translate(-142.021 -330.041)" fill="#cfc8bf"/>
          </g>
        </g>
        <g id="Grupo_904335" data-name="Grupo 904335" transform="translate(0 10.783)">
          <g id="Grupo_904333" data-name="Grupo 904333" transform="translate(1.667 28.714)" opacity="0.3">
            <path id="Trazado_675481" data-name="Trazado 675481" d="M104.781,349.564l-2.232,1.294v2l2.232,1.285h3.01l2.225-1.285v-2l-2.232-1.294Zm4.622,2.929-1.783,1.024h-2.673l-1.777-1.024v-1.281l1.777-1.03h2.673l1.783,1.03Z" transform="translate(-102.549 -349.564)"/>
          </g>
          <path id="Trazado_675482" data-name="Trazado 675482" d="M110.325,352.79l-3.169,1.83-.454-2.427,1.747-.868,1.876-.674Z" transform="translate(-99.518 -320.494)" fill="#9a938d"/>
          <path id="Trazado_675483" data-name="Trazado 675483" d="M143.783,331.935l-.98,3.13-.791-1.879.631-2.213,1.14-1.177Z" transform="translate(-87.919 -327.344)" fill="#aca69f"/>
          <path id="Trazado_675484" data-name="Trazado 675484" d="M139.242,330.086l-2.188,2.842-.8-1.873,1.852-1.931,1.134-1.174Z" transform="translate(-89.81 -327.95)" fill="#aca69f"/>
          <path id="Trazado_675485" data-name="Trazado 675485" d="M143.21,334.291l-1.649.95-.791-1.866.57-.549,1.87-.675Z" transform="translate(-88.327 -326.57)" fill="#9a938d"/>
          <path id="Trazado_675486" data-name="Trazado 675486" d="M142.972,335.156l-5.719.156-.779-2.9,4.463.208,2.035.408Z" transform="translate(-89.738 -326.485)" fill="#aca69f"/>
          <path id="Trazado_675487" data-name="Trazado 675487" d="M146.135,335.123l-36.7,21.185v-2.136l17.789-11.883,18.911-9.3Z" transform="translate(-98.62 -326.296)" fill="#9a938d"/>
          <path id="Trazado_675488" data-name="Trazado 675488" d="M108.278,354.319H103.8l-.515-2.753,2.955.206,2.035.407Z" transform="translate(-100.639 -320.193)" fill="#aca69f"/>
          <path id="Trazado_675489" data-name="Trazado 675489" d="M104.457,354.619l-3.163-1.83V350.65l1.68.5,1.483,1.333Z" transform="translate(-101.294 -320.494)" fill="#cfc8bf"/>
          <path id="Trazado_675490" data-name="Trazado 675490" d="M107.133,350.445h-2.844v-2.136l1.594-.484,1.25.484Z" transform="translate(-100.31 -321.422)" fill="#aca69f"/>
          <path id="Trazado_675491" data-name="Trazado 675491" d="M104.918,350.325l-2,1.162-.54-1.707.613-1.318,1.931-.272Z" transform="translate(-100.939 -321.302)" fill="#9a938d"/>
          <path id="Trazado_675492" data-name="Trazado 675492" d="M106.43,350.325l2,1.162.539-1.707-.619-1.318-1.925-.272Z" transform="translate(-99.607 -321.302)" fill="#cfc8bf"/>
          <path id="Trazado_675493" data-name="Trazado 675493" d="M156.147,329.467l-2.189,2.786-3.408-.061-2.011-1.4,2.188-2.842-3,.626-2.624,1.517V332.5l-36.687,21.186-3.955,0-3.163,1.839v2.577l3.163,1.831h4.476l3.17-1.831v-2.28l36.706-21.185,5.719-.15,1.65-.96.98-3.129Zm-46.018,28.165-2.011,1.165h-2.844l-2-1.165V356l2-1.158h2.844L110.128,356Z" transform="translate(-101.294 -327.95)" fill="#ddd8d4"/>
          <g id="Grupo_904334" data-name="Grupo 904334" transform="translate(17.232 11.475)">
            <path id="Trazado_675494" data-name="Trazado 675494" d="M132.557,337.192v.3l-1.048-.6h-1.477l-15.767,9.1v-.291l15.767-9.106h1.477Z" transform="translate(-114.265 -336.588)" fill="#aca69f"/>
            <path id="Trazado_675495" data-name="Trazado 675495" d="M132.557,337.416v.554l-15.772,9.106h-1.471l-1.048-.6v-.567l15.767-9.1h1.477Z" transform="translate(-114.265 -336.514)" fill="#cfc8bf"/>
          </g>
        </g>
      </g>
    </g>
  </g>
</svg>
