<svg xmlns="http://www.w3.org/2000/svg" xmlns:xlink="http://www.w3.org/1999/xlink" width="315" height="209.446" viewBox="0 0 315 209.446">
  <defs>
    <linearGradient id="linear-gradient" x1="0.5" y1="1.008" x2="0.5" y2="-0.175" gradientUnits="objectBoundingBox">
      <stop offset="0" stop-color="#dfedf2"/>
      <stop offset="1" stop-color="#e8f8ff"/>
    </linearGradient>
    <linearGradient id="linear-gradient-2" x1="0.5" y1="9.742" x2="0.5" y2="-1.693" xlink:href="#linear-gradient"/>
    <linearGradient id="linear-gradient-3" x1="0.5" y1="3.638" x2="0.5" y2="-15.868" xlink:href="#linear-gradient"/>
    <linearGradient id="linear-gradient-4" x1="0.5" y1="34.995" x2="0.5" y2="-0.807" xlink:href="#linear-gradient"/>
    <linearGradient id="linear-gradient-5" x1="0.5" y1="1.367" x2="0.5" y2="-7.613" xlink:href="#linear-gradient"/>
    <linearGradient id="linear-gradient-6" x1="0.589" y1="0.902" x2="0.374" y2="-0.756" gradientUnits="objectBoundingBox">
      <stop offset="0" stop-color="#b6dff6"/>
      <stop offset="1" stop-color="#ddeaf7"/>
    </linearGradient>
    <linearGradient id="linear-gradient-7" x1="0" y1="0.5" x2="1" y2="0.5" xlink:href="#linear-gradient-6"/>
    <linearGradient id="linear-gradient-8" x1="-0.09" y1="-0.232" x2="1.544" y2="1.794" gradientUnits="objectBoundingBox">
      <stop offset="0" stop-color="#71d2f9"/>
      <stop offset="1" stop-color="#51b9f8"/>
    </linearGradient>
    <linearGradient id="linear-gradient-9" x1="-0.007" y1="-1.051" x2="0.665" y2="1.03" xlink:href="#linear-gradient-8"/>
    <linearGradient id="linear-gradient-11" x1="-0.007" y1="-1.051" x2="0.665" y2="1.03" xlink:href="#linear-gradient-8"/>
    <linearGradient id="linear-gradient-12" x1="2.395" y1="3.124" x2="-0.361" y2="-0.692" xlink:href="#linear-gradient"/>
    <linearGradient id="linear-gradient-13" x1="1.097" y1="2.584" x2="-0.139" y2="-1.692" xlink:href="#linear-gradient"/>
    <linearGradient id="linear-gradient-14" x1="0.5" y1="1.121" x2="0.5" y2="-4.857" gradientUnits="objectBoundingBox">
      <stop offset="0" stop-color="#256aba"/>
      <stop offset="1" stop-color="#5ca5f7"/>
    </linearGradient>
    <linearGradient id="linear-gradient-15" x1="-0.194" y1="-0.007" x2="2.036" y2="1.621" xlink:href="#linear-gradient-8"/>
    <linearGradient id="linear-gradient-16" x1="-0.823" y1="-0.465" x2="1.408" y2="1.163" xlink:href="#linear-gradient-8"/>
    <linearGradient id="linear-gradient-17" x1="4.204" y1="0.5" x2="-8.815" y2="0.5" gradientUnits="objectBoundingBox">
      <stop offset="0" stop-color="#cbe1f2"/>
      <stop offset="1" stop-color="#aed2ed"/>
    </linearGradient>
    <linearGradient id="linear-gradient-18" x1="1.237" y1="0.5" x2="-9.178" y2="0.5" xlink:href="#linear-gradient-17"/>
    <linearGradient id="linear-gradient-19" x1="0.5" y1="-0.166" x2="0.5" y2="1.135" xlink:href="#linear-gradient-8"/>
    <linearGradient id="linear-gradient-20" x1="0.5" y1="2.24" x2="0.5" y2="-3.738" xlink:href="#linear-gradient-14"/>
    <linearGradient id="linear-gradient-21" x1="1.268" y1="1.303" x2="-0.306" y2="-0.343" xlink:href="#linear-gradient-17"/>
    <linearGradient id="linear-gradient-22" x1="0.5" y1="-0.336" x2="0.5" y2="1.078" xlink:href="#linear-gradient-8"/>
    <linearGradient id="linear-gradient-24" x1="0.5" y1="3.359" x2="0.5" y2="-2.619" xlink:href="#linear-gradient-14"/>
    <linearGradient id="linear-gradient-25" x1="-0.095" y1="0.5" x2="3.052" y2="0.5" xlink:href="#linear-gradient-17"/>
    <linearGradient id="linear-gradient-26" x1="0" y1="0.5" x2="1" y2="0.5" xlink:href="#linear-gradient-8"/>
    <linearGradient id="linear-gradient-28" x1="1.938" y1="1.712" x2="-1.337" y2="-1.048" xlink:href="#linear-gradient-17"/>
    <linearGradient id="linear-gradient-30" x1="0.5" y1="4.477" x2="0.5" y2="-1.501" xlink:href="#linear-gradient-14"/>
    <linearGradient id="linear-gradient-31" x1="-0.095" y1="0.5" x2="3.052" y2="0.5" xlink:href="#linear-gradient-8"/>
    <linearGradient id="linear-gradient-32" x1="3.168" y1="2.035" x2="-0.733" y2="-0.209" xlink:href="#linear-gradient-17"/>
    <linearGradient id="linear-gradient-33" x1="2.143" y1="1.446" x2="-1.758" y2="-0.799" xlink:href="#linear-gradient-17"/>
    <linearGradient id="linear-gradient-35" x1="0.5" y1="5.596" x2="0.5" y2="-0.382" xlink:href="#linear-gradient-14"/>
    <linearGradient id="linear-gradient-36" x1="0.5" y1="-0.336" x2="0.5" y2="1.078" xlink:href="#linear-gradient-8"/>
    <linearGradient id="linear-gradient-38" x1="0.468" y1="-0.18" x2="0.52" y2="1.095" gradientUnits="objectBoundingBox">
      <stop offset="0" stop-color="#1a2f79"/>
      <stop offset="1" stop-color="#160545"/>
    </linearGradient>
    <linearGradient id="linear-gradient-39" x1="0.5" y1="0.065" x2="0.5" y2="1.456" xlink:href="#linear-gradient-38"/>
    <linearGradient id="linear-gradient-40" x1="0.5" y1="0.065" x2="0.5" y2="1.456" gradientUnits="objectBoundingBox">
      <stop offset="0" stop-color="#f4cfb3"/>
      <stop offset="1" stop-color="#f2bb9b"/>
    </linearGradient>
    <linearGradient id="linear-gradient-41" x1="0.5" y1="-0.018" x2="0.5" y2="0.971" xlink:href="#linear-gradient-40"/>
    <linearGradient id="linear-gradient-43" x1="0.5" y1="-0.608" x2="0.5" y2="2.098" gradientUnits="objectBoundingBox">
      <stop offset="0" stop-color="#283770"/>
      <stop offset="1" stop-color="#141a5a"/>
    </linearGradient>
    <linearGradient id="linear-gradient-44" x1="0.48" y1="-0.246" x2="0.523" y2="1.118" xlink:href="#linear-gradient-40"/>
    <linearGradient id="linear-gradient-45" x1="0.5" y1="-0.043" x2="0.5" y2="0.873" xlink:href="#linear-gradient-38"/>
    <linearGradient id="linear-gradient-46" x1="0.5" y1="-0.193" x2="0.5" y2="2.157" gradientUnits="objectBoundingBox">
      <stop offset="0" stop-color="#6ec4f7"/>
      <stop offset="1" stop-color="#398ef6"/>
    </linearGradient>
    <linearGradient id="linear-gradient-47" x1="0.5" y1="0.127" x2="0.5" y2="1.272" xlink:href="#linear-gradient-46"/>
    <linearGradient id="linear-gradient-48" x1="0.5" y1="0.008" x2="0.5" y2="0.888" xlink:href="#linear-gradient-46"/>
    <linearGradient id="linear-gradient-49" x1="-6.386" y1="-0.321" x2="-6.859" y2="1.254" xlink:href="#linear-gradient-40"/>
    <linearGradient id="linear-gradient-50" x1="-46.478" y1="-0.21" x2="-44.772" y2="1.367" xlink:href="#linear-gradient-40"/>
    <linearGradient id="linear-gradient-51" x1="-4.003" y1="0.44" x2="-4.299" y2="1.484" xlink:href="#linear-gradient-40"/>
    <linearGradient id="linear-gradient-52" x1="-21.033" y1="0.248" x2="-22.453" y2="4.091" xlink:href="#linear-gradient-40"/>
    <linearGradient id="linear-gradient-53" x1="0.5" y1="-0.475" x2="0.5" y2="2.443" xlink:href="#linear-gradient-46"/>
    <linearGradient id="linear-gradient-54" x1="-1.244" y1="-0.446" x2="0.204" y2="0.431" xlink:href="#linear-gradient-40"/>
    <linearGradient id="linear-gradient-56" x1="-1.619" y1="-1.871" x2="0.118" y2="-0.191" xlink:href="#linear-gradient-40"/>
    <linearGradient id="linear-gradient-57" x1="-15.865" y1="-0.086" x2="-16.098" y2="1.05" xlink:href="#linear-gradient-40"/>
    <linearGradient id="linear-gradient-58" x1="0.5" y1="-0.475" x2="0.5" y2="2.443" xlink:href="#linear-gradient-46"/>
    <linearGradient id="linear-gradient-59" x1="0.5" y1="-0.185" x2="0.5" y2="0.333" gradientUnits="objectBoundingBox">
      <stop offset="0" stop-color="#8bbdf2"/>
      <stop offset="1" stop-color="#92c2e8"/>
    </linearGradient>
    <linearGradient id="linear-gradient-60" x1="0.5" y1="0.092" x2="0.5" y2="0.869" xlink:href="#linear-gradient-17"/>
    <linearGradient id="linear-gradient-61" x1="-0.358" y1="-0.804" x2="1.64" y2="2.232" xlink:href="#linear-gradient-17"/>
    <linearGradient id="linear-gradient-62" x1="0.5" y1="0.974" x2="0.5" y2="0.156" xlink:href="#linear-gradient-59"/>
    <linearGradient id="linear-gradient-63" x1="-1.763" y1="1" x2="-1.763" y2="0.038" xlink:href="#linear-gradient"/>
    <linearGradient id="linear-gradient-64" x1="0.004" y1="-0.008" x2="0.972" y2="0.983" xlink:href="#linear-gradient-8"/>
    <linearGradient id="linear-gradient-68" x1="-4.083" y1="14.139" x2="-2.598" y2="23.315" xlink:href="#linear-gradient-8"/>
    <linearGradient id="linear-gradient-69" x1="-4.141" y1="13.769" x2="-2.656" y2="22.936" xlink:href="#linear-gradient-8"/>
    <linearGradient id="linear-gradient-70" x1="-4.199" y1="13.412" x2="-2.714" y2="22.579" xlink:href="#linear-gradient-8"/>
    <linearGradient id="linear-gradient-71" x1="-9.631" y1="14.195" x2="-6.664" y2="23.362" xlink:href="#linear-gradient-8"/>
    <linearGradient id="linear-gradient-72" x1="-1.611" y1="-20.298" x2="-0.575" y2="-12.933" xlink:href="#linear-gradient-8"/>
    <linearGradient id="linear-gradient-73" x1="-1.675" y1="-20.757" x2="-0.64" y2="-13.392" xlink:href="#linear-gradient-8"/>
    <linearGradient id="linear-gradient-74" x1="-1.74" y1="-21.231" x2="-0.704" y2="-13.86" xlink:href="#linear-gradient-8"/>
    <linearGradient id="linear-gradient-75" x1="-4.76" y1="-20.477" x2="-2.692" y2="-13.107" xlink:href="#linear-gradient-8"/>
    <linearGradient id="linear-gradient-76" x1="-1.989" y1="-32.269" x2="-0.427" y2="-21.267" xlink:href="#linear-gradient-8"/>
    <linearGradient id="linear-gradient-77" x1="-2.053" y1="-32.753" x2="-0.491" y2="-21.74" xlink:href="#linear-gradient-8"/>
    <linearGradient id="linear-gradient-78" x1="-5.383" y1="-31.965" x2="-2.263" y2="-20.963" xlink:href="#linear-gradient-8"/>
    <linearGradient id="linear-gradient-79" x1="0" y1="0.5" x2="1" y2="0.5" xlink:href="#linear-gradient-40"/>
    <linearGradient id="linear-gradient-80" x1="0" y1="0.5" x2="1" y2="0.5" xlink:href="#linear-gradient-38"/>
    <linearGradient id="linear-gradient-83" x1="0.5" y1="1" x2="0.5" y2="0.038" xlink:href="#linear-gradient-43"/>
    <linearGradient id="linear-gradient-84" x1="0.498" y1="0.205" x2="0.509" y2="0.94" xlink:href="#linear-gradient-40"/>
    <linearGradient id="linear-gradient-86" x1="0.5" y1="-0.798" x2="0.5" y2="2.394" gradientUnits="objectBoundingBox">
      <stop offset="0" stop-color="#49a5f7"/>
      <stop offset="1" stop-color="#1c6ceb"/>
    </linearGradient>
    <linearGradient id="linear-gradient-87" x1="0.5" y1="-0.798" x2="0.5" y2="2.394" xlink:href="#linear-gradient-46"/>
    <linearGradient id="linear-gradient-88" x1="0.5" y1="-0.078" x2="0.5" y2="0.788" xlink:href="#linear-gradient-86"/>
    <linearGradient id="linear-gradient-89" x1="0.5" y1="-0.608" x2="0.5" y2="2.098" xlink:href="#linear-gradient-46"/>
    <linearGradient id="linear-gradient-90" x1="0.647" y1="-0.084" x2="0.57" y2="0.387" gradientUnits="objectBoundingBox">
      <stop offset="0" stop-color="#f4cfb3"/>
      <stop offset="1" stop-color="#f2b091"/>
    </linearGradient>
    <linearGradient id="linear-gradient-92" x1="0.5" y1="-0.608" x2="0.5" y2="2.098" xlink:href="#linear-gradient-86"/>
    <linearGradient id="linear-gradient-93" x1="0.471" y1="-0.831" x2="0.528" y2="1.818" xlink:href="#linear-gradient-40"/>
    <linearGradient id="linear-gradient-94" x1="0" y1="0.5" x2="1" y2="0.5" xlink:href="#linear-gradient-43"/>
    <linearGradient id="linear-gradient-95" x1="-7.55" y1="0.5" x2="-6.55" y2="0.5" xlink:href="#linear-gradient-40"/>
    <linearGradient id="linear-gradient-96" x1="-1.163" y1="0.398" x2="-0.237" y2="0.398" xlink:href="#linear-gradient-40"/>
    <linearGradient id="linear-gradient-97" x1="-3.942" y1="0.5" x2="-2.942" y2="0.5" xlink:href="#linear-gradient-38"/>
    <linearGradient id="linear-gradient-98" x1="-5.428" y1="-1.14" x2="-5.52" y2="0.684" xlink:href="#linear-gradient-40"/>
    <linearGradient id="linear-gradient-99" x1="-5.358" y1="-0.029" x2="-5.358" y2="1.76" xlink:href="#linear-gradient-86"/>
    <linearGradient id="linear-gradient-100" x1="0.5" y1="-0.077" x2="0.5" y2="1.652" xlink:href="#linear-gradient-46"/>
    <linearGradient id="linear-gradient-101" x1="0.5" y1="0.965" x2="0.5" y2="-0.276" xlink:href="#linear-gradient-43"/>
    <linearGradient id="linear-gradient-103" x1="0.5" y1="0.028" x2="0.5" y2="0.923" xlink:href="#linear-gradient-86"/>
    <linearGradient id="linear-gradient-105" x1="-5.709" y1="-0.618" x2="-5.027" y2="0.822" xlink:href="#linear-gradient-40"/>
    <linearGradient id="linear-gradient-106" x1="-10.721" y1="0.5" x2="-9.721" y2="0.5" xlink:href="#linear-gradient-40"/>
    <linearGradient id="linear-gradient-107" x1="-4.186" y1="-0.512" x2="-3.724" y2="0.537" xlink:href="#linear-gradient-40"/>
    <linearGradient id="linear-gradient-108" x1="-21.194" y1="-4.042" x2="-18.842" y2="0.07" xlink:href="#linear-gradient-40"/>
    <linearGradient id="linear-gradient-109" x1="-2.991" y1="-0.228" x2="-2.159" y2="1.294" gradientUnits="objectBoundingBox">
      <stop offset="0" stop-color="#6ec4f7"/>
      <stop offset="1" stop-color="#489ff6"/>
    </linearGradient>
    <linearGradient id="linear-gradient-110" x1="-1.08" y1="0.005" x2="1.254" y2="0.995" xlink:href="#linear-gradient-40"/>
    <linearGradient id="linear-gradient-111" x1="-1.408" y1="-0.077" x2="-1.408" y2="1.652" xlink:href="#linear-gradient-86"/>
    <linearGradient id="linear-gradient-112" x1="4.189" y1="1.5" x2="-0.078" y2="0.458" xlink:href="#linear-gradient-109"/>
    <linearGradient id="linear-gradient-113" x1="0.913" y1="1.928" x2="-0.321" y2="-0.064" xlink:href="#linear-gradient-109"/>
    <linearGradient id="linear-gradient-114" x1="2.023" y1="3.542" x2="-0.839" y2="-0.231" xlink:href="#linear-gradient-109"/>
    <linearGradient id="linear-gradient-115" x1="0.818" y1="2.513" x2="-1.47" y2="-0.712" xlink:href="#linear-gradient-109"/>
    <linearGradient id="linear-gradient-116" x1="1.537" y1="2.946" x2="-0.692" y2="-0.217" xlink:href="#linear-gradient-109"/>
    <linearGradient id="linear-gradient-117" x1="0.551" y1="-0.068" x2="0.433" y2="1.04" xlink:href="#linear-gradient-40"/>
    <linearGradient id="linear-gradient-118" x1="7.973" y1="3.785" x2="-3.01" y2="-1.043" xlink:href="#linear-gradient-17"/>
    <linearGradient id="linear-gradient-119" x1="2.023" y1="23.54" x2="-1.063" y2="-23.142" xlink:href="#linear-gradient-17"/>
    <linearGradient id="linear-gradient-120" x1="4.519" y1="26.682" x2="-2.626" y2="-19.87" xlink:href="#linear-gradient-17"/>
    <linearGradient id="linear-gradient-121" x1="2.916" y1="20.197" x2="-2.798" y2="-26.385" xlink:href="#linear-gradient-17"/>
    <linearGradient id="linear-gradient-122" x1="3.493" y1="25.543" x2="-2.075" y2="-21.042" xlink:href="#linear-gradient-17"/>
    <linearGradient id="linear-gradient-123" x1="0.299" y1="0.219" x2="1.506" y2="1.905" xlink:href="#linear-gradient-8"/>
    <linearGradient id="linear-gradient-124" x1="1.532" y1="1.429" x2="-0.429" y2="-0.336" xlink:href="#linear-gradient-6"/>
    <linearGradient id="linear-gradient-125" x1="1.429" y1="1.817" x2="-0.071" y2="0.083" xlink:href="#linear-gradient-17"/>
    <linearGradient id="linear-gradient-126" x1="1.271" y1="1.241" x2="-0.166" y2="0.059" xlink:href="#linear-gradient-17"/>
    <linearGradient id="linear-gradient-127" x1="3.623" y1="3.031" x2="0.161" y2="0.225" xlink:href="#linear-gradient-17"/>
    <linearGradient id="linear-gradient-128" x1="0.5" y1="-0.009" x2="0.5" y2="0.922" xlink:href="#linear-gradient-17"/>
    <linearGradient id="linear-gradient-129" x1="0.5" y1="-0.212" x2="0.5" y2="0.838" xlink:href="#linear-gradient-8"/>
  </defs>
  <g id="Grupo_904444" data-name="Grupo 904444" transform="translate(-1057.845 -389.241)">
    <g id="Grupo_904395" data-name="Grupo 904395" transform="translate(1007.502 326.608)">
      <g id="Grupo_904338" data-name="Grupo 904338" transform="translate(52.051 62.633)">
        <path id="Trazado_675498" data-name="Trazado 675498" d="M210.777,71.4A140.631,140.631,0,0,0,85.307,275.449H336.246A140.63,140.63,0,0,0,210.777,71.4Z" transform="translate(-60.941 -66.56)" fill="url(#linear-gradient)"/>
        <circle id="Elipse_7582" data-name="Elipse 7582" cx="10.552" cy="10.552" r="10.552" transform="translate(40.373 16.143) rotate(-45)" fill="url(#linear-gradient-2)"/>
        <circle id="Elipse_7583" data-name="Elipse 7583" cx="6.186" cy="6.186" r="6.186" transform="translate(300.921 166.179)" fill="url(#linear-gradient-3)"/>
        <circle id="Elipse_7584" data-name="Elipse 7584" cx="2.994" cy="2.994" r="2.994" transform="translate(180.689 25.891)" fill="#fff"/>
        <circle id="Elipse_7585" data-name="Elipse 7585" cx="2.994" cy="2.994" r="2.994" transform="translate(220.745)" fill="url(#linear-gradient-4)"/>
        <circle id="Elipse_7586" data-name="Elipse 7586" cx="10.124" cy="10.124" r="10.124" transform="translate(268.991 100.158) rotate(-41.946)" fill="#fff"/>
        <path id="Trazado_675499" data-name="Trazado 675499" d="M98.24,317.1a2.178,2.178,0,1,1-2.177-2.177A2.178,2.178,0,0,1,98.24,317.1Z" transform="translate(-71.548 -175.604)" fill="#fff"/>
        <path id="Trazado_675500" data-name="Trazado 675500" d="M204.283,369.733a2.177,2.177,0,1,1-2.177-2.177A2.178,2.178,0,0,1,204.283,369.733Z" transform="translate(-119.032 -199.172)" fill="#fff"/>
        <circle id="Elipse_7587" data-name="Elipse 7587" cx="19.772" cy="19.772" r="19.772" transform="translate(0 161.789)" fill="url(#linear-gradient-5)"/>
      </g>
      <g id="Grupo_904339" data-name="Grupo 904339" transform="translate(201.602 201.299)">
        <path id="Trazado_675501" data-name="Trazado 675501" d="M337.423,364.087a26.226,26.226,0,0,0-.756-6.994,15.51,15.51,0,0,1-.359-5.243,15.776,15.776,0,0,0,0-3.126c-.383-3.955-4.656-12.857-12.049-14.12,0,0,1.282,4.614,2.439,8.149,1.49,4.554,3.1,7.391,5.622,9.876a14.327,14.327,0,0,1,4.4,9.383q.055,1.007.025,2.054Z" transform="translate(-324.254 -323.083)" fill="#fff"/>
        <path id="Trazado_675502" data-name="Trazado 675502" d="M344,352.419a15.305,15.305,0,0,1,.552-5.072,18.39,18.39,0,0,0,.42-8.861c-1.51-7.208-9.924-14.326-9.924-14.326s1.39,10.55,2.955,15.142a47.965,47.965,0,0,0,3.394,7.278,15.57,15.57,0,0,1,1.971,6.988,72.732,72.732,0,0,1-.423,11.574l.677.1A74.69,74.69,0,0,0,344,352.419Z" transform="translate(-329.087 -318.406)" fill="url(#linear-gradient-6)"/>
        <path id="Trazado_675503" data-name="Trazado 675503" d="M364.376,313.74s-7.727,5.091-9.761,13.2a13.423,13.423,0,0,0-.072,6.332,18.12,18.12,0,0,1,.092,7.317,77.941,77.941,0,0,0-.937,20.292l.679-.078a77.006,77.006,0,0,1,.685-18.658,16.693,16.693,0,0,1,3.647-8.061,23.905,23.905,0,0,0,3.956-7.2A35.289,35.289,0,0,0,364.376,313.74Z" transform="translate(-337.314 -313.74)" fill="#fff"/>
        <path id="Trazado_675504" data-name="Trazado 675504" d="M356.569,348.855a15.262,15.262,0,0,0-.168,7.8,11.235,11.235,0,0,1,.2,4.639,80.372,80.372,0,0,0-.971,14.825l.683-.03a80.107,80.107,0,0,1,.827-13.854,10.741,10.741,0,0,1,2.4-5.29,24.955,24.955,0,0,0,3.589-5.782,59.95,59.95,0,0,0,3.822-14.334S358.5,341.748,356.569,348.855Z" transform="translate(-338.29 -324.079)" fill="url(#linear-gradient-7)"/>
        <path id="Trazado_675505" data-name="Trazado 675505" d="M354.88,381.958H335.571s.589,28.808,6.564,32.342h6.18C354.291,410.766,354.88,381.958,354.88,381.958Z" transform="translate(-329.322 -344.287)" fill="#fff"/>
      </g>
      <g id="Grupo_904340" data-name="Grupo 904340" transform="translate(192.074 182.025)">
        <path id="Trazado_675506" data-name="Trazado 675506" d="M528.208,278.837h5.485a3.029,3.029,0,0,1,3.028,3.028v86.526" transform="translate(-406.053 -278.837)" fill="none" stroke="#fff" stroke-miterlimit="10" stroke-width="1"/>
        <path id="Trazado_675507" data-name="Trazado 675507" d="M528.208,314.573h5.485a3.028,3.028,0,0,1,3.028,3.028v66.792" transform="translate(-406.053 -294.839)" fill="none" stroke="#fff" stroke-miterlimit="10" stroke-width="1"/>
        <path id="Trazado_675508" data-name="Trazado 675508" d="M528.208,350.309h5.485a3.028,3.028,0,0,1,3.028,3.028V400.4" transform="translate(-406.053 -310.841)" fill="none" stroke="#fff" stroke-miterlimit="10" stroke-width="1"/>
        <path id="Trazado_675509" data-name="Trazado 675509" d="M528.208,386.045h5.485a3.028,3.028,0,0,1,3.028,3.028V416.4" transform="translate(-406.053 -326.843)" fill="none" stroke="#fff" stroke-miterlimit="10" stroke-width="1"/>
        <path id="Trazado_675510" data-name="Trazado 675510" d="M528.208,421.781h5.485a3.028,3.028,0,0,1,3.028,3.028v7.59" transform="translate(-406.053 -342.845)" fill="none" stroke="#fff" stroke-miterlimit="10" stroke-width="1"/>
        <line id="Línea_631" data-name="Línea 631" y2="65.025" transform="translate(0 24.471)" fill="none" stroke="#fff" stroke-miterlimit="10" stroke-width="1"/>
      </g>
      <g id="Grupo_904344" data-name="Grupo 904344" transform="translate(66.542 82.499)">
        <g id="Grupo_904341" data-name="Grupo 904341" transform="translate(113.821 0)">
          <circle id="Elipse_7588" data-name="Elipse 7588" cx="9.438" cy="9.438" r="9.438" transform="translate(0 18.379) rotate(-76.816)" fill="#fff"/>
          <path id="Trazado_675511" data-name="Trazado 675511" d="M306.921,113.841a3.133,3.133,0,1,1-3.107-3.536A3.342,3.342,0,0,1,306.921,113.841Z" transform="translate(-292.472 -103.845)" fill="url(#linear-gradient-8)"/>
          <path id="Trazado_675512" data-name="Trazado 675512" d="M307.642,128.094a9.433,9.433,0,0,1-13.849,0,8.411,8.411,0,0,1,1.137-1.2,8.565,8.565,0,0,1,4.567-2.014,10.209,10.209,0,0,1,2.442,0A8.522,8.522,0,0,1,307.642,128.094Z" transform="translate(-289.376 -110.341)" fill="url(#linear-gradient-9)"/>
        </g>
        <g id="Grupo_904342" data-name="Grupo 904342" transform="translate(229.147 60.828)">
          <circle id="Elipse_7589" data-name="Elipse 7589" cx="4.719" cy="4.719" r="4.719" fill="#fff"/>
          <path id="Trazado_675513" data-name="Trazado 675513" d="M503.474,214.652a1.566,1.566,0,1,1-1.553-1.768A1.671,1.671,0,0,1,503.474,214.652Z" transform="translate(-497.201 -210.606)" fill="url(#linear-gradient-8)"/>
          <path id="Trazado_675514" data-name="Trazado 675514" d="M503.835,221.779a4.717,4.717,0,0,1-6.925,0,4.194,4.194,0,0,1,.568-.6,4.279,4.279,0,0,1,2.283-1.007,5.131,5.131,0,0,1,1.221,0A4.265,4.265,0,0,1,503.835,221.779Z" transform="translate(-495.653 -213.854)" fill="url(#linear-gradient-11)"/>
        </g>
        <g id="Grupo_904343" data-name="Grupo 904343" transform="translate(0 91.816)">
          <circle id="Elipse_7590" data-name="Elipse 7590" cx="6.469" cy="6.469" r="6.469" fill="#fff"/>
          <path id="Trazado_675515" data-name="Trazado 675515" d="M91.8,272.953a2.147,2.147,0,1,1-2.129-2.424A2.291,2.291,0,0,1,91.8,272.953Z" transform="translate(-83.197 -267.406)" fill="url(#linear-gradient-12)"/>
          <path id="Trazado_675516" data-name="Trazado 675516" d="M92.291,282.723a6.465,6.465,0,0,1-9.493,0,5.789,5.789,0,0,1,.779-.82,5.871,5.871,0,0,1,3.131-1.381,7.019,7.019,0,0,1,1.674,0A5.842,5.842,0,0,1,92.291,282.723Z" transform="translate(-81.075 -271.859)" fill="url(#linear-gradient-13)"/>
        </g>
      </g>
      <g id="Grupo_904350" data-name="Grupo 904350" transform="translate(151.599 84.984)">
        <path id="Trazado_675517" data-name="Trazado 675517" d="M250.559,123.181a2.718,2.718,0,1,1-2.717-2.717A2.717,2.717,0,0,1,250.559,123.181Z" transform="translate(-238.818 -110.88)" fill="#fff"/>
        <g id="Grupo_904349" data-name="Grupo 904349">
          <g id="Grupo_904345" data-name="Grupo 904345" transform="translate(4.203 6.73)">
            <path id="Trazado_675518" data-name="Trazado 675518" d="M242.044,119.006a.728.728,0,0,1-.614-1.117,5.569,5.569,0,0,1,9.414,0,.728.728,0,0,1-1.23.78,4.112,4.112,0,0,0-6.954,0A.728.728,0,0,1,242.044,119.006Z" transform="translate(-241.317 -115.296)" fill="#fff"/>
          </g>
          <g id="Grupo_904346" data-name="Grupo 904346" transform="translate(2.779 4.486)">
            <path id="Trazado_675519" data-name="Trazado 675519" d="M239.464,115.327a.728.728,0,0,1-.566-1.185,7.813,7.813,0,0,1,12.167,0,.728.728,0,0,1-1.133.914,6.357,6.357,0,0,0-9.9,0A.726.726,0,0,1,239.464,115.327Z" transform="translate(-238.737 -111.232)" fill="#fff"/>
          </g>
          <g id="Grupo_904347" data-name="Grupo 904347" transform="translate(1.383 2.242)">
            <path id="Trazado_675520" data-name="Trazado 675520" d="M250.762,111.687a.725.725,0,0,1-.54-.239,8.6,8.6,0,0,0-12.746,0,.728.728,0,0,1-1.078-.978,10.057,10.057,0,0,1,14.9,0,.728.728,0,0,1-.539,1.217Z" transform="translate(-236.209 -107.168)" fill="#fff"/>
          </g>
          <g id="Grupo_904348" data-name="Grupo 904348">
            <path id="Trazado_675521" data-name="Trazado 675521" d="M251.024,108.066a.726.726,0,0,1-.522-.22,10.847,10.847,0,0,0-15.547,0,.728.728,0,0,1-1.044-1.016,12.3,12.3,0,0,1,17.635,0,.728.728,0,0,1-.522,1.235Z" transform="translate(-233.705 -103.108)" fill="#fff"/>
          </g>
          <path id="Trazado_675522" data-name="Trazado 675522" d="M253.859,125.386" transform="translate(-242.73 -113.084)" fill="#fff"/>
        </g>
      </g>
      <g id="Grupo_904366" data-name="Grupo 904366" transform="translate(223.646 173.264)">
        <g id="Grupo_904353" data-name="Grupo 904353" transform="translate(0 78.429)">
          <g id="Grupo_904352" data-name="Grupo 904352">
            <rect id="Rectángulo_303281" data-name="Rectángulo 303281" width="88.441" height="17.523" rx="8.761" fill="url(#linear-gradient-14)"/>
            <g id="Grupo_904351" data-name="Grupo 904351" transform="translate(4.322 3.898)">
              <rect id="Rectángulo_303282" data-name="Rectángulo 303282" width="7.013" height="9.727" rx="1.293" fill="url(#linear-gradient-15)"/>
              <rect id="Rectángulo_303283" data-name="Rectángulo 303283" width="7.013" height="9.727" rx="1.293" transform="translate(8.916)" fill="url(#linear-gradient-16)"/>
              <rect id="Rectángulo_303284" data-name="Rectángulo 303284" width="39.917" height="9.727" rx="1.293" transform="translate(17.833)" fill="#fff"/>
              <path id="Trazado_675523" data-name="Trazado 675523" d="M486.111,418.862a2.5,2.5,0,1,1-2.5-2.5A2.5,2.5,0,0,1,486.111,418.862Z" transform="translate(-420.857 -413.983)" fill="url(#linear-gradient-17)"/>
              <path id="Trazado_675524" data-name="Trazado 675524" d="M498.467,418.862a2.5,2.5,0,1,1-2.5-2.5A2.5,2.5,0,0,1,498.467,418.862Z" transform="translate(-426.39 -413.983)" fill="#fff"/>
              <rect id="Rectángulo_303285" data-name="Rectángulo 303285" width="6.252" height="2.175" rx="0.855" transform="translate(73.545 3.776)" fill="url(#linear-gradient-18)"/>
            </g>
          </g>
          <rect id="Rectángulo_303286" data-name="Rectángulo 303286" width="6.255" height="2.084" transform="translate(7.829 17.523)" fill="#fff"/>
          <rect id="Rectángulo_303287" data-name="Rectángulo 303287" width="6.255" height="2.084" transform="translate(74.74 17.523)" fill="#fff"/>
          <path id="Rectángulo_303288" data-name="Rectángulo 303288" d="M0,0H.612a1.53,1.53,0,0,1,1.53,1.53V2.983a1.53,1.53,0,0,1-1.53,1.53H0a0,0,0,0,1,0,0V0A0,0,0,0,1,0,0Z" transform="translate(88.441 6.505)" fill="url(#linear-gradient-19)"/>
        </g>
        <g id="Grupo_904356" data-name="Grupo 904356" transform="translate(0 58.822)">
          <g id="Grupo_904355" data-name="Grupo 904355">
            <rect id="Rectángulo_303289" data-name="Rectángulo 303289" width="88.441" height="17.523" rx="8.761" fill="url(#linear-gradient-20)"/>
            <g id="Grupo_904354" data-name="Grupo 904354" transform="translate(4.322 3.898)">
              <rect id="Rectángulo_303290" data-name="Rectángulo 303290" width="7.013" height="9.727" rx="1.293" fill="url(#linear-gradient-21)"/>
              <rect id="Rectángulo_303291" data-name="Rectángulo 303291" width="7.013" height="9.727" rx="1.293" transform="translate(8.916)" fill="#fff"/>
              <rect id="Rectángulo_303292" data-name="Rectángulo 303292" width="39.917" height="9.727" rx="1.293" transform="translate(17.833)" fill="#fff"/>
              <path id="Trazado_675525" data-name="Trazado 675525" d="M486.111,383.355a2.5,2.5,0,1,1-2.5-2.5A2.5,2.5,0,0,1,486.111,383.355Z" transform="translate(-420.857 -378.477)" fill="url(#linear-gradient-22)"/>
              <path id="Trazado_675526" data-name="Trazado 675526" d="M498.467,383.355a2.5,2.5,0,1,1-2.5-2.5A2.5,2.5,0,0,1,498.467,383.355Z" transform="translate(-426.39 -378.477)" fill="#fff"/>
              <rect id="Rectángulo_303293" data-name="Rectángulo 303293" width="6.252" height="2.175" rx="0.855" transform="translate(73.545 3.776)" fill="#fff"/>
            </g>
          </g>
          <rect id="Rectángulo_303294" data-name="Rectángulo 303294" width="6.255" height="2.085" transform="translate(7.829 17.523)" fill="#fff"/>
          <rect id="Rectángulo_303295" data-name="Rectángulo 303295" width="6.255" height="2.085" transform="translate(74.74 17.523)" fill="#fff"/>
          <path id="Rectángulo_303296" data-name="Rectángulo 303296" d="M0,0H.612a1.53,1.53,0,0,1,1.53,1.53V2.983a1.53,1.53,0,0,1-1.53,1.53H0a0,0,0,0,1,0,0V0A0,0,0,0,1,0,0Z" transform="translate(88.441 6.505)" fill="url(#linear-gradient-19)"/>
        </g>
        <g id="Grupo_904359" data-name="Grupo 904359" transform="translate(0 39.215)">
          <g id="Grupo_904358" data-name="Grupo 904358">
            <rect id="Rectángulo_303297" data-name="Rectángulo 303297" width="88.441" height="17.523" rx="8.761" fill="url(#linear-gradient-24)"/>
            <g id="Grupo_904357" data-name="Grupo 904357" transform="translate(4.322 3.898)">
              <rect id="Rectángulo_303298" data-name="Rectángulo 303298" width="7.013" height="9.727" rx="1.293" fill="url(#linear-gradient-25)"/>
              <rect id="Rectángulo_303299" data-name="Rectángulo 303299" width="7.013" height="9.727" rx="1.293" transform="translate(8.916)" fill="url(#linear-gradient-26)"/>
              <rect id="Rectángulo_303300" data-name="Rectángulo 303300" width="39.917" height="9.727" rx="1.293" transform="translate(17.833)" fill="#fff"/>
              <path id="Trazado_675527" data-name="Trazado 675527" d="M486.111,347.849a2.5,2.5,0,1,1-2.5-2.5A2.5,2.5,0,0,1,486.111,347.849Z" transform="translate(-420.857 -342.97)" fill="url(#linear-gradient-22)"/>
              <path id="Trazado_675528" data-name="Trazado 675528" d="M498.467,347.849a2.5,2.5,0,1,1-2.5-2.5A2.5,2.5,0,0,1,498.467,347.849Z" transform="translate(-426.39 -342.97)" fill="url(#linear-gradient-28)"/>
              <rect id="Rectángulo_303301" data-name="Rectángulo 303301" width="6.252" height="2.175" rx="0.855" transform="translate(73.545 3.776)" fill="#fff"/>
            </g>
          </g>
          <rect id="Rectángulo_303302" data-name="Rectángulo 303302" width="6.255" height="2.085" transform="translate(7.829 17.523)" fill="#fff"/>
          <rect id="Rectángulo_303303" data-name="Rectángulo 303303" width="6.255" height="2.085" transform="translate(74.74 17.523)" fill="#fff"/>
          <path id="Rectángulo_303304" data-name="Rectángulo 303304" d="M0,0H.612a1.53,1.53,0,0,1,1.53,1.53V2.983a1.53,1.53,0,0,1-1.53,1.53H0a0,0,0,0,1,0,0V0A0,0,0,0,1,0,0Z" transform="translate(88.441 6.505)" fill="url(#linear-gradient-19)"/>
        </g>
        <g id="Grupo_904362" data-name="Grupo 904362" transform="translate(0 19.607)">
          <g id="Grupo_904361" data-name="Grupo 904361">
            <rect id="Rectángulo_303305" data-name="Rectángulo 303305" width="88.441" height="17.523" rx="8.761" fill="url(#linear-gradient-30)"/>
            <g id="Grupo_904360" data-name="Grupo 904360" transform="translate(4.322 3.898)">
              <rect id="Rectángulo_303306" data-name="Rectángulo 303306" width="7.013" height="9.727" rx="1.293" fill="url(#linear-gradient-31)"/>
              <rect id="Rectángulo_303307" data-name="Rectángulo 303307" width="7.013" height="9.727" rx="1.293" transform="translate(8.916)" fill="#fff"/>
              <rect id="Rectángulo_303308" data-name="Rectángulo 303308" width="39.917" height="9.727" rx="1.293" transform="translate(17.833)" fill="#fff"/>
              <path id="Trazado_675529" data-name="Trazado 675529" d="M486.111,312.343a2.5,2.5,0,1,1-2.5-2.5A2.5,2.5,0,0,1,486.111,312.343Z" transform="translate(-420.857 -307.464)" fill="url(#linear-gradient-32)"/>
              <path id="Trazado_675530" data-name="Trazado 675530" d="M498.467,312.343a2.5,2.5,0,1,1-2.5-2.5A2.5,2.5,0,0,1,498.467,312.343Z" transform="translate(-426.39 -307.464)" fill="url(#linear-gradient-33)"/>
              <rect id="Rectángulo_303309" data-name="Rectángulo 303309" width="6.252" height="2.175" rx="0.855" transform="translate(73.545 3.776)" fill="#fff"/>
            </g>
          </g>
          <rect id="Rectángulo_303310" data-name="Rectángulo 303310" width="6.255" height="2.085" transform="translate(7.829 17.523)" fill="#fff"/>
          <rect id="Rectángulo_303311" data-name="Rectángulo 303311" width="6.255" height="2.085" transform="translate(74.74 17.523)" fill="#fff"/>
          <path id="Rectángulo_303312" data-name="Rectángulo 303312" d="M0,0H.612a1.53,1.53,0,0,1,1.53,1.53V2.983a1.53,1.53,0,0,1-1.53,1.53H0a0,0,0,0,1,0,0V0A0,0,0,0,1,0,0Z" transform="translate(88.441 6.505)" fill="url(#linear-gradient-19)"/>
        </g>
        <g id="Grupo_904365" data-name="Grupo 904365" transform="translate(0 0)">
          <g id="Grupo_904364" data-name="Grupo 904364">
            <rect id="Rectángulo_303313" data-name="Rectángulo 303313" width="88.441" height="17.523" rx="8.761" fill="url(#linear-gradient-35)"/>
            <g id="Grupo_904363" data-name="Grupo 904363" transform="translate(4.322 3.898)">
              <rect id="Rectángulo_303314" data-name="Rectángulo 303314" width="7.013" height="9.727" rx="1.293" fill="#fff"/>
              <rect id="Rectángulo_303315" data-name="Rectángulo 303315" width="7.013" height="9.727" rx="1.293" transform="translate(8.916)" fill="#fff"/>
              <rect id="Rectángulo_303316" data-name="Rectángulo 303316" width="39.917" height="9.727" rx="1.293" transform="translate(17.833)" fill="#fff"/>
              <path id="Trazado_675531" data-name="Trazado 675531" d="M486.111,276.836a2.5,2.5,0,1,1-2.5-2.5A2.5,2.5,0,0,1,486.111,276.836Z" transform="translate(-420.857 -271.958)" fill="#fff"/>
              <path id="Trazado_675532" data-name="Trazado 675532" d="M498.467,276.836a2.5,2.5,0,1,1-2.5-2.5A2.5,2.5,0,0,1,498.467,276.836Z" transform="translate(-426.39 -271.958)" fill="url(#linear-gradient-36)"/>
              <rect id="Rectángulo_303317" data-name="Rectángulo 303317" width="6.252" height="2.175" rx="0.855" transform="translate(73.545 3.776)" fill="#fff"/>
            </g>
          </g>
          <rect id="Rectángulo_303318" data-name="Rectángulo 303318" width="6.255" height="2.085" transform="translate(7.829 17.523)" fill="#fff"/>
          <rect id="Rectángulo_303319" data-name="Rectángulo 303319" width="6.255" height="2.085" transform="translate(74.74 17.523)" fill="#fff"/>
          <path id="Rectángulo_303320" data-name="Rectángulo 303320" d="M0,0H.612a1.53,1.53,0,0,1,1.53,1.53V2.983a1.53,1.53,0,0,1-1.53,1.53H0a0,0,0,0,1,0,0V0A0,0,0,0,1,0,0Z" transform="translate(88.441 6.505)" fill="url(#linear-gradient-19)"/>
        </g>
      </g>
      <g id="Grupo_904368" data-name="Grupo 904368" transform="translate(213.642 119.083)">
        <path id="Trazado_675533" data-name="Trazado 675533" d="M387.132,326.105s.518,1.09.845,1.947a5.058,5.058,0,0,1-.092,2.4h-.676s-2.676,1.993-3.988,2.8-1.854,1.091-2.548,1.1c-.518.005-1.816-.391-1.69-1.2s4.327-6.439,4.327-6.439S386.2,326.77,387.132,326.105Z" transform="translate(-360.797 -237.06)" fill="url(#linear-gradient-38)"/>
        <path id="Trazado_675534" data-name="Trazado 675534" d="M360.911,289.93a19.843,19.843,0,0,1,1.3,1.726,7.2,7.2,0,0,1,.743,2.995l-10.309,4.9s-1.781-1.139-.184-3.037c2.094-2.489,4.147-4.97,4.147-4.97A9.635,9.635,0,0,0,360.911,289.93Z" transform="translate(-348.626 -220.862)" fill="url(#linear-gradient-39)"/>
        <path id="Trazado_675535" data-name="Trazado 675535" d="M358.76,286l.966,3.244a5.986,5.986,0,0,0,4.3-1.611l-.644-2.83" transform="translate(-351.745 -218.567)" fill="url(#linear-gradient-40)"/>
        <path id="Trazado_675536" data-name="Trazado 675536" d="M376.753,239.769a33.274,33.274,0,0,0,6.108.267c2.564-.291.184-2.731.184-2.731l-6.018,1.449Z" transform="translate(-359.802 -197.297)" fill="url(#linear-gradient-41)"/>
        <path id="Trazado_675537" data-name="Trazado 675537" d="M375.544,243.73l-.7,8.195h-8.184a67.571,67.571,0,0,1-7.079-2.364c-1.369-.541-2.822-1.171-4.247-1.878a14.069,14.069,0,0,1,1.022,4.44c.961,7.466,1.767,12.916,1.767,12.916a8.772,8.772,0,0,1-4.975,1.491s-6.085-16.522-7.024-22.315c-.514-3.181,1.7-6.671,8.731-5.776,2.5.32,8.963,1.988,11.315,2.551A88.368,88.368,0,0,1,375.544,243.73Z" transform="translate(-346.056 -197.742)" fill="url(#linear-gradient-39)"/>
        <path id="Trazado_675538" data-name="Trazado 675538" d="M383.085,261.059h-5.45a67.57,67.57,0,0,1-7.079-2.364,43.3,43.3,0,0,0,10.334,1.545C382.359,260.25,382.952,260.346,383.085,261.059Z" transform="translate(-357.026 -206.875)" opacity="0.5" fill="url(#linear-gradient-43)" style="mix-blend-mode: multiply;isolation: isolate"/>
        <path id="Trazado_675539" data-name="Trazado 675539" d="M385.7,321.79l.62,2.995s2.892.526,3.821-.612l-.182-2.11" transform="translate(-363.809 -235.128)" fill="url(#linear-gradient-44)"/>
        <path id="Trazado_675540" data-name="Trazado 675540" d="M399.788,246s-7.461,2.107-11.165.123c0,0-11.47,14.036-11.919,19.328-.115,1.363,1.742,8.756,3.175,15.048,1.173,5.147,1.966,9.526,1.966,9.526a14.5,14.5,0,0,0,4.384-.6s-.425-18.244-1.854-22.777c3.51-2.5,9.033-6.314,12.275-10.237a2.815,2.815,0,0,1,2.166-1.04h0S401.611,251.858,399.788,246Z" transform="translate(-359.777 -201.19)" fill="url(#linear-gradient-45)"/>
        <path id="Trazado_675541" data-name="Trazado 675541" d="M382.429,211.843c-.4-.095-.776-.2-1.139-.306-3.726-1.1-4.76-2.4-4.76-2.4,2.339-6.561,3.821-8.035,4.915-9.244,2.016-2.226.493,4.885.259,5.01Z" transform="translate(-359.702 -180.351)" fill="url(#linear-gradient-46)"/>
        <path id="Trazado_675542" data-name="Trazado 675542" d="M385.045,210.118l-.857,3.969,2.071-.518Z" transform="translate(-363.131 -185.124)" fill="url(#linear-gradient-47)" style="mix-blend-mode: multiply;isolation: isolate"/>
        <path id="Trazado_675543" data-name="Trazado 675543" d="M403.423,222.387c.127,1.06.759,1.45.751,2.667,0,.293-1,1.543-3.558,2a10.594,10.594,0,0,1-10.693-1.93,26.9,26.9,0,0,0-5.361-3.386c-.12-.08-.1-.29.043-.489.113-.159.756-1.109.77-1.188,1.021-5.5.161-6.047.1-10.255,0-.1-.006-.21-.006-.315-.11-6.489-.767-9.733-.463-11.738,1.5-1.68,5.654-3,5.919-3.056.011-.006,4.368-.033,5.318,0,2.175.559,6.022,1.716,7.938,4.977-.1,2.606.064,5.773-.251,9.832C403.876,210.116,402.876,217.864,403.423,222.387Z" transform="translate(-363.264 -178.21)" fill="url(#linear-gradient-48)"/>
        <g id="Grupo_904367" data-name="Grupo 904367" transform="translate(22.041)">
          <path id="Trazado_675544" data-name="Trazado 675544" d="M388.211,176.618s-.328,2.26.725,2.674l.414-2.5" transform="translate(-386.951 -170.123)" fill="#192139"/>
          <path id="Trazado_675545" data-name="Trazado 675545" d="M396.879,194.021c-2.549-.306-1.4-2.9-1.133-3.248l0,0s.424-2.767.458-2.9l4.325-1.888s.1,4.724.534,4.788C401.724,191.088,400.844,194.493,396.879,194.021Z" transform="translate(-390.127 -174.32)" fill="url(#linear-gradient-49)"/>
          <path id="Trazado_675546" data-name="Trazado 675546" d="M399.525,188.836a4.664,4.664,0,0,1-3.165,2.468l.343-2.152Z" transform="translate(-390.622 -175.594)" fill="url(#linear-gradient-50)" style="mix-blend-mode: multiply;isolation: isolate"/>
          <path id="Trazado_675547" data-name="Trazado 675547" d="M389.076,173.564s-.979,7.451,2.308,8.674a6.173,6.173,0,0,0,5.181-2.257c.549-.739,1.244-.906,1.471-1.8.368-1.45.888-4.124.225-5.736C397.317,170.152,389.166,167.975,389.076,173.564Z" transform="translate(-387.3 -167.176)" fill="url(#linear-gradient-51)"/>
          <path id="Trazado_675548" data-name="Trazado 675548" d="M389.942,166.012s.765-1.771,3.123-.929a5.453,5.453,0,0,1,2.492,1.816.849.849,0,0,1,1.263.283,2.6,2.6,0,0,1,.141,1.672c3.921.718-.038,9.046-.086,9.316l-.419.245c-.111-1.219-.076-2.334-.146-3.185-.021-.257-.429-.406-.524-.587a2.506,2.506,0,0,1-1.966-.254,3.646,3.646,0,0,1-1-2.451c-.727.246-6.713,1.191-6.42-2.226a4.192,4.192,0,0,1-.358-1.06C385.339,164.414,389.942,166.012,389.942,166.012Z" transform="translate(-385.969 -164.856)" fill="#192139"/>
          <path id="Trazado_675549" data-name="Trazado 675549" d="M401.859,182.892c1.483.568,1.946-3.082.538-3.244-1.068-.123-1.112,1.367-1.112,1.367S401.012,182.568,401.859,182.892Z" transform="translate(-392.809 -171.477)" fill="url(#linear-gradient-52)"/>
        </g>
        <path id="Trazado_675550" data-name="Trazado 675550" d="M408.91,212.746l1.706,5.624,3.451.483Z" transform="translate(-374.201 -186.3)" fill="url(#linear-gradient-53)" style="mix-blend-mode: multiply;isolation: isolate"/>
        <path id="Trazado_675551" data-name="Trazado 675551" d="M412.184,217.1a85.794,85.794,0,0,0-3.936-9.33l-5.771,3.313s2.2,4.4,3.666,7.476c-1.41.345-5.051,1.257-7.841,2.156a35.838,35.838,0,0,1-6.817,1.456,16.125,16.125,0,0,1,.152,2.08,141.923,141.923,0,0,0,14.542-.071,20.4,20.4,0,0,0,4.37-.6c1.349-.464,2.266-.828,2.328-2.237A12.36,12.36,0,0,0,412.184,217.1Z" transform="translate(-366.398 -184.072)" fill="url(#linear-gradient-54)"/>
        <path id="Trazado_675552" data-name="Trazado 675552" d="M397.264,240h-8v-.783h8a.391.391,0,0,1,.391.392h0A.391.391,0,0,1,397.264,240Z" transform="translate(-365.406 -198.155)" fill="#fff"/>
        <path id="Trazado_675553" data-name="Trazado 675553" d="M376.666,227.834H357.56a.534.534,0,0,1-.515-.39l-4.1-14.749a.513.513,0,0,1,.494-.649h18.446a1,1,0,0,1,.967.736l4.083,14.7A.282.282,0,0,1,376.666,227.834Z" transform="translate(-349.134 -185.986)" fill="#fff"/>
        <path id="Trazado_675554" data-name="Trazado 675554" d="M375.354,227.834H356.248a.533.533,0,0,1-.514-.39l-4.1-14.749a.513.513,0,0,1,.494-.649h18.446a1,1,0,0,1,.967.736l4.082,14.7A.282.282,0,0,1,375.354,227.834Z" transform="translate(-348.547 -185.986)" fill="url(#linear-gradient-19)"/>
        <path id="Trazado_675555" data-name="Trazado 675555" d="M364.063,240.637s.329.74,1.83.891l-.1-.891Z" transform="translate(-354.119 -198.789)" fill="url(#linear-gradient-56)"/>
        <path id="Trazado_675556" data-name="Trazado 675556" d="M364.7,235.17c.033-.141.368-.294.638-.2a5.207,5.207,0,0,1-.2-.633c.028-.391.409-.341.626-.22.25.14.541.785.62.855a2.533,2.533,0,0,1-.194-.475.574.574,0,0,1,.862-.157,8.5,8.5,0,0,1,.707,1.081,1.155,1.155,0,0,1-.045-.233c.055-.232.493-.315.786-.047a8,8,0,0,1,1.044,1.824h0c.283.636.544.716.627.716h1.572a1.28,1.28,0,0,1-.861.9,10.25,10.25,0,0,1-3.3.36,2.432,2.432,0,0,1-1.984-.919,11.888,11.888,0,0,1-.561-1.782h0C364.961,236.021,364.69,235.193,364.7,235.17Z" transform="translate(-354.403 -195.829)" fill="url(#linear-gradient-57)"/>
        <path id="Trazado_675557" data-name="Trazado 675557" d="M414.474,203.72s1.275,1.593,3.554,7.125a27.385,27.385,0,0,1-7.62,2.843s-.878-1.774-2.94-6.966" transform="translate(-373.555 -182.259)" fill="url(#linear-gradient-58)"/>
      </g>
      <g id="Grupo_904375" data-name="Grupo 904375" transform="translate(155.479 165.711)">
        <g id="Grupo_904369" data-name="Grupo 904369" transform="translate(17.577 29.025)">
          <rect id="Rectángulo_303321" data-name="Rectángulo 303321" width="12.498" height="76.919" transform="translate(13.199 76.919) rotate(180)" fill="url(#linear-gradient-59)"/>
          <rect id="Rectángulo_303322" data-name="Rectángulo 303322" width="11.541" height="76.919" transform="translate(11.541 76.919) rotate(180)" fill="url(#linear-gradient-60)"/>
          <rect id="Rectángulo_303323" data-name="Rectángulo 303323" width="11.541" height="2.728" transform="translate(0 12.362)" opacity="0.5" fill="url(#linear-gradient-61)" style="mix-blend-mode: multiply;isolation: isolate"/>
        </g>
        <g id="Grupo_904374" data-name="Grupo 904374">
          <path id="Trazado_675558" data-name="Trazado 675558" d="M241.187,289.539l2.238-.266,5.978-37.686a.739.739,0,0,1,.73-.623h41.339l.406-1.292,1.641,1.04c.017.011.035.02.051.033l0,0h0a.738.738,0,0,1,.272.694l-6.152,38.783a.739.739,0,0,1-.73.623H243.426a.731.731,0,0,1-.493-.193v0Z" transform="translate(-240.935 -249.463)" fill="url(#linear-gradient-62)"/>
          <path id="Trazado_675559" data-name="Trazado 675559" d="M241.47,289.555h43.537a.739.739,0,0,0,.73-.623l6.151-38.783a.739.739,0,0,0-.73-.855H247.622a.739.739,0,0,0-.73.623L240.74,288.7A.739.739,0,0,0,241.47,289.555Z" transform="translate(-240.731 -249.294)" fill="url(#linear-gradient-63)"/>
          <path id="Trazado_675560" data-name="Trazado 675560" d="M245.377,289.207H285.34a.469.469,0,0,0,.463-.4l5.653-35.639a.469.469,0,0,0-.464-.543H251.03a.47.47,0,0,0-.464.4l-5.653,35.639A.47.47,0,0,0,245.377,289.207Z" transform="translate(-242.601 -250.787)" fill="#fff"/>
          <path id="Trazado_675561" data-name="Trazado 675561" d="M270.337,277.946h13.284a.594.594,0,0,0,.587-.5l1.866-11.763a.6.6,0,0,0-.587-.688H272.2a.594.594,0,0,0-.586.5l-1.866,11.764A.594.594,0,0,0,270.337,277.946Z" transform="translate(-253.722 -256.324)" fill="url(#linear-gradient-64)"/>
          <g id="Grupo_904370" data-name="Grupo 904370" transform="translate(18.016 9.822)">
            <path id="Trazado_675562" data-name="Trazado 675562" d="M274.48,279.559h-.917a.2.2,0,0,1-.2-.243l1.1-6.91a.3.3,0,0,1,.282-.243h.917a.2.2,0,0,1,.2.243l-1.1,6.91A.3.3,0,0,1,274.48,279.559Z" transform="translate(-273.355 -269.357)" fill="#eef6fd"/>
            <path id="Trazado_675563" data-name="Trazado 675563" d="M278.768,280.721h-.917a.2.2,0,0,1-.2-.243l.87-5.478a.3.3,0,0,1,.282-.243h.917a.2.2,0,0,1,.2.243l-.87,5.478A.3.3,0,0,1,278.768,280.721Z" transform="translate(-275.275 -270.518)" fill="#eef6fd"/>
            <path id="Trazado_675564" data-name="Trazado 675564" d="M283.056,279.891h-.917a.2.2,0,0,1-.2-.243l1.033-6.5a.3.3,0,0,1,.282-.244h.917a.2.2,0,0,1,.2.244l-1.033,6.5A.3.3,0,0,1,283.056,279.891Z" transform="translate(-277.195 -269.688)" fill="#eef6fd"/>
            <path id="Trazado_675565" data-name="Trazado 675565" d="M287.344,277.284h-.917a.2.2,0,0,1-.2-.243l1.543-9.717a.3.3,0,0,1,.282-.243h.917a.2.2,0,0,1,.2.243l-1.543,9.717A.3.3,0,0,1,287.344,277.284Z" transform="translate(-279.116 -267.081)" fill="#eef6fd"/>
            <path id="Trazado_675566" data-name="Trazado 675566" d="M291.632,278.92h-.917a.2.2,0,0,1-.2-.243l1.223-7.7a.3.3,0,0,1,.282-.243h.917a.2.2,0,0,1,.2.243l-1.223,7.7A.3.3,0,0,1,291.632,278.92Z" transform="translate(-281.036 -268.717)" fill="#eef6fd"/>
          </g>
          <path id="Trazado_675567" data-name="Trazado 675567" d="M301.077,297.713h7.292a.326.326,0,0,0,.322-.275l1.024-6.458a.326.326,0,0,0-.322-.377H302.1a.326.326,0,0,0-.323.275l-1.024,6.458A.326.326,0,0,0,301.077,297.713Z" transform="translate(-267.607 -267.791)" fill="url(#linear-gradient-26)"/>
          <path id="Trazado_675568" data-name="Trazado 675568" d="M274,304.551h16.187a.443.443,0,0,0,.438-.374l1.394-8.786a.444.444,0,0,0-.438-.514H275.394a.444.444,0,0,0-.438.374l-1.393,8.786A.444.444,0,0,0,274,304.551Z" transform="translate(-255.43 -269.706)" opacity="0.5" fill="url(#linear-gradient-26)"/>
          <path id="Trazado_675569" data-name="Trazado 675569" d="M277.33,300.662l-.589,3.712h14.238l.728-4.591a2.284,2.284,0,0,0-2.086.185c-.939.516-2.3,2-3.24,1.9s-1.521-2.507-2.8-2.49-2.32,2.647-3.344,2.675S278,300.632,277.33,300.662Z" transform="translate(-256.856 -271.719)" fill="#fff"/>
          <path id="Trazado_675570" data-name="Trazado 675570" d="M304.879,266.974h7.867a.215.215,0,0,0,.213-.182l.677-4.27a.215.215,0,0,0-.213-.25h-7.867a.215.215,0,0,0-.213.182l-.678,4.27A.216.216,0,0,0,304.879,266.974Z" transform="translate(-269.359 -255.106)" fill="url(#linear-gradient-26)"/>
          <g id="Grupo_904371" data-name="Grupo 904371" transform="translate(35.69 12.797)" opacity="0.4">
            <path id="Trazado_675571" data-name="Trazado 675571" d="M306.238,273.05h5.486a.355.355,0,0,0,.338-.292h0a.243.243,0,0,0-.246-.292H306.33a.354.354,0,0,0-.337.292h0A.242.242,0,0,0,306.238,273.05Z" transform="translate(-305.643 -272.467)" fill="url(#linear-gradient-68)"/>
            <path id="Trazado_675572" data-name="Trazado 675572" d="M305.924,275.032h5.486a.355.355,0,0,0,.338-.292h0a.243.243,0,0,0-.246-.292h-5.485a.355.355,0,0,0-.338.292h0A.243.243,0,0,0,305.924,275.032Z" transform="translate(-305.502 -273.354)" fill="url(#linear-gradient-69)"/>
            <path id="Trazado_675573" data-name="Trazado 675573" d="M305.611,277.013H311.1a.355.355,0,0,0,.338-.292h0a.243.243,0,0,0-.246-.292H305.7a.355.355,0,0,0-.338.292h0A.243.243,0,0,0,305.611,277.013Z" transform="translate(-305.361 -274.241)" fill="url(#linear-gradient-70)"/>
            <path id="Trazado_675574" data-name="Trazado 675574" d="M310.792,278.995h2.451a.355.355,0,0,0,.338-.292h0a.243.243,0,0,0-.246-.292h-2.451a.355.355,0,0,0-.338.292h0A.243.243,0,0,0,310.792,278.995Z" transform="translate(-307.681 -275.129)" fill="url(#linear-gradient-71)"/>
          </g>
          <g id="Grupo_904372" data-name="Grupo 904372" transform="translate(7.684 28.698)" opacity="0.4">
            <path id="Trazado_675575" data-name="Trazado 675575" d="M255.878,302.082h7.705a.5.5,0,0,0,.475-.41h0a.341.341,0,0,0-.345-.41h-7.705a.5.5,0,0,0-.475.41h0A.342.342,0,0,0,255.878,302.082Z" transform="translate(-255.041 -301.262)" fill="url(#linear-gradient-72)"/>
            <path id="Trazado_675576" data-name="Trazado 675576" d="M255.437,304.865h7.705a.5.5,0,0,0,.475-.41h0a.341.341,0,0,0-.345-.41h-7.705a.5.5,0,0,0-.475.41h0A.342.342,0,0,0,255.437,304.865Z" transform="translate(-254.844 -302.508)" fill="url(#linear-gradient-73)"/>
            <path id="Trazado_675577" data-name="Trazado 675577" d="M255,307.648H262.7a.5.5,0,0,0,.475-.41h0a.341.341,0,0,0-.345-.41h-7.705a.5.5,0,0,0-.474.41h0A.341.341,0,0,0,255,307.648Z" transform="translate(-254.647 -303.755)" fill="url(#linear-gradient-74)"/>
            <path id="Trazado_675578" data-name="Trazado 675578" d="M262.274,310.432h3.443a.5.5,0,0,0,.475-.41h0a.341.341,0,0,0-.345-.41H262.4a.5.5,0,0,0-.475.41h0A.341.341,0,0,0,262.274,310.432Z" transform="translate(-257.905 -305.001)" fill="url(#linear-gradient-75)"/>
          </g>
          <g id="Grupo_904373" data-name="Grupo 904373" transform="translate(9.945 7.161)" opacity="0.5">
            <path id="Trazado_675579" data-name="Trazado 675579" d="M259.282,262.822h5.268a.341.341,0,0,0,.325-.281h0a.233.233,0,0,0-.236-.28H259.37a.34.34,0,0,0-.324.28h0A.233.233,0,0,0,259.282,262.822Z" transform="translate(-258.876 -262.261)" opacity="0.4" fill="url(#linear-gradient-76)"/>
            <path id="Trazado_675580" data-name="Trazado 675580" d="M258.98,264.724h5.268a.34.34,0,0,0,.325-.28h0a.233.233,0,0,0-.236-.28h-5.268a.341.341,0,0,0-.325.28h0A.233.233,0,0,0,258.98,264.724Z" transform="translate(-258.741 -263.113)" opacity="0.4" fill="url(#linear-gradient-77)"/>
            <path id="Trazado_675581" data-name="Trazado 675581" d="M263.956,266.626h2.354a.341.341,0,0,0,.325-.28h0a.234.234,0,0,0-.236-.281h-2.354a.341.341,0,0,0-.325.281h0A.233.233,0,0,0,263.956,266.626Z" transform="translate(-260.969 -263.965)" opacity="0.4" fill="url(#linear-gradient-78)"/>
          </g>
        </g>
      </g>
      <g id="Grupo_904378" data-name="Grupo 904378" transform="translate(130.452 152.355)">
        <g id="Grupo_904376" data-name="Grupo 904376" transform="translate(30.032 109.532)">
          <path id="Trazado_675582" data-name="Trazado 675582" d="M250.227,423.593l.332,5.052s3.012,1.05,4.947,0l.519-5.188" transform="translate(-249.987 -423.457)" fill="url(#linear-gradient-79)"/>
          <path id="Trazado_675583" data-name="Trazado 675583" d="M262.3,437.091H249.833a13.065,13.065,0,0,1,.04-2.454,7.141,7.141,0,0,1,.492-1.781,14.291,14.291,0,0,0,4.948,0,39.553,39.553,0,0,1,5.632,2.132A2.3,2.3,0,0,1,262.3,437.091Z" transform="translate(-249.793 -427.666)" fill="url(#linear-gradient-80)"/>
        </g>
        <g id="Grupo_904377" data-name="Grupo 904377" transform="translate(0 107.639)">
          <path id="Trazado_675584" data-name="Trazado 675584" d="M200.871,420.029l-1.362,4.521a5.492,5.492,0,0,0,4.3,1.562l2.306-5.541" transform="translate(-197.245 -420.029)" fill="url(#linear-gradient-79)"/>
          <path id="Trazado_675585" data-name="Trazado 675585" d="M206.524,433.293a.8.8,0,0,1-.115.011H201.5c-.085-.005-.164-.005-.237-.011-1.267-1.148-5.932-5.1-5.847-5.338a10.977,10.977,0,0,1,1.142-2,4.943,4.943,0,0,1,1.753-1.555,8.081,8.081,0,0,0,4.472,1.73s1.216,3.246,1.906,3.845A2.368,2.368,0,0,1,206.524,433.293Z" transform="translate(-195.41 -421.985)" fill="url(#linear-gradient-80)"/>
        </g>
        <path id="Trazado_675586" data-name="Trazado 675586" d="M233.961,378.023c-4.026,1.086-6.021-.223-6.021-.223s-1.165-18.479-1.242-21.831c-.083-3.636.188-6.761.188-6.761-1.7-3.11-3.928-12.108-3.928-12.108s-.786,3.189-1.628,6.316v.005c-.548,2.058-1.125,4.094-1.526,5.174-1.143,3.1-13.147,27.752-13.147,27.752-4.925-.463-5.705-2.024-5.705-2.024s3.223-10.9,5.745-18.055a106.925,106.925,0,0,1,4.145-10.455l1.921-19.023a13.91,13.91,0,0,1-.884-4.665,25.247,25.247,0,0,1,1.739-6.219l16.857-.85,1.86,3.332s3.562,25.853,3.816,29.782S233.961,378.023,233.961,378.023Z" transform="translate(-197.892 -265.385)" fill="url(#linear-gradient-83)"/>
        <path id="Trazado_675587" data-name="Trazado 675587" d="M254.036,232.763c-.077,1.022-.578,2.316-.839,3.852a14.762,14.762,0,0,1-1.192,3.8c-.6,1.212-1.266,2.12-1.985,2.282-1.462.329-6.582-1.18-8.011-6.751-1.686-6.577,3.061-8.361,5.393-8.028S254.3,229.264,254.036,232.763Z" transform="translate(-216.117 -226.349)" fill="url(#linear-gradient-84)"/>
        <path id="Trazado_675588" data-name="Trazado 675588" d="M246.755,244.8a24.54,24.54,0,0,0-.919,5.049s-4.459.743-6.868-.566c0,0,2.5-5.091,2.761-9.533" transform="translate(-214.914 -231.663)" fill="#e9cdb2"/>
        <path id="Trazado_675589" data-name="Trazado 675589" d="M222.185,278.441s-1.791,6.236-1.555,8.591c.085.853,5.324,3.133,5.324,3.133l.99-8.907Z" transform="translate(-206.693 -248.989)" fill="url(#linear-gradient-79)"/>
        <path id="Trazado_675590" data-name="Trazado 675590" d="M227.074,277.6c-.116-.005-.232-.011-.342-.022a12.567,12.567,0,0,1-3.247-.63,8.354,8.354,0,0,1-2.06-.983,66.635,66.635,0,0,1,2.728-9.1Z" transform="translate(-207.059 -243.81)" fill="url(#linear-gradient-86)"/>
        <path id="Trazado_675591" data-name="Trazado 675591" d="M228.4,282.1a12.563,12.563,0,0,1-3.247-.63c.287-1.9.569-4.512.569-4.512l.591.806Z" transform="translate(-208.729 -248.324)" fill="url(#linear-gradient-87)" style="mix-blend-mode: multiply;isolation: isolate"/>
        <path id="Trazado_675592" data-name="Trazado 675592" d="M240.645,291.183a1.71,1.71,0,0,1-.237,1.2c-6.881-1.949-13.524,8.189-21.4,1.762-.32-.265,2.281-4.815,3.639-12.6a62.494,62.494,0,0,0,.591-8.714c.094-4.208-1.055-8.024-.188-10.321,1.132-3,4.9-5.036,6.56-5.334a14.561,14.561,0,0,1,6.632.431c3.186.917,5.688,5.053,5.688,5.053.116,1.977-.69,5.434-1.408,9.261a56.3,56.3,0,0,0-1.011,7.576c-.006.133-.011.271-.017.409C239.391,283.8,240.346,288.765,240.645,291.183Z" transform="translate(-205.962 -239.381)" fill="url(#linear-gradient-88)"/>
        <path id="Trazado_675593" data-name="Trazado 675593" d="M254.43,281.4a56.3,56.3,0,0,0-1.011,7.576c-.006.133-.011.271-.017.409l-.028.077-3.33-11.315,1.668.166Z" transform="translate(-219.874 -248.857)" fill="url(#linear-gradient-89)" style="mix-blend-mode: multiply;isolation: isolate"/>
        <path id="Trazado_675594" data-name="Trazado 675594" d="M290.759,273.972s.305-.947.431-1.489.2-1.131.384-1.1.424.364.519.777a5.831,5.831,0,0,1,0,1.32Z" transform="translate(-238.105 -245.83)" fill="url(#linear-gradient-90)"/>
        <path id="Trazado_675595" data-name="Trazado 675595" d="M278.862,271.786a3.027,3.027,0,0,0-.782.311c-.472.207-.978.406-.978.406l-1.086.7a7.8,7.8,0,0,1,.683-.648c.377-.309.723-.575.809-.66.581-.568.182-.928-.155-.738s-1.123.576-1.376.771c-.427.33-1.423,1.341-1.5,1.428-.141.149-1.264,2.527-1.508,2.851a5.864,5.864,0,0,1-1.248.933c-2.961,1.244-8.951,3.657-8.951,3.657l-2.341-4.829-6.65,1.47s4.654,8.357,6.062,9.307c3.076,2.081,11.553-6.642,14.234-8.078a9,9,0,0,0,1.907-1.129,2.516,2.516,0,0,0,.594-.975h0l.262-.557s.062.786.124,1.134.415.51.557.377a4.394,4.394,0,0,0,.14-1,6.079,6.079,0,0,0,.089-1.337c-.106-.141-.4-.531-.4-.531s.049-.246-.066-.335a2.094,2.094,0,0,0-.507-.318l.908-.733s.361-.2.891-.544S279.039,271.818,278.862,271.786Z" transform="translate(-221.544 -245.707)" fill="url(#linear-gradient-79)"/>
        <path id="Trazado_675596" data-name="Trazado 675596" d="M248.721,268.363c-.339,3.378,3.262,9.424,3.262,9.424a15.172,15.172,0,0,0,6.86-3.555s-2.394-6.109-3.609-7.843C253.929,264.526,249.058,265,248.721,268.363Z" transform="translate(-219.271 -243.109)" fill="url(#linear-gradient-92)"/>
        <path id="Trazado_675597" data-name="Trazado 675597" d="M253.684,230.9c.442-1.184.183-2.479-1.961-2.526-2.5-4.194-7.327-3.3-8.812-2.922-4.005.966-6.1,5.49-5.654,8.82.521,3.871,1.559,4.533,1.954,5.068s3.636,1.336,5.266.55c.536-.259,2.142-5.029,2.324-5.547a.779.779,0,0,1,.177-.341.808.808,0,0,1,.581-.1c.046,0,.085,0,.131,0-.029.49.045,1.108.633.963a1.943,1.943,0,0,0,1.106-1.018A5.37,5.37,0,0,0,253.684,230.9Z" transform="translate(-214.121 -225.108)" fill="#192139"/>
        <path id="Trazado_675598" data-name="Trazado 675598" d="M255.353,241.3s.009-1.932-1.4-1.673c-1.25.231-1.508,3.817-.353,4.076S255.448,242.769,255.353,241.3Z" transform="translate(-221.137 -231.598)" fill="url(#linear-gradient-93)"/>
        <path id="Trazado_675599" data-name="Trazado 675599" d="M235.263,233.848s-5.506,7.56-3.645,12.778c.795,2.228,10.743,4.8,13.336.789-2.222-.681-1.612-6.923-1.612-6.923Z" transform="translate(-211.451 -229.022)" fill="#192139"/>
        <path id="Trazado_675600" data-name="Trazado 675600" d="M239.484,350.424s-.786,3.189-1.628,6.316V344.815Z" transform="translate(-214.416 -278.71)" opacity="0.5" fill="url(#linear-gradient-94)" style="mix-blend-mode: multiply;isolation: isolate"/>
      </g>
      <g id="Grupo_904384" data-name="Grupo 904384" transform="translate(75.6 148.571)">
        <g id="Grupo_904379" data-name="Grupo 904379" transform="translate(20.863 113.601)">
          <path id="Trazado_675601" data-name="Trazado 675601" d="M134.071,423.972l-.211,5.226a5.271,5.271,0,0,0,4.036,0l1.319-4.973" transform="translate(-133.86 -423.972)" fill="url(#linear-gradient-95)"/>
        </g>
        <g id="Grupo_904380" data-name="Grupo 904380" transform="translate(3.881 111.89)">
          <path id="Trazado_675602" data-name="Trazado 675602" d="M104.414,420.874l-1.305,6.218s2.514,1.236,4.479.388l1.619-5.163" transform="translate(-103.109 -420.874)" fill="url(#linear-gradient-96)"/>
          <path id="Trazado_675603" data-name="Trazado 675603" d="M132.474,437.417h11.033a.212.212,0,0,0,.212-.252c-.1-.456-.752-1.176-2-1.825-1.3-.672-4.492-1.909-4.492-1.909a12.17,12.17,0,0,1-4.039,0,3.148,3.148,0,0,0-.771,1.6A11.032,11.032,0,0,0,132.474,437.417Z" transform="translate(-116.208 -426.497)" fill="url(#linear-gradient-97)"/>
        </g>
        <path id="Trazado_675604" data-name="Trazado 675604" d="M164.768,269.087l8.02,11.725s.834,3.4-3.05,2.97-9.765-9.975-9.765-9.975" transform="translate(-124.69 -241.017)" fill="url(#linear-gradient-98)"/>
        <path id="Trazado_675605" data-name="Trazado 675605" d="M164.518,266.458A18.492,18.492,0,0,1,158.772,272l-5.495-5.306-.155-12.113a18.441,18.441,0,0,1,6.3,5.019A73.13,73.13,0,0,1,164.518,266.458Z" transform="translate(-121.623 -234.522)" fill="url(#linear-gradient-99)"/>
        <path id="Trazado_675606" data-name="Trazado 675606" d="M161.635,269.608l1.69,3.784-3.351-.644Z" transform="translate(-124.691 -241.25)" fill="url(#linear-gradient-100)" style="mix-blend-mode: multiply;isolation: isolate"/>
        <path id="Trazado_675607" data-name="Trazado 675607" d="M115.369,310.722a144.423,144.423,0,0,0-5.236,22.779c-1.313,10.689-.819,8.206-1.254,10.952-.392,2.475-1,6.037-2.139,11.176S103.875,375,103.875,375a10.424,10.424,0,0,0,5,.664s6.345-16.312,7.236-20.9a82.15,82.15,0,0,0,1.171-9.674s4.815-9.668,6.7-16.638l1.012-.284-.195,19.047s-3.076,6.968-3.579,12.657-.791,15.969-.791,15.969,3.621,1.1,4.854.249c0,0,6.141-23.449,7.625-29.332s3.847-19.353,4-22.043c.552-9.479-.805-13.529-.805-13.529Z" transform="translate(-99.571 -259.66)" fill="url(#linear-gradient-101)"/>
        <path id="Trazado_675608" data-name="Trazado 675608" d="M104.506,432.186a12.357,12.357,0,0,1-4.512-.335l-.279.873a8.943,8.943,0,0,0-2.851,1.556,2.271,2.271,0,0,0-.667,2.429h8.933A7.759,7.759,0,0,0,104.506,432.186Z" transform="translate(-96.081 -313.899)" fill="url(#linear-gradient-80)"/>
        <path id="Trazado_675609" data-name="Trazado 675609" d="M142.508,284.379c-.127,1.1-.718,1.353-.718,1.353s-4.329,2.259-20.537-.221c0,0-.58-.11-.359-1.182a35,35,0,0,0,.773-8.559,8.355,8.355,0,0,0-.381-2.176c-.6-1.7-1.485-4.086-2.225-6.56-.9-2.987-1.585-6.1-1.314-8.289.558-4.5,8.41-6.389,8.41-6.389l6.726-.061s5.925.6,8.692,4.777c2.148,3.242,1.121,14.369.613,21.862C142.039,281.148,142.652,283.109,142.508,284.379Z" transform="translate(-105.755 -233.498)" fill="url(#linear-gradient-103)"/>
        <path id="Trazado_675610" data-name="Trazado 675610" d="M124.808,277.545l-1.209,9.531h-.817a8.355,8.355,0,0,0-.381-2.176c-.6-1.7-1.485-4.086-2.225-6.56Z" transform="translate(-106.87 -244.804)" fill="url(#linear-gradient-100)" style="mix-blend-mode: multiply;isolation: isolate"/>
        <g id="Grupo_904381" data-name="Grupo 904381" transform="translate(17.309)">
          <path id="Trazado_675611" data-name="Trazado 675611" d="M148.544,225.015s1.1,4.189-.514,4.979c-1.316.642-1.432-1.234-1.432-1.234l-.313-2.042" transform="translate(-135.87 -221.282)" fill="#192139"/>
          <path id="Trazado_675612" data-name="Trazado 675612" d="M133.021,246.34s1.1,2.842,5.272,2.438c3.63-.352,1.459-2.5,1.459-2.5s-.19-.573-.42-1.333c-.225-.742-.489-1.658-.654-2.376l-1.453-1.189-3.079-2.521S134.543,244.343,133.021,246.34Z" transform="translate(-129.931 -227.483)" fill="url(#linear-gradient-105)"/>
          <path id="Trazado_675613" data-name="Trazado 675613" d="M137.223,243.457a7.283,7.283,0,0,0,3.99,3.538c-.225-.742-.489-1.658-.654-2.376l-1.453-1.189Z" transform="translate(-131.812 -229.528)" fill="url(#linear-gradient-106)" style="mix-blend-mode: multiply;isolation: isolate"/>
          <path id="Trazado_675614" data-name="Trazado 675614" d="M140.906,226.415s1.743,8.4-.694,9.725a6.031,6.031,0,0,1-5.653-1.31,8.211,8.211,0,0,1-2.007-2.473c-.832-1.529-2.186-4.395-1.9-6.4C131.057,223.1,139.2,220.141,140.906,226.415Z" transform="translate(-128.853 -220.245)" fill="url(#linear-gradient-107)"/>
          <path id="Trazado_675615" data-name="Trazado 675615" d="M136.041,235.386s-.5-1.545-1.578-1.092c-1.423.6.146,4.238,1.548,3.227" transform="translate(-130.326 -225.4)" fill="url(#linear-gradient-108)"/>
          <path id="Trazado_675616" data-name="Trazado 675616" d="M128.684,221.63c1.817-3.611,5.177-1.888,8.94-2.249,1.277-1.228,2.616-1.292,3.3-.939.938.484.888,2.349.807,3.142-.509,4.948-5.964,4.571-7.555,4.349a2.213,2.213,0,0,1-.358,1.035,1.863,1.863,0,0,1-1,.641,1.1,1.1,0,0,0-.851-.542.952.952,0,0,0-.4.081.886.886,0,0,0-.522.7,3.154,3.154,0,0,0,.684,2.175c.023,1.081-.07,2.033-.073,2.682a21.516,21.516,0,0,0-1.42-2.086,9.98,9.98,0,0,1-1.678-3.017c-.006,0-.006,0-.006,0C128.22,227.049,126.115,223.344,128.684,221.63Z" transform="translate(-127.425 -218.255)" fill="#192139"/>
        </g>
        <path id="Trazado_675617" data-name="Trazado 675617" d="M152.339,290l-11.917-.334a.855.855,0,0,1-.786-1.128l5.536-16.362a1.487,1.487,0,0,1,1.45-1.009l11.917.334a.855.855,0,0,1,.786,1.128l-5.537,16.362A1.486,1.486,0,0,1,152.339,290Z" transform="translate(-115.563 -241.946)" fill="url(#linear-gradient-109)"/>
        <path id="Trazado_675618" data-name="Trazado 675618" d="M134.032,281.293c-.1-.263-.632-.158-.791-.1s-.34.141-.626.263l-.216.092c.435-.255.738-.436.636-.7s-.632-.157-.79-.1-.34.141-.627.263c-.4.171-1.006.435-1.363.592-.637.1-1.415.315-1.41.281.031-.23.183-.519.229-.777.109-.242.494-1.169.25-1.474-.277-.345-.472-.205-.684.236a7.49,7.49,0,0,1-1.069,1.33c-.226.252-.255.51-.551.863a2.351,2.351,0,0,1-1.214.7c-.578.124-5.736.32-9.323.426a71.8,71.8,0,0,0,1.724-8.776l-6.746-2.553s-2.518,15.134-1.708,16.515c.583.995,2.121,1.469,3.688,1.3,2.083-.226,6.533-1.887,13.115-3.751,1.035-.138,1.716-.258,3.05-.431a5.162,5.162,0,0,0,1.18-.3v0l.03-.013c.03-.012.057-.024.085-.037a10.462,10.462,0,0,0,1.223-.631c.6-.374,1.323-.844,1.2-1.177-.06-.158-.275-.182-.472-.165.544-.336,1.011-.629.9-.935-.048-.126-.2-.167-.356-.169C133.839,281.789,134.136,281.57,134.032,281.293Z" transform="translate(-102.131 -242.258)" fill="url(#linear-gradient-110)"/>
        <path id="Trazado_675619" data-name="Trazado 675619" d="M113.709,259.676c.818-1.534,4.043-3.287,4.043-3.287L121,264.027c.036,2.71-1.646,9.785-1.646,9.785a24.64,24.64,0,0,1-4.69-.258,32.3,32.3,0,0,1-4.035-.967S111.726,263.392,113.709,259.676Z" transform="translate(-102.593 -235.331)" fill="url(#linear-gradient-111)"/>
        <g id="Grupo_904383" data-name="Grupo 904383" transform="translate(40.344 9.232)">
          <rect id="Rectángulo_303324" data-name="Rectángulo 303324" width="25.339" height="8.295" rx="4.147" transform="matrix(0.992, -0.125, 0.125, 0.992, 0, 3.156)" fill="#fff"/>
          <path id="Rectángulo_303325" data-name="Rectángulo 303325" d="M2.2,0h0a2.2,2.2,0,0,1,2.2,2.2v0a2.2,2.2,0,0,1-2.2,2.2h0A2.2,2.2,0,0,1,0,2.2v0A2.2,2.2,0,0,1,2.2,0Z" transform="matrix(0.992, -0.125, 0.125, 0.992, 2.007, 4.863)" fill="url(#linear-gradient-112)"/>
          <g id="Grupo_904382" data-name="Grupo 904382" transform="translate(7.678 3.192)">
            <path id="Trazado_675620" data-name="Trazado 675620" d="M198.089,241.2l-14.8,1.858a.218.218,0,0,1-.243-.188v-.012a.217.217,0,0,1,.188-.242l14.8-1.858a.217.217,0,0,1,.242.188l0,.012A.217.217,0,0,1,198.089,241.2Z" transform="translate(-183.042 -240.754)" fill="url(#linear-gradient-113)"/>
            <path id="Trazado_675621" data-name="Trazado 675621" d="M189.663,245.08l-6.136.77a.218.218,0,0,1-.243-.189v-.012a.217.217,0,0,1,.188-.242l6.136-.77a.218.218,0,0,1,.243.188l0,.012A.218.218,0,0,1,189.663,245.08Z" transform="translate(-183.149 -242.492)" fill="url(#linear-gradient-114)"/>
            <path id="Trazado_675622" data-name="Trazado 675622" d="M204.017,243.109l-7.786.977a.217.217,0,0,1-.242-.188l0-.012a.217.217,0,0,1,.189-.242l7.786-.977a.217.217,0,0,1,.242.188l0,.012A.218.218,0,0,1,204.017,243.109Z" transform="translate(-188.838 -241.61)" fill="url(#linear-gradient-115)"/>
            <path id="Trazado_675623" data-name="Trazado 675623" d="M191.769,246.566l-8,1a.218.218,0,0,1-.243-.189v-.012a.217.217,0,0,1,.188-.243l8-1a.218.218,0,0,1,.243.189l0,.012A.218.218,0,0,1,191.769,246.566Z" transform="translate(-183.257 -243.157)" fill="url(#linear-gradient-116)"/>
          </g>
        </g>
        <path id="Trazado_675624" data-name="Trazado 675624" d="M180.251,251.685l-.056-.025s.16-.448.3-.957a3.365,3.365,0,0,0,.469-1.1c0-.953-.731-.3-1.136.134-1.047.89-1.795,1.691-1.795,2.571,0,1.674-.057,2.985-.057,2.985-1.394,3.99-4.218,12.11-4.218,12.11l5.028,6.36s1.025-1.714,1.387-9.8a59.047,59.047,0,0,1,1.012-7.846,11.9,11.9,0,0,0,1.647-2.5c.251-.366.48-.695.6-.849a5.278,5.278,0,0,0,.574-1.559Z" transform="translate(-130.863 -232.073)" fill="url(#linear-gradient-117)"/>
      </g>
      <g id="Grupo_904386" data-name="Grupo 904386" transform="translate(186.255 130.935)">
        <rect id="Rectángulo_303326" data-name="Rectángulo 303326" width="33.121" height="10.842" rx="4.741" fill="#fff"/>
        <path id="Rectángulo_303327" data-name="Rectángulo 303327" d="M2.5,0h.771a2.5,2.5,0,0,1,2.5,2.5v.771a2.5,2.5,0,0,1-2.5,2.5H2.5A2.5,2.5,0,0,1,0,3.267V2.5A2.5,2.5,0,0,1,2.5,0Z" transform="translate(2.325 2.54)" fill="url(#linear-gradient-118)"/>
        <g id="Grupo_904385" data-name="Grupo 904385" transform="translate(9.612 3.739)">
          <path id="Trazado_675625" data-name="Trazado 675625" d="M333.643,193.673H314.16a.292.292,0,0,1-.292-.292h0a.292.292,0,0,1,.292-.292h19.483a.292.292,0,0,1,.292.292h0A.292.292,0,0,1,333.643,193.673Z" transform="translate(-313.868 -193.09)" fill="url(#linear-gradient-119)"/>
          <path id="Trazado_675626" data-name="Trazado 675626" d="M322.228,196.191H314.16a.292.292,0,0,1-.292-.292h0a.292.292,0,0,1,.292-.292h8.067a.291.291,0,0,1,.292.292h0A.292.292,0,0,1,322.228,196.191Z" transform="translate(-313.868 -194.217)" fill="url(#linear-gradient-120)"/>
          <path id="Trazado_675627" data-name="Trazado 675627" d="M341.137,196.191H330.9a.292.292,0,0,1-.292-.292h0a.292.292,0,0,1,.292-.292h10.241a.292.292,0,0,1,.292.292h0A.292.292,0,0,1,341.137,196.191Z" transform="translate(-321.362 -194.217)" fill="url(#linear-gradient-121)"/>
          <path id="Trazado_675628" data-name="Trazado 675628" d="M324.685,198.708H314.16a.292.292,0,0,1-.292-.292h0a.292.292,0,0,1,.292-.292h10.525a.292.292,0,0,1,.292.292h0A.292.292,0,0,1,324.685,198.708Z" transform="translate(-313.868 -195.344)" fill="url(#linear-gradient-122)"/>
        </g>
      </g>
      <g id="Grupo_904387" data-name="Grupo 904387" transform="translate(122.714 121.217)">
        <path id="Rectángulo_303328" data-name="Rectángulo 303328" d="M6.353,0H18.468a6.353,6.353,0,0,1,6.353,6.353v3.666a6.352,6.352,0,0,1-6.352,6.352H6.353A6.353,6.353,0,0,1,0,10.018V6.353A6.353,6.353,0,0,1,6.353,0Z" transform="translate(0)" fill="url(#linear-gradient-123)"/>
        <path id="Trazado_675629" data-name="Trazado 675629" d="M199.806,177.914l4.139,2.389a1.021,1.021,0,0,1,0,1.768l-4.139,2.39a1.021,1.021,0,0,1-1.531-.884V178.8A1.021,1.021,0,0,1,199.806,177.914Z" transform="translate(-188.955 -172.776)" fill="#fff"/>
      </g>
      <g id="Grupo_904391" data-name="Grupo 904391" transform="translate(50.343 130.885)">
        <rect id="Rectángulo_303329" data-name="Rectángulo 303329" width="35.163" height="34.395" rx="6.501" fill="url(#linear-gradient-124)"/>
        <path id="Trazado_675630" data-name="Trazado 675630" d="M76.616,204.525H61.3a3.353,3.353,0,0,1-3.353-3.353h0a3.354,3.354,0,0,1,3.353-3.354H76.616a3.354,3.354,0,0,1,3.354,3.354h0A3.354,3.354,0,0,1,76.616,204.525Z" transform="translate(-53.747 -191.418)" fill="none" stroke="#fff" stroke-miterlimit="10" stroke-width="0.5"/>
        <path id="Trazado_675631" data-name="Trazado 675631" d="M85.205,224.078H69.887a3.353,3.353,0,0,1-3.353-3.353h0a3.353,3.353,0,0,1,3.353-3.354H85.205a3.353,3.353,0,0,1,3.353,3.354h0A3.353,3.353,0,0,1,85.205,224.078Z" transform="translate(-57.593 -200.174)" fill="none" stroke="#fff" stroke-miterlimit="10" stroke-width="0.5"/>
        <g id="Grupo_904388" data-name="Grupo 904388" transform="translate(7.361 7.656)">
          <path id="Trazado_675632" data-name="Trazado 675632" d="M79.741,200.9H64.078a.406.406,0,0,1-.405-.405h0a.405.405,0,0,1,.405-.4H79.741a.4.4,0,0,1,.4.4h0A.405.405,0,0,1,79.741,200.9Z" transform="translate(-63.673 -200.093)" fill="#fff"/>
          <path id="Trazado_675633" data-name="Trazado 675633" d="M79.741,203.967H64.078a.405.405,0,0,1-.405-.4h0a.405.405,0,0,1,.405-.405H79.741a.4.4,0,0,1,.4.405h0A.4.4,0,0,1,79.741,203.967Z" transform="translate(-63.673 -201.465)" fill="#fff"/>
          <path id="Trazado_675634" data-name="Trazado 675634" d="M71.5,207.032H64.078a.406.406,0,0,1-.405-.405h0a.405.405,0,0,1,.405-.4H71.5a.4.4,0,0,1,.4.4h0A.405.405,0,0,1,71.5,207.032Z" transform="translate(-63.673 -202.837)" fill="#fff"/>
        </g>
        <g id="Grupo_904389" data-name="Grupo 904389" transform="translate(11.479 18.454)">
          <path id="Trazado_675635" data-name="Trazado 675635" d="M71.536,220.456H87.2a.406.406,0,0,0,.405-.405h0a.405.405,0,0,0-.405-.4H71.536a.4.4,0,0,0-.4.4h0A.405.405,0,0,0,71.536,220.456Z" transform="translate(-71.131 -219.646)" fill="#fff"/>
          <path id="Trazado_675636" data-name="Trazado 675636" d="M82.231,223.52h9.756a.405.405,0,0,0,.405-.4h0a.406.406,0,0,0-.405-.405H82.231a.406.406,0,0,0-.405.405h0A.405.405,0,0,0,82.231,223.52Z" transform="translate(-75.92 -221.018)" fill="#fff"/>
          <path id="Trazado_675637" data-name="Trazado 675637" d="M71.536,223.52h4.178a.4.4,0,0,0,.4-.4h0a.405.405,0,0,0-.4-.405H71.536a.405.405,0,0,0-.4.405h0A.4.4,0,0,0,71.536,223.52Z" transform="translate(-71.131 -221.018)" fill="#fff"/>
          <path id="Trazado_675638" data-name="Trazado 675638" d="M86.451,226.585h7.426a.406.406,0,0,0,.405-.405h0a.405.405,0,0,0-.405-.4H86.451a.4.4,0,0,0-.4.4h0A.405.405,0,0,0,86.451,226.585Z" transform="translate(-77.81 -222.39)" fill="#fff"/>
        </g>
        <g id="Grupo_904390" data-name="Grupo 904390" transform="translate(4.198 27.594)">
          <path id="Trazado_675639" data-name="Trazado 675639" d="M59.511,236.981a.783.783,0,1,1-.783-.783A.783.783,0,0,1,59.511,236.981Z" transform="translate(-57.945 -236.198)" fill="#fff"/>
          <path id="Trazado_675640" data-name="Trazado 675640" d="M65.24,236.981a.783.783,0,1,1-.784-.783A.783.783,0,0,1,65.24,236.981Z" transform="translate(-60.51 -236.198)" fill="#fff"/>
          <path id="Trazado_675641" data-name="Trazado 675641" d="M70.968,236.981a.783.783,0,1,1-.783-.783A.783.783,0,0,1,70.968,236.981Z" transform="translate(-63.075 -236.198)" fill="#fff"/>
        </g>
      </g>
      <g id="Grupo_904392" data-name="Grupo 904392" transform="translate(329.112 197.892)">
        <rect id="Rectángulo_303330" data-name="Rectángulo 303330" width="26.706" height="24.925" rx="5.354" transform="translate(0 0)" fill="#fff"/>
        <path id="Rectángulo_303331" data-name="Rectángulo 303331" d="M3.508,0h15.96a3.508,3.508,0,0,1,3.508,3.508V17.936a3.507,3.507,0,0,1-3.507,3.507H3.508A3.508,3.508,0,0,1,0,17.936V3.508A3.508,3.508,0,0,1,3.508,0Z" transform="translate(1.866 1.741)" fill="#eef6fd"/>
        <path id="Trazado_675642" data-name="Trazado 675642" d="M574.986,340.35h-14.4a1.924,1.924,0,0,1-1.8-1.237l6.3-9.391a1.662,1.662,0,0,1,2.751,0l2.008,2.987Z" transform="translate(-556.783 -317.164)" fill="url(#linear-gradient-125)"/>
        <path id="Trazado_675643" data-name="Trazado 675643" d="M586.436,325.548v8.566a1.943,1.943,0,0,1-1.938,1.938H569.529l5.131-7.64,5.62-8.359a1.481,1.481,0,0,1,2.462,0Z" transform="translate(-561.594 -312.865)" fill="url(#linear-gradient-126)"/>
        <path id="Trazado_675644" data-name="Trazado 675644" d="M573.069,317.292a3.509,3.509,0,1,1-3.509-3.509A3.509,3.509,0,0,1,573.069,317.292Z" transform="translate(-560.036 -310.352)" fill="url(#linear-gradient-127)"/>
      </g>
      <g id="Grupo_904393" data-name="Grupo 904393" transform="translate(274.404 153.885)">
        <path id="Trazado_675645" data-name="Trazado 675645" d="M493.719,235.37l-18.811-7.491L456.1,235.37s-.92,26.5,18.811,33.36C494.639,261.871,493.719,235.37,493.719,235.37Z" transform="translate(-456.09 -227.879)" fill="url(#linear-gradient-128)"/>
        <path id="Trazado_675646" data-name="Trazado 675646" d="M476.033,232.358l15.735,6.262c-.262,5.6-2.188,22.6-15.735,28.072-13.524-5.46-15.47-22.465-15.739-28.073l15.739-6.262m0-1.783L458.6,237.511c.077,4.528,1.32,24.988,17.434,30.957,16.108-5.969,17.356-26.429,17.428-30.957l-17.428-6.936Z" transform="translate(-457.213 -229.086)" fill="#fff"/>
        <path id="Trazado_675647" data-name="Trazado 675647" d="M469.577,247.84s8.363,5.568,11.344,13.348c0,0,8.026-20.462,18.844-27.384,0,0-10.492,2.071-19.788,19.282A16.357,16.357,0,0,0,469.577,247.84Z" transform="translate(-462.129 -230.532)" fill="url(#linear-gradient-129)"/>
      </g>
      <g id="Grupo_904394" data-name="Grupo 904394" transform="translate(58.575 108.884)">
        <line id="Línea_632" data-name="Línea 632" x2="286.878" transform="translate(0 162.695)" fill="none" stroke="#232230" stroke-linecap="round" stroke-linejoin="round" stroke-width="1"/>
        <path id="Trazado_675648" data-name="Trazado 675648" d="M146.376,180.24v-17.8a16.056,16.056,0,0,1,16.056-16.055H294.813a16.055,16.055,0,0,1,16.056,16.055v42.613" transform="translate(-101.577 -146.389)" fill="none" stroke="#fff" stroke-linecap="round" stroke-linejoin="round" stroke-width="2" stroke-dasharray="5 6"/>
        <line id="Línea_633" data-name="Línea 633" y2="39.162" transform="translate(102.907)" fill="none" stroke="#fff" stroke-linecap="round" stroke-linejoin="round" stroke-width="2" stroke-dasharray="5 6"/>
        <line id="Línea_634" data-name="Línea 634" y2="33.895" transform="translate(169.818)" fill="none" stroke="#fff" stroke-linecap="round" stroke-linejoin="round" stroke-width="2" stroke-dasharray="5 6"/>
      </g>
    </g>
  </g>
</svg>
